STARTFONT 2.1
COMMENT $Xorg: $
COMMENT ISO10646-1 extension by Markus Kuhn <mkuhn@acm.org>, 2001-03-20
COMMENT  (c) Copyright Bigelow & Holmes 1986, 1985. Lucida is a registered
COMMENT  trademark of Bigelow & Holmes. See LEGAL NOTICE file for terms 
COMMENT  of the license. 
FONT -B&H-Lucida-Medium-I-Normal-Sans-20-140-100-100-P-114-ISO10646-1
SIZE 14 100 100
FONTBOUNDINGBOX 38 31 -12 -9
STARTPROPERTIES 22
COMMENT Begin LogicalFontDescription
FONTNAME_REGISTRY ""
FOUNDRY "B&H"
FAMILY_NAME "Lucida"
WEIGHT_NAME "Medium"
SLANT "I"
SETWIDTH_NAME "Normal"
ADD_STYLE_NAME "Sans"
PIXEL_SIZE 20
POINT_SIZE 140
RESOLUTION_X 100
RESOLUTION_Y 100
SPACING "P"
AVERAGE_WIDTH 114
CHARSET_REGISTRY "ISO10646"
CHARSET_ENCODING "1"
COMMENT END LogicalFontDescription
FONT_ASCENT 18
FONT_DESCENT 5
DEFAULT_CHAR 0
COPYRIGHT "Copyright Bigelow & Holmes 1986, 1985."
FACE_NAME "Lucida Sans Italic"
X_HEIGHT 11
CAP_HEIGHT 14
ENDPROPERTIES
CHARS 723
STARTCHAR char0
ENCODING 0
SWIDTH 735 0
DWIDTH 15 0
BBX 13 13 2 0
BITMAP
AAA8
0000
8008
0000
8008
0000
8008
0000
8008
0000
8008
0000
AAA8
ENDCHAR
STARTCHAR space
ENCODING 32
SWIDTH 316 0
DWIDTH 6 0
BBX 1 1 0 0
BITMAP
00
ENDCHAR
STARTCHAR exclam
ENCODING 33
SWIDTH 193 0
DWIDTH 6 0
BBX 5 14 2 0
BITMAP
18
18
30
30
30
30
30
20
60
60
00
00
C0
C0
ENDCHAR
STARTCHAR quotedbl
ENCODING 34
SWIDTH 361 0
DWIDTH 7 0
BBX 5 5 4 9
BITMAP
D8
D8
D8
C8
C8
ENDCHAR
STARTCHAR numbersign
ENCODING 35
SWIDTH 633 0
DWIDTH 13 0
BBX 12 14 2 0
BITMAP
0330
0270
0660
04E0
7FF0
7FF0
0880
1980
1100
FFE0
FFE0
2600
6E00
DC00
ENDCHAR
STARTCHAR dollar
ENCODING 36
SWIDTH 633 0
DWIDTH 13 0
BBX 10 18 3 -2
BITMAP
0200
0600
1FC0
3FC0
3400
2400
3400
1C00
0C00
0E00
0B00
0B00
0B00
1300
F600
FC00
1000
1000
ENDCHAR
STARTCHAR percent
ENCODING 37
SWIDTH 741 0
DWIDTH 15 0
BBX 14 14 2 0
BITMAP
1C0C
3E18
6230
6660
7CC0
3980
0170
02F0
0590
0D18
1910
3130
61F0
C0E0
ENDCHAR
STARTCHAR ampersand
ENCODING 38
SWIDTH 701 0
DWIDTH 14 0
BBX 12 14 2 0
BITMAP
03C0
07E0
0C60
0C60
0CC0
0F80
3E00
7630
C330
C370
C1E0
E1C0
7FC0
3C60
ENDCHAR
STARTCHAR quotesingle
ENCODING 39
SWIDTH 217 0
DWIDTH 4 0
BBX 2 4 4 10
BITMAP
C0
C0
C0
C0
ENDCHAR
STARTCHAR parenleft
ENCODING 40
SWIDTH 325 0
DWIDTH 7 0
BBX 7 18 2 -4
BITMAP
06
04
08
18
30
60
60
60
C0
C0
C0
C0
C0
C0
C0
60
60
20
ENDCHAR
STARTCHAR parenright
ENCODING 41
SWIDTH 325 0
DWIDTH 7 0
BBX 7 18 0 -4
BITMAP
08
18
0C
0C
04
06
06
06
04
0C
0C
0C
18
18
30
60
C0
80
ENDCHAR
STARTCHAR asterisk
ENCODING 42
SWIDTH 470 0
DWIDTH 9 0
BBX 7 7 3 7
BITMAP
18
10
D6
6C
30
C8
48
ENDCHAR
STARTCHAR plus
ENCODING 43
SWIDTH 633 0
DWIDTH 13 0
BBX 12 12 1 0
BITMAP
0300
0300
0300
0600
0600
FFF0
FFF0
0600
0600
0C00
0C00
0C00
ENDCHAR
STARTCHAR comma
ENCODING 44
SWIDTH 316 0
DWIDTH 6 0
BBX 4 7 1 -4
BITMAP
70
70
70
20
60
60
C0
ENDCHAR
STARTCHAR hyphen
ENCODING 45
SWIDTH 313 0
DWIDTH 6 0
BBX 5 2 2 6
BITMAP
F8
F8
ENDCHAR
STARTCHAR period
ENCODING 46
SWIDTH 316 0
DWIDTH 6 0
BBX 3 2 2 0
BITMAP
E0
E0
ENDCHAR
STARTCHAR slash
ENCODING 47
SWIDTH 482 0
DWIDTH 10 0
BBX 13 18 0 -4
BITMAP
0018
0030
0020
0060
00C0
00C0
0180
0100
0300
0600
0400
0C00
1800
1800
3000
2000
6000
C000
ENDCHAR
STARTCHAR zero
ENCODING 48
SWIDTH 633 0
DWIDTH 13 0
BBX 11 14 2 0
BITMAP
0780
1FC0
38C0
3060
6060
6060
C060
C0C0
C0C0
C0C0
C180
E300
7F00
3C00
ENDCHAR
STARTCHAR one
ENCODING 49
SWIDTH 633 0
DWIDTH 13 0
BBX 5 14 5 0
BITMAP
78
F8
10
30
30
30
30
60
60
60
60
60
C0
C0
ENDCHAR
STARTCHAR two
ENCODING 50
SWIDTH 633 0
DWIDTH 13 0
BBX 11 14 2 0
BITMAP
0F80
1FE0
10E0
0060
0060
00C0
0180
0300
0E00
1800
3000
6000
FF80
FF80
ENDCHAR
STARTCHAR three
ENCODING 51
SWIDTH 633 0
DWIDTH 13 0
BBX 10 14 2 0
BITMAP
1F80
1FC0
10C0
00C0
00C0
0380
1E00
1F80
0380
0180
0180
8300
FF00
FC00
ENDCHAR
STARTCHAR four
ENCODING 52
SWIDTH 633 0
DWIDTH 13 0
BBX 10 14 2 0
BITMAP
01C0
01C0
0380
0680
0D80
1980
3180
2100
6100
FFC0
FFC0
0300
0300
0600
ENDCHAR
STARTCHAR five
ENCODING 53
SWIDTH 633 0
DWIDTH 13 0
BBX 11 14 3 0
BITMAP
1FE0
1FC0
1000
3000
3000
3E00
3F00
0380
0180
0180
0180
8300
FE00
FC00
ENDCHAR
STARTCHAR six
ENCODING 54
SWIDTH 633 0
DWIDTH 13 0
BBX 11 14 3 0
BITMAP
07C0
0FE0
1820
3000
6000
6F00
FF80
E1C0
C0C0
C0C0
C180
E380
7F00
3C00
ENDCHAR
STARTCHAR seven
ENCODING 55
SWIDTH 633 0
DWIDTH 13 0
BBX 11 14 3 0
BITMAP
3FE0
3FE0
00E0
01C0
0380
0700
0E00
1C00
3800
3000
7000
6000
E000
C000
ENDCHAR
STARTCHAR eight
ENCODING 56
SWIDTH 633 0
DWIDTH 13 0
BBX 10 14 3 0
BITMAP
0F80
1FC0
38C0
30C0
3180
3B80
1E00
7F00
6380
C180
C180
E380
FF00
3C00
ENDCHAR
STARTCHAR nine
ENCODING 57
SWIDTH 633 0
DWIDTH 13 0
BBX 11 14 2 0
BITMAP
0F80
1FC0
38C0
3060
6060
6060
71E0
3FC0
1EC0
00C0
0180
8700
FE00
7C00
ENDCHAR
STARTCHAR colon
ENCODING 58
SWIDTH 316 0
DWIDTH 6 0
BBX 4 11 2 0
BITMAP
30
30
00
00
00
00
00
00
00
C0
C0
ENDCHAR
STARTCHAR semicolon
ENCODING 59
SWIDTH 316 0
DWIDTH 6 0
BBX 5 15 1 -4
BITMAP
18
18
00
00
00
00
00
00
00
60
60
60
40
40
80
ENDCHAR
STARTCHAR less
ENCODING 60
SWIDTH 633 0
DWIDTH 13 0
BBX 13 12 2 0
BITMAP
0008
0038
00E0
0780
1E00
7800
F000
3C00
0F00
03C0
01E0
0060
ENDCHAR
STARTCHAR equal
ENCODING 61
SWIDTH 633 0
DWIDTH 13 0
BBX 13 6 1 3
BITMAP
7FF8
7FF8
0000
0000
FFF0
FFF0
ENDCHAR
STARTCHAR greater
ENCODING 62
SWIDTH 633 0
DWIDTH 13 0
BBX 13 12 0 0
BITMAP
3000
3C00
1E00
0780
01E0
0078
00F0
03C0
0F00
3800
E000
8000
ENDCHAR
STARTCHAR question
ENCODING 63
SWIDTH 464 0
DWIDTH 9 0
BBX 8 14 3 0
BITMAP
7E
7F
87
03
03
06
1C
38
70
60
60
00
C0
C0
ENDCHAR
STARTCHAR at
ENCODING 64
SWIDTH 858 0
DWIDTH 17 0
BBX 16 14 2 0
BITMAP
03F0
0FFC
1C0E
31F2
63E3
4621
8423
8CE2
8CE6
8F7C
C638
7040
3FC0
0F80
ENDCHAR
STARTCHAR A
ENCODING 65
SWIDTH 687 0
DWIDTH 14 0
BBX 13 14 0 0
BITMAP
00C0
01E0
01E0
0360
0360
0660
0C70
0C30
1830
1FF0
3FF0
6038
6018
C018
ENDCHAR
STARTCHAR B
ENCODING 66
SWIDTH 593 0
DWIDTH 12 0
BBX 11 14 2 0
BITMAP
1F80
1FC0
30C0
30E0
30C0
3180
3F00
7F80
6180
60C0
60C0
6380
FF80
FE00
ENDCHAR
STARTCHAR C
ENCODING 67
SWIDTH 679 0
DWIDTH 14 0
BBX 13 14 2 0
BITMAP
03F0
0FF8
1C08
3800
7000
6000
E000
C000
C000
C000
C000
6020
7FE0
1F00
ENDCHAR
STARTCHAR D
ENCODING 68
SWIDTH 743 0
DWIDTH 15 0
BBX 14 14 2 0
BITMAP
1FF0
1FF8
383C
301C
300C
300C
300C
601C
6018
6038
6030
40E0
FFC0
FF00
ENDCHAR
STARTCHAR E
ENCODING 69
SWIDTH 547 0
DWIDTH 11 0
BBX 11 14 2 0
BITMAP
1FE0
1FE0
3800
3000
3000
3000
3F80
7F00
6000
6000
6000
6000
FF80
FF80
ENDCHAR
STARTCHAR F
ENCODING 70
SWIDTH 536 0
DWIDTH 11 0
BBX 11 14 2 0
BITMAP
1FE0
1FE0
3800
3000
3000
3000
3F80
7F00
6000
6000
6000
6000
C000
C000
ENDCHAR
STARTCHAR G
ENCODING 71
SWIDTH 702 0
DWIDTH 14 0
BBX 13 14 2 0
BITMAP
03F0
0FF8
1C08
3800
7000
6000
E000
C030
C060
C060
E060
7060
7FE0
1F80
ENDCHAR
STARTCHAR H
ENCODING 72
SWIDTH 735 0
DWIDTH 15 0
BBX 14 14 2 0
BITMAP
180C
180C
3018
3018
3018
3018
3FF8
7FF0
6030
6030
6030
6030
C060
C060
ENDCHAR
STARTCHAR I
ENCODING 73
SWIDTH 289 0
DWIDTH 6 0
BBX 5 14 2 0
BITMAP
18
18
30
30
30
30
30
60
60
60
60
60
C0
C0
ENDCHAR
STARTCHAR J
ENCODING 74
SWIDTH 408 0
DWIDTH 8 0
BBX 10 18 0 -4
BITMAP
00C0
00C0
0180
0180
0180
0180
0180
0300
0300
0300
0300
0300
0600
0600
0600
0C00
FC00
F800
ENDCHAR
STARTCHAR K
ENCODING 75
SWIDTH 635 0
DWIDTH 13 0
BBX 13 14 2 0
BITMAP
1838
1860
38C0
3180
3300
3600
3C00
6E00
6600
6700
6380
6180
C0C0
C0E0
ENDCHAR
STARTCHAR L
ENCODING 76
SWIDTH 545 0
DWIDTH 11 0
BBX 9 14 2 0
BITMAP
1800
1800
3000
3000
3000
3000
2000
6000
6000
6000
6000
4000
FF80
FF80
ENDCHAR
STARTCHAR M
ENCODING 77
SWIDTH 828 0
DWIDTH 17 0
BBX 16 14 2 0
BITMAP
1C07
1C0F
3C0E
3C1E
3416
3636
2666
6664
66CC
668C
478C
430C
C318
C018
ENDCHAR
STARTCHAR N
ENCODING 78
SWIDTH 741 0
DWIDTH 15 0
BBX 14 14 2 0
BITMAP
180C
1C0C
3C08
3C08
3618
3618
2318
6310
61B0
61B0
40F0
40F0
C0E0
C060
ENDCHAR
STARTCHAR O
ENCODING 79
SWIDTH 777 0
DWIDTH 16 0
BBX 14 14 2 0
BITMAP
03E0
0FF8
1C3C
381C
700C
600C
E00C
C00C
C018
C038
E070
70E0
7FC0
1F00
ENDCHAR
STARTCHAR P
ENCODING 80
SWIDTH 575 0
DWIDTH 12 0
BBX 11 14 2 0
BITMAP
1FC0
1FE0
3860
3060
3060
30C0
31C0
7F80
7E00
6000
6000
6000
C000
C000
ENDCHAR
STARTCHAR Q
ENCODING 81
SWIDTH 777 0
DWIDTH 16 0
BBX 14 18 2 -4
BITMAP
03E0
0FF8
1C38
381C
700C
600C
E00C
C00C
C018
C038
E070
70E0
7FC0
1F80
01C0
00F0
007C
0018
ENDCHAR
STARTCHAR R
ENCODING 82
SWIDTH 632 0
DWIDTH 13 0
BBX 11 14 2 0
BITMAP
1FC0
1FE0
30E0
3060
3060
30C0
3180
7E00
7F00
6300
6380
6180
C0C0
C0C0
ENDCHAR
STARTCHAR S
ENCODING 83
SWIDTH 553 0
DWIDTH 11 0
BBX 11 14 1 0
BITMAP
07C0
1FE0
1820
3000
3800
1C00
0E00
0700
0380
0180
0180
8380
FF00
7E00
ENDCHAR
STARTCHAR T
ENCODING 84
SWIDTH 623 0
DWIDTH 12 0
BBX 13 14 2 0
BITMAP
FFF8
FFF8
0600
0600
0600
0E00
0C00
0C00
0C00
0C00
1800
1800
1800
1800
ENDCHAR
STARTCHAR U
ENCODING 85
SWIDTH 693 0
DWIDTH 14 0
BBX 12 14 3 0
BITMAP
3030
3030
7030
6060
6060
6060
6060
C060
C0C0
C0C0
C0C0
E180
FF80
7E00
ENDCHAR
STARTCHAR V
ENCODING 86
SWIDTH 687 0
DWIDTH 14 0
BBX 13 14 3 0
BITMAP
C018
C030
E030
6060
60C0
60C0
6180
7180
3300
3600
3600
3C00
3C00
1800
ENDCHAR
STARTCHAR W
ENCODING 87
SWIDTH 886 0
DWIDTH 18 0
BBX 17 14 3 0
BITMAP
C1C180
C1C300
C3C300
C3C600
C2C600
C6CC00
C4CC00
CCD800
C8D800
58F000
50F000
70E000
70E000
60C000
ENDCHAR
STARTCHAR X
ENCODING 88
SWIDTH 620 0
DWIDTH 12 0
BBX 15 14 0 0
BITMAP
1C0E
0C1C
0638
0630
0360
03C0
0180
0380
07C0
0CC0
1860
3860
7030
E038
ENDCHAR
STARTCHAR Y
ENCODING 89
SWIDTH 608 0
DWIDTH 12 0
BBX 12 14 3 0
BITMAP
C070
60E0
60C0
3180
3300
3F00
1E00
1C00
1800
1800
1800
1800
3000
3000
ENDCHAR
STARTCHAR Z
ENCODING 90
SWIDTH 578 0
DWIDTH 12 0
BBX 13 14 1 0
BITMAP
1FF8
1FF8
0070
00E0
00C0
0180
0300
0600
0C00
1800
3800
7000
FFE0
FFC0
ENDCHAR
STARTCHAR bracketleft
ENCODING 91
SWIDTH 325 0
DWIDTH 7 0
BBX 8 18 1 -4
BITMAP
0F
0F
18
18
18
18
30
30
30
30
20
60
60
60
40
40
F0
F0
ENDCHAR
STARTCHAR backslash
ENCODING 92
SWIDTH 482 0
DWIDTH 10 0
BBX 6 18 3 -4
BITMAP
C0
C0
40
40
60
60
20
20
30
30
10
10
18
18
08
08
0C
0C
ENDCHAR
STARTCHAR bracketright
ENCODING 93
SWIDTH 325 0
DWIDTH 7 0
BBX 8 18 0 -4
BITMAP
0F
0F
02
02
06
06
06
04
0C
0C
0C
0C
18
18
18
18
F0
F0
ENDCHAR
STARTCHAR asciicircum
ENCODING 94
SWIDTH 633 0
DWIDTH 13 0
BBX 12 12 1 2
BITMAP
0080
0180
0380
0380
06C0
0EC0
0C40
1860
3860
7020
6020
C030
ENDCHAR
STARTCHAR underscore
ENCODING 95
SWIDTH 500 0
DWIDTH 10 0
BBX 8 2 1 -2
BITMAP
FF
FF
ENDCHAR
STARTCHAR grave
ENCODING 96
SWIDTH 572 0
DWIDTH 11 0
BBX 4 3 6 11
BITMAP
E0
60
30
ENDCHAR
STARTCHAR a
ENCODING 97
SWIDTH 608 0
DWIDTH 12 0
BBX 11 11 2 0
BITMAP
07E0
1FE0
3860
30C0
60C0
61C0
C3C0
C7C0
CF80
FD80
7180
ENDCHAR
STARTCHAR b
ENCODING 98
SWIDTH 608 0
DWIDTH 12 0
BBX 11 14 2 0
BITMAP
1800
1800
1000
31C0
37E0
3E60
3C60
7860
70C0
60C0
6180
4380
FF00
FC00
ENDCHAR
STARTCHAR c
ENCODING 99
SWIDTH 503 0
DWIDTH 10 0
BBX 9 11 2 0
BITMAP
0F80
1F80
3800
6000
6000
C000
C000
C000
C100
7E00
3C00
ENDCHAR
STARTCHAR d
ENCODING 100
SWIDTH 608 0
DWIDTH 12 0
BBX 12 14 2 0
BITMAP
0030
0030
0060
07E0
0FE0
1860
30E0
60C0
61C0
C3C0
C7C0
CF80
FD80
7180
ENDCHAR
STARTCHAR e
ENCODING 101
SWIDTH 529 0
DWIDTH 11 0
BBX 9 11 2 0
BITMAP
0F00
1F80
3180
6100
4300
FC00
F000
C080
C300
7F00
3C00
ENDCHAR
STARTCHAR f
ENCODING 102
SWIDTH 383 0
DWIDTH 8 0
BBX 10 20 1 -4
BITMAP
03C0
07C0
0C00
1800
1800
7F00
7F00
1000
3000
3000
3000
3000
2000
6000
6000
6000
6000
4000
C000
C000
ENDCHAR
STARTCHAR g
ENCODING 103
SWIDTH 608 0
DWIDTH 12 0
BBX 11 15 1 -4
BITMAP
07E0
0FE0
1C60
3840
30C0
60C0
61C0
62C0
6680
7D80
3980
0180
8300
FE00
7C00
ENDCHAR
STARTCHAR h
ENCODING 104
SWIDTH 620 0
DWIDTH 12 0
BBX 10 14 2 0
BITMAP
1800
1800
3000
3380
37C0
3EC0
3CC0
78C0
7080
7180
6180
4180
C180
C380
ENDCHAR
STARTCHAR i
ENCODING 105
SWIDTH 289 0
DWIDTH 6 0
BBX 5 14 2 0
BITMAP
18
18
00
30
30
30
60
60
60
60
60
C0
C0
C0
ENDCHAR
STARTCHAR j
ENCODING 106
SWIDTH 325 0
DWIDTH 7 0
BBX 10 18 -1 -4
BITMAP
00C0
00C0
0000
0180
0180
0180
0180
0300
0300
0300
0300
0700
0600
0600
0600
0C00
F800
F000
ENDCHAR
STARTCHAR k
ENCODING 107
SWIDTH 572 0
DWIDTH 12 0
BBX 10 14 2 0
BITMAP
1800
1800
3000
31C0
3380
3700
2E00
6C00
7800
6C00
6600
4600
C300
C380
ENDCHAR
STARTCHAR l
ENCODING 108
SWIDTH 289 0
DWIDTH 6 0
BBX 5 14 2 0
BITMAP
18
18
10
30
30
30
30
60
60
60
60
40
C0
C0
ENDCHAR
STARTCHAR m
ENCODING 109
SWIDTH 934 0
DWIDTH 19 0
BBX 17 11 2 0
BITMAP
31C700
37CF80
3EDD80
7CF980
78F180
70E300
70C300
61C300
E18300
C18300
C18600
ENDCHAR
STARTCHAR n
ENCODING 110
SWIDTH 620 0
DWIDTH 12 0
BBX 10 11 2 0
BITMAP
3380
37C0
2EC0
7CC0
78C0
7080
7180
6180
C180
C180
C380
ENDCHAR
STARTCHAR o
ENCODING 111
SWIDTH 566 0
DWIDTH 11 0
BBX 10 11 2 0
BITMAP
0F00
1F80
31C0
60C0
60C0
C0C0
C180
C180
C300
7E00
3C00
ENDCHAR
STARTCHAR p
ENCODING 112
SWIDTH 608 0
DWIDTH 12 0
BBX 11 15 1 -4
BITMAP
19C0
37E0
3E60
3C60
3860
38C0
30C0
6180
6380
7F00
7C00
6000
C000
C000
C000
ENDCHAR
STARTCHAR q
ENCODING 113
SWIDTH 608 0
DWIDTH 12 0
BBX 11 15 2 -4
BITMAP
07E0
1FE0
3860
30C0
60C0
61C0
C3C0
C7C0
CF80
FD80
7180
0180
0180
0300
0300
ENDCHAR
STARTCHAR r
ENCODING 114
SWIDTH 478 0
DWIDTH 10 0
BBX 9 11 2 0
BITMAP
3180
3780
3E00
6C00
7800
7000
6000
6000
C000
C000
C000
ENDCHAR
STARTCHAR s
ENCODING 115
SWIDTH 489 0
DWIDTH 10 0
BBX 8 11 2 0
BITMAP
1E
3F
31
30
38
1C
0E
06
86
FE
7C
ENDCHAR
STARTCHAR t
ENCODING 116
SWIDTH 383 0
DWIDTH 8 0
BBX 6 13 3 0
BITMAP
30
30
FC
FC
60
60
60
60
60
40
C0
F0
70
ENDCHAR
STARTCHAR u
ENCODING 117
SWIDTH 620 0
DWIDTH 12 0
BBX 10 11 2 0
BITMAP
70C0
60C0
60C0
6180
6380
C380
C780
CF80
DD00
FB00
7300
ENDCHAR
STARTCHAR v
ENCODING 118
SWIDTH 545 0
DWIDTH 11 0
BBX 10 11 3 0
BITMAP
C0C0
C180
C100
C300
4600
4600
6C00
6800
7800
7000
7000
ENDCHAR
STARTCHAR w
ENCODING 119
SWIDTH 795 0
DWIDTH 16 0
BBX 15 11 2 0
BITMAP
C386
C38C
C78C
C798
CD98
CDB0
59B0
59E0
71E0
71C0
61C0
ENDCHAR
STARTCHAR x
ENCODING 120
SWIDTH 541 0
DWIDTH 11 0
BBX 12 11 0 0
BITMAP
1830
1860
0CC0
0D80
0700
0600
0F00
1B00
3180
6180
C0C0
ENDCHAR
STARTCHAR y
ENCODING 121
SWIDTH 548 0
DWIDTH 11 0
BBX 11 15 2 -4
BITMAP
6060
60C0
61C0
6180
6380
3300
3600
3E00
3C00
3800
3800
3000
3000
6000
C000
ENDCHAR
STARTCHAR z
ENCODING 122
SWIDTH 536 0
DWIDTH 11 0
BBX 10 11 1 0
BITMAP
3FC0
3FC0
0180
0300
0600
0C00
1800
3000
6000
FF80
FF80
ENDCHAR
STARTCHAR braceleft
ENCODING 123
SWIDTH 325 0
DWIDTH 7 0
BBX 7 18 2 -4
BITMAP
0E
1E
18
18
18
18
30
30
E0
C0
60
20
60
60
C0
C0
F0
60
ENDCHAR
STARTCHAR bar
ENCODING 124
SWIDTH 233 0
DWIDTH 5 0
BBX 5 18 1 -4
BITMAP
18
18
18
10
10
30
30
30
20
20
60
60
60
40
40
C0
C0
C0
ENDCHAR
STARTCHAR braceright
ENCODING 125
SWIDTH 325 0
DWIDTH 7 0
BBX 7 18 0 -4
BITMAP
08
1E
06
04
0C
0C
08
0C
06
0E
18
30
30
30
30
30
F0
E0
ENDCHAR
STARTCHAR asciitilde
ENCODING 126
SWIDTH 633 0
DWIDTH 13 0
BBX 12 4 1 4
BITMAP
3810
7E30
C7E0
81C0
ENDCHAR
STARTCHAR space
ENCODING 160
SWIDTH 316 0
DWIDTH 6 0
BBX 1 1 0 0
BITMAP
00
ENDCHAR
STARTCHAR exclamdown
ENCODING 161
SWIDTH 193 0
DWIDTH 6 0
BBX 5 15 1 -4
BITMAP
18
18
00
00
30
30
30
20
60
60
60
60
C0
C0
C0
ENDCHAR
STARTCHAR cent
ENCODING 162
SWIDTH 633 0
DWIDTH 13 0
BBX 9 14 3 0
BITMAP
0200
0600
1F80
3F80
7400
6400
C400
C400
C800
C800
7F00
3E00
0800
1000
ENDCHAR
STARTCHAR sterling
ENCODING 163
SWIDTH 633 0
DWIDTH 13 0
BBX 11 14 3 0
BITMAP
03E0
07E0
0E20
0C00
0C00
0C00
3E00
7E00
1800
1800
1000
2000
FF00
FF00
ENDCHAR
STARTCHAR currency
ENCODING 164
SWIDTH 633 0
DWIDTH 13 0
BBX 14 12 1 1
BITMAP
3008
3BBC
1FF0
0C60
1820
1020
1020
1060
18C0
3FE0
6770
8020
ENDCHAR
STARTCHAR yen
ENCODING 165
SWIDTH 633 0
DWIDTH 13 0
BBX 12 14 3 0
BITMAP
E030
60C0
3180
3B00
1E00
1C00
7F80
FF00
1800
FF00
FF00
1800
1800
3000
ENDCHAR
STARTCHAR brokenbar
ENCODING 166
SWIDTH 233 0
DWIDTH 5 0
BBX 5 18 1 -4
BITMAP
18
18
10
10
10
30
30
00
00
00
00
60
60
40
40
C0
C0
C0
ENDCHAR
STARTCHAR section
ENCODING 167
SWIDTH 633 0
DWIDTH 13 0
BBX 11 18 2 -4
BITMAP
07E0
1FE0
1840
3000
1000
1C00
3F00
3380
60C0
70C0
3D80
1F80
0700
0180
0180
8380
FF00
3C00
ENDCHAR
STARTCHAR dieresis
ENCODING 168
SWIDTH 566 0
DWIDTH 11 0
BBX 6 2 6 12
BITMAP
CC
CC
ENDCHAR
STARTCHAR copyright
ENCODING 169
SWIDTH 858 0
DWIDTH 17 0
BBX 15 14 3 0
BITMAP
0FC0
1FF0
3038
63CC
C7E4
8C24
9806
9806
98C4
CF84
678C
3038
1FF0
0FC0
ENDCHAR
STARTCHAR ordfeminine
ENCODING 170
SWIDTH 392 0
DWIDTH 8 0
BBX 8 7 3 7
BITMAP
18
7F
62
C6
DE
F6
EC
ENDCHAR
STARTCHAR guillemotleft
ENCODING 171
SWIDTH 527 0
DWIDTH 11 0
BBX 10 10 2 0
BITMAP
08C0
1DC0
3B80
7700
EE00
CE00
6600
2700
3300
1100
ENDCHAR
STARTCHAR logicalnot
ENCODING 172
SWIDTH 633 0
DWIDTH 13 0
BBX 12 6 2 3
BITMAP
FFF0
FFF0
0030
0020
0020
0020
ENDCHAR
STARTCHAR hyphen
ENCODING 173
SWIDTH 313 0
DWIDTH 6 0
BBX 5 2 2 6
BITMAP
F8
F8
ENDCHAR
STARTCHAR registered
ENCODING 174
SWIDTH 633 0
DWIDTH 13 0
BBX 7 8 5 6
BITMAP
3C
7E
DE
9A
B2
EE
7E
3C
ENDCHAR
STARTCHAR macron
ENCODING 175
SWIDTH 566 0
DWIDTH 11 0
BBX 6 2 6 12
BITMAP
FC
FC
ENDCHAR
STARTCHAR degree
ENCODING 176
SWIDTH 269 0
DWIDTH 5 0
BBX 3 3 4 11
BITMAP
E0
A0
E0
ENDCHAR
STARTCHAR plusminus
ENCODING 177
SWIDTH 633 0
DWIDTH 13 0
BBX 13 12 1 0
BITMAP
0180
0100
0100
7FF8
7FF8
0300
0200
0200
0200
0000
FFF0
FFF0
ENDCHAR
STARTCHAR twosuperior
ENCODING 178
SWIDTH 392 0
DWIDTH 8 0
BBX 7 9 -10 5
BITMAP
3C
26
02
06
0C
10
60
40
FC
ENDCHAR
STARTCHAR threesuperior
ENCODING 179
SWIDTH 392 0
DWIDTH 8 0
BBX 6 9 -10 5
BITMAP
38
04
04
08
38
08
08
08
F0
ENDCHAR
STARTCHAR acute
ENCODING 180
SWIDTH 566 0
DWIDTH 11 0
BBX 5 3 7 11
BITMAP
38
60
C0
ENDCHAR
STARTCHAR mu
ENCODING 181
SWIDTH 627 0
DWIDTH 13 0
BBX 11 15 2 -4
BITMAP
3860
3060
3060
30C0
30C0
21C0
61C0
62C0
6680
7D80
7980
4000
C000
C000
C000
ENDCHAR
STARTCHAR paragraph
ENCODING 182
SWIDTH 633 0
DWIDTH 13 0
BBX 9 18 3 -4
BITMAP
7F80
FF80
FD80
FD00
FD00
7900
7900
1B00
1A00
1A00
1200
1200
1600
3400
3400
2400
2400
2C00
ENDCHAR
STARTCHAR periodcentered
ENCODING 183
SWIDTH 316 0
DWIDTH 13 0
BBX 3 2 6 6
BITMAP
E0
E0
ENDCHAR
STARTCHAR cedilla
ENCODING 184
SWIDTH 566 0
DWIDTH 11 0
BBX 3 5 4 -4
BITMAP
60
40
20
60
C0
ENDCHAR
STARTCHAR onesuperior
ENCODING 185
SWIDTH 392 0
DWIDTH 8 0
BBX 3 9 -12 5
BITMAP
E0
20
40
40
40
40
40
80
80
ENDCHAR
STARTCHAR ordmasculine
ENCODING 186
SWIDTH 392 0
DWIDTH 8 0
BBX 8 7 2 7
BITMAP
1E
3F
63
C3
C6
FC
78
ENDCHAR
STARTCHAR guillemotright
ENCODING 187
SWIDTH 527 0
DWIDTH 11 0
BBX 10 10 1 0
BITMAP
6200
3300
3B80
1980
1DC0
1DC0
3B80
7700
EE00
C400
ENDCHAR
STARTCHAR onequarter
ENCODING 188
SWIDTH 865 0
DWIDTH 17 0
BBX 15 14 7 0
BITMAP
E006
200C
4018
4030
4060
40CC
418C
8318
8628
0C48
18C8
30FC
6008
C010
ENDCHAR
STARTCHAR onehalf
ENCODING 189
SWIDTH 865 0
DWIDTH 17 0
BBX 15 14 7 0
BITMAP
E006
200C
4018
4030
4060
40FC
41A6
8302
8606
0C0C
1810
3060
6040
C0FC
ENDCHAR
STARTCHAR threequarters
ENCODING 190
SWIDTH 865 0
DWIDTH 17 0
BBX 17 14 9 0
BITMAP
380180
040300
040600
080C00
381800
083300
086300
08C600
F18A00
031200
063200
0C3F00
180200
300400
ENDCHAR
STARTCHAR questiondown
ENCODING 191
SWIDTH 464 0
DWIDTH 9 0
BBX 8 15 1 -4
BITMAP
03
03
00
00
06
06
0C
18
30
60
C0
C0
E1
FE
7E
ENDCHAR
STARTCHAR Agrave
ENCODING 192
SWIDTH 687 0
DWIDTH 14 0
BBX 13 18 0 0
BITMAP
01C0
00C0
0060
0000
00C0
01E0
01E0
0360
0360
0660
0C70
0C30
1830
1FF0
3FF0
6038
6018
C018
ENDCHAR
STARTCHAR Aacute
ENCODING 193
SWIDTH 687 0
DWIDTH 14 0
BBX 13 18 0 0
BITMAP
0038
0060
00C0
0000
00C0
01E0
01E0
0360
0360
0660
0C70
0C30
1830
1FF0
3FF0
6038
6018
C018
ENDCHAR
STARTCHAR Acircumflex
ENCODING 194
SWIDTH 687 0
DWIDTH 14 0
BBX 13 18 0 0
BITMAP
00E0
01A0
0330
0000
00C0
01E0
01E0
0360
0360
0660
0C70
0C30
1830
1FF0
3FF0
6038
6018
C018
ENDCHAR
STARTCHAR Atilde
ENCODING 195
SWIDTH 687 0
DWIDTH 14 0
BBX 13 17 0 0
BITMAP
01D0
02E0
0000
00C0
01E0
01E0
0360
0360
0660
0C70
0C30
1830
1FF0
3FF0
6038
6018
C018
ENDCHAR
STARTCHAR Adieresis
ENCODING 196
SWIDTH 687 0
DWIDTH 14 0
BBX 13 17 0 0
BITMAP
0330
0330
0000
00C0
01E0
01E0
0360
0360
0660
0C70
0C30
1830
1FF0
3FF0
6038
6018
C018
ENDCHAR
STARTCHAR Aring
ENCODING 197
SWIDTH 687 0
DWIDTH 14 0
BBX 13 18 0 0
BITMAP
00E0
00A0
00E0
0000
00C0
01E0
01E0
0360
0360
0660
0C70
0C30
1830
1FF0
3FF0
6038
6018
C018
ENDCHAR
STARTCHAR AE
ENCODING 198
SWIDTH 893 0
DWIDTH 18 0
BBX 20 14 0 0
BITMAP
001FF0
003FF0
007800
00F800
01D800
019FC0
033F80
063000
0FF000
1FF000
183000
306000
607FC0
E07FC0
ENDCHAR
STARTCHAR Ccedilla
ENCODING 199
SWIDTH 679 0
DWIDTH 14 0
BBX 13 18 2 -4
BITMAP
03F0
0FF8
1C08
3800
7000
6000
E000
C000
C000
C000
C000
6020
7FE0
1F00
0800
0400
0C00
1800
ENDCHAR
STARTCHAR Egrave
ENCODING 200
SWIDTH 547 0
DWIDTH 11 0
BBX 11 18 2 0
BITMAP
0E00
0600
0300
0000
1FE0
1FE0
3800
3000
3000
3000
3F80
7F00
6000
6000
6000
6000
FF80
FF80
ENDCHAR
STARTCHAR Eacute
ENCODING 201
SWIDTH 547 0
DWIDTH 11 0
BBX 11 18 2 0
BITMAP
01C0
0300
0600
0000
1FE0
1FE0
3800
3000
3000
3000
3F80
7F00
6000
6000
6000
6000
FF80
FF80
ENDCHAR
STARTCHAR Ecircumflex
ENCODING 202
SWIDTH 547 0
DWIDTH 11 0
BBX 11 18 2 0
BITMAP
0700
0D00
1980
0000
1FE0
1FE0
3800
3000
3000
3000
3F80
7F00
6000
6000
6000
6000
FF80
FF80
ENDCHAR
STARTCHAR Edieresis
ENCODING 203
SWIDTH 547 0
DWIDTH 11 0
BBX 11 17 2 0
BITMAP
0CC0
0CC0
0000
1FE0
1FE0
3800
3000
3000
3000
3F80
7F00
6000
6000
6000
6000
FF80
FF80
ENDCHAR
STARTCHAR Igrave
ENCODING 204
SWIDTH 289 0
DWIDTH 6 0
BBX 6 18 2 0
BITMAP
38
18
0C
00
18
18
30
30
30
30
30
60
60
60
60
60
C0
C0
ENDCHAR
STARTCHAR Iacute
ENCODING 205
SWIDTH 289 0
DWIDTH 6 0
BBX 7 18 2 0
BITMAP
0E
18
30
00
18
18
30
30
30
30
30
60
60
60
60
60
C0
C0
ENDCHAR
STARTCHAR Icircumflex
ENCODING 206
SWIDTH 289 0
DWIDTH 6 0
BBX 7 18 2 0
BITMAP
1C
34
66
00
18
18
30
30
30
30
30
60
60
60
60
60
C0
C0
ENDCHAR
STARTCHAR Idieresis
ENCODING 207
SWIDTH 289 0
DWIDTH 6 0
BBX 7 17 2 0
BITMAP
66
66
00
18
18
30
30
30
30
30
60
60
60
60
60
C0
C0
ENDCHAR
STARTCHAR Eth
ENCODING 208
SWIDTH 743 0
DWIDTH 15 0
BBX 15 14 1 0
BITMAP
0FF8
1FFC
181E
180E
1806
1806
FF06
FF0E
300C
301C
3038
6070
7FE0
7F80
ENDCHAR
STARTCHAR Ntilde
ENCODING 209
SWIDTH 741 0
DWIDTH 15 0
BBX 14 17 2 0
BITMAP
01D0
02E0
0000
180C
1C0C
3C08
3C08
3618
3618
2318
6310
61B0
61B0
40F0
40F0
C0E0
C060
ENDCHAR
STARTCHAR Ograve
ENCODING 210
SWIDTH 777 0
DWIDTH 16 0
BBX 14 18 2 0
BITMAP
0380
0180
00C0
0000
03E0
0FF8
1C3C
381C
700C
600C
E00C
C00C
C018
C038
E070
70E0
7FC0
1F00
ENDCHAR
STARTCHAR Oacute
ENCODING 211
SWIDTH 777 0
DWIDTH 16 0
BBX 14 18 2 0
BITMAP
0070
00C0
0180
0000
03E0
0FF8
1C3C
381C
700C
600C
E00C
C00C
C018
C038
E070
70E0
7FC0
1F00
ENDCHAR
STARTCHAR Ocircumflex
ENCODING 212
SWIDTH 777 0
DWIDTH 16 0
BBX 14 18 2 0
BITMAP
01C0
0340
0660
0000
03E0
0FF8
1C3C
381C
700C
600C
E00C
C00C
C018
C038
E070
70E0
7FC0
1F00
ENDCHAR
STARTCHAR Otilde
ENCODING 213
SWIDTH 777 0
DWIDTH 16 0
BBX 14 17 2 0
BITMAP
01D0
02E0
0000
03E0
0FF8
1C3C
381C
700C
600C
E00C
C00C
C018
C038
E070
70E0
7FC0
1F00
ENDCHAR
STARTCHAR Odieresis
ENCODING 214
SWIDTH 777 0
DWIDTH 16 0
BBX 14 17 2 0
BITMAP
0330
0330
0000
03E0
0FF8
1C3C
381C
700C
600C
E00C
C00C
C018
C038
E070
70E0
7FC0
1F00
ENDCHAR
STARTCHAR multiply
ENCODING 215
SWIDTH 633 0
DWIDTH 13 0
BBX 13 12 1 0
BITMAP
2008
3038
1870
0CC0
0580
0700
0700
0F80
19C0
70C0
E060
8060
ENDCHAR
STARTCHAR Oslash
ENCODING 216
SWIDTH 777 0
DWIDTH 16 0
BBX 17 14 3 0
BITMAP
01F380
07FE00
0E1E00
1C1E00
383600
306600
70C600
618600
630C00
661C00
7C3800
387000
3FE000
EF8000
ENDCHAR
STARTCHAR Ugrave
ENCODING 217
SWIDTH 693 0
DWIDTH 14 0
BBX 12 18 3 0
BITMAP
0700
0300
0180
0000
3030
3030
7030
6060
6060
6060
6060
C060
C0C0
C0C0
C0C0
E180
FF80
7E00
ENDCHAR
STARTCHAR Uacute
ENCODING 218
SWIDTH 693 0
DWIDTH 14 0
BBX 12 18 3 0
BITMAP
00E0
0180
0300
0000
3030
3030
7030
6060
6060
6060
6060
C060
C0C0
C0C0
C0C0
E180
FF80
7E00
ENDCHAR
STARTCHAR Ucircumflex
ENCODING 219
SWIDTH 693 0
DWIDTH 14 0
BBX 12 18 3 0
BITMAP
0380
0680
0CC0
0000
3030
3030
7030
6060
6060
6060
6060
C060
C0C0
C0C0
C0C0
E180
FF80
7E00
ENDCHAR
STARTCHAR Udieresis
ENCODING 220
SWIDTH 693 0
DWIDTH 14 0
BBX 12 17 3 0
BITMAP
0CC0
0CC0
0000
3030
3030
7030
6060
6060
6060
6060
C060
C0C0
C0C0
C0C0
E180
FF80
7E00
ENDCHAR
STARTCHAR Yacute
ENCODING 221
SWIDTH 608 0
DWIDTH 12 0
BBX 12 18 3 0
BITMAP
01C0
0300
0600
0000
C070
60E0
60C0
3180
3300
3F00
1E00
1C00
1800
1800
1800
1800
3000
3000
ENDCHAR
STARTCHAR Thorn
ENCODING 222
SWIDTH 575 0
DWIDTH 12 0
BBX 10 14 2 0
BITMAP
1800
3000
3000
3F80
3FC0
30C0
60C0
61C0
6380
7F00
7C00
C000
C000
C000
ENDCHAR
STARTCHAR germandbls
ENCODING 223
SWIDTH 595 0
DWIDTH 12 0
BBX 11 20 1 -4
BITMAP
07C0
0FC0
0CE0
18C0
18C0
1980
1B00
3600
3300
3380
30C0
3060
6060
6060
67C0
6780
6000
C000
C000
C000
ENDCHAR
STARTCHAR agrave
ENCODING 224
SWIDTH 608 0
DWIDTH 12 0
BBX 11 15 2 0
BITMAP
0700
0300
0180
0000
07E0
1FE0
3860
30C0
60C0
61C0
C3C0
C7C0
CF80
FD80
7180
ENDCHAR
STARTCHAR aacute
ENCODING 225
SWIDTH 608 0
DWIDTH 12 0
BBX 11 15 2 0
BITMAP
00E0
0180
0300
0000
07E0
1FE0
3860
30C0
60C0
61C0
C3C0
C7C0
CF80
FD80
7180
ENDCHAR
STARTCHAR acircumflex
ENCODING 226
SWIDTH 608 0
DWIDTH 12 0
BBX 11 15 2 0
BITMAP
0380
0680
0CC0
0000
07E0
1FE0
3860
30C0
60C0
61C0
C3C0
C7C0
CF80
FD80
7180
ENDCHAR
STARTCHAR atilde
ENCODING 227
SWIDTH 608 0
DWIDTH 12 0
BBX 11 14 2 0
BITMAP
03A0
05C0
0000
07E0
1FE0
3860
30C0
60C0
61C0
C3C0
C7C0
CF80
FD80
7180
ENDCHAR
STARTCHAR adieresis
ENCODING 228
SWIDTH 608 0
DWIDTH 12 0
BBX 11 14 2 0
BITMAP
0660
0660
0000
07E0
1FE0
3860
30C0
60C0
61C0
C3C0
C7C0
CF80
FD80
7180
ENDCHAR
STARTCHAR aring
ENCODING 229
SWIDTH 608 0
DWIDTH 12 0
BBX 11 15 2 0
BITMAP
0380
0280
0380
0000
07E0
1FE0
3860
30C0
60C0
61C0
C3C0
C7C0
CF80
FD80
7180
ENDCHAR
STARTCHAR ae
ENCODING 230
SWIDTH 893 0
DWIDTH 18 0
BBX 16 11 2 0
BITMAP
07FE
1FFF
38F3
30C3
61C6
63FC
C3E0
C781
CEC3
FCFE
7878
ENDCHAR
STARTCHAR ccedilla
ENCODING 231
SWIDTH 503 0
DWIDTH 10 0
BBX 9 15 2 -4
BITMAP
0F80
1F80
3800
6000
6000
C000
C000
C000
C100
7E00
3C00
1000
0800
1800
3000
ENDCHAR
STARTCHAR egrave
ENCODING 232
SWIDTH 529 0
DWIDTH 11 0
BBX 9 15 2 0
BITMAP
0E00
0600
0300
0000
0F00
1F80
3180
6100
4300
FC00
F000
C080
C300
7F00
3C00
ENDCHAR
STARTCHAR eacute
ENCODING 233
SWIDTH 529 0
DWIDTH 11 0
BBX 10 15 2 0
BITMAP
01C0
0300
0600
0000
0F00
1F80
3180
6100
4300
FC00
F000
C080
C300
7F00
3C00
ENDCHAR
STARTCHAR ecircumflex
ENCODING 234
SWIDTH 529 0
DWIDTH 11 0
BBX 9 15 2 0
BITMAP
0700
0D00
1980
0000
0F00
1F80
3180
6100
4300
FC00
F000
C080
C300
7F00
3C00
ENDCHAR
STARTCHAR edieresis
ENCODING 235
SWIDTH 529 0
DWIDTH 11 0
BBX 9 14 2 0
BITMAP
1980
1980
0000
0F00
1F80
3180
6100
4300
FC00
F000
C080
C300
7F00
3C00
ENDCHAR
STARTCHAR igrave
ENCODING 236
SWIDTH 289 0
DWIDTH 6 0
BBX 6 15 2 0
BITMAP
38
18
0C
00
30
30
30
60
60
60
60
60
C0
C0
C0
ENDCHAR
STARTCHAR iacute
ENCODING 237
SWIDTH 289 0
DWIDTH 6 0
BBX 7 15 2 0
BITMAP
0E
18
30
00
30
30
30
60
60
60
60
60
C0
C0
C0
ENDCHAR
STARTCHAR icircumflex
ENCODING 238
SWIDTH 289 0
DWIDTH 6 0
BBX 7 15 2 0
BITMAP
1C
34
66
00
30
30
30
60
60
60
60
60
C0
C0
C0
ENDCHAR
STARTCHAR idieresis
ENCODING 239
SWIDTH 289 0
DWIDTH 6 0
BBX 7 14 2 0
BITMAP
66
66
00
30
30
30
60
60
60
60
60
C0
C0
C0
ENDCHAR
STARTCHAR eth
ENCODING 240
SWIDTH 556 0
DWIDTH 11 0
BBX 10 14 2 0
BITMAP
3F80
3F00
1F00
0F80
1F80
31C0
60C0
60C0
C080
C180
C180
E300
7E00
3C00
ENDCHAR
STARTCHAR ntilde
ENCODING 241
SWIDTH 620 0
DWIDTH 12 0
BBX 10 14 2 0
BITMAP
0740
0B80
0000
3380
37C0
2EC0
7CC0
78C0
7080
7180
6180
C180
C180
C380
ENDCHAR
STARTCHAR ograve
ENCODING 242
SWIDTH 566 0
DWIDTH 11 0
BBX 10 15 2 0
BITMAP
0700
0300
0180
0000
0F00
1F80
31C0
60C0
60C0
C0C0
C180
C180
C300
7E00
3C00
ENDCHAR
STARTCHAR oacute
ENCODING 243
SWIDTH 566 0
DWIDTH 11 0
BBX 10 15 2 0
BITMAP
01C0
0300
0600
0000
0F00
1F80
31C0
60C0
60C0
C0C0
C180
C180
C300
7E00
3C00
ENDCHAR
STARTCHAR ocircumflex
ENCODING 244
SWIDTH 566 0
DWIDTH 11 0
BBX 10 15 2 0
BITMAP
0380
0680
0CC0
0000
0F00
1F80
31C0
60C0
60C0
C0C0
C180
C180
C300
7E00
3C00
ENDCHAR
STARTCHAR otilde
ENCODING 245
SWIDTH 566 0
DWIDTH 11 0
BBX 10 14 2 0
BITMAP
0740
0B80
0000
0F00
1F80
31C0
60C0
60C0
C0C0
C180
C180
C300
7E00
3C00
ENDCHAR
STARTCHAR odieresis
ENCODING 246
SWIDTH 566 0
DWIDTH 11 0
BBX 10 14 2 0
BITMAP
0CC0
0CC0
0000
0F00
1F80
31C0
60C0
60C0
C0C0
C180
C180
C300
7E00
3C00
ENDCHAR
STARTCHAR divide
ENCODING 247
SWIDTH 633 0
DWIDTH 13 0
BBX 12 11 1 0
BITMAP
0300
0700
0000
0000
0000
FFF0
FFF0
0000
0000
0E00
0C00
ENDCHAR
STARTCHAR oslash
ENCODING 248
SWIDTH 566 0
DWIDTH 11 0
BBX 12 11 3 0
BITMAP
07B0
0FE0
18E0
31E0
3360
6660
6CC0
78C0
7180
7F00
DE00
ENDCHAR
STARTCHAR ugrave
ENCODING 249
SWIDTH 620 0
DWIDTH 12 0
BBX 10 15 2 0
BITMAP
0700
0300
0180
0000
70C0
60C0
60C0
6180
6380
C380
C780
CF80
DD00
FB00
7300
ENDCHAR
STARTCHAR uacute
ENCODING 250
SWIDTH 620 0
DWIDTH 12 0
BBX 10 15 2 0
BITMAP
01C0
0300
0600
0000
70C0
60C0
60C0
6180
6380
C380
C780
CF80
DD00
FB00
7300
ENDCHAR
STARTCHAR ucircumflex
ENCODING 251
SWIDTH 620 0
DWIDTH 12 0
BBX 10 15 2 0
BITMAP
0380
0680
0CC0
0000
70C0
60C0
60C0
6180
6380
C380
C780
CF80
DD00
FB00
7300
ENDCHAR
STARTCHAR udieresis
ENCODING 252
SWIDTH 620 0
DWIDTH 12 0
BBX 10 14 2 0
BITMAP
0CC0
0CC0
0000
70C0
60C0
60C0
6180
6380
C380
C780
CF80
DD00
FB00
7300
ENDCHAR
STARTCHAR yacute
ENCODING 253
SWIDTH 548 0
DWIDTH 11 0
BBX 11 19 2 -4
BITMAP
01C0
0300
0600
0000
6060
60C0
61C0
6180
6380
3300
3600
3E00
3C00
3800
3800
3000
3000
6000
C000
ENDCHAR
STARTCHAR thorn
ENCODING 254
SWIDTH 608 0
DWIDTH 12 0
BBX 11 18 1 -4
BITMAP
1800
1800
1800
19C0
37E0
3E60
3C60
3860
38C0
30C0
6180
6380
7F00
7C00
6000
C000
C000
C000
ENDCHAR
STARTCHAR ydieresis
ENCODING 255
SWIDTH 548 0
DWIDTH 11 0
BBX 11 18 2 -4
BITMAP
0CC0
0CC0
0000
6060
60C0
61C0
6180
6380
3300
3600
3E00
3C00
3800
3800
3000
3000
6000
C000
ENDCHAR
STARTCHAR Amacron
ENCODING 256
SWIDTH 687 0
DWIDTH 14 0
BBX 13 17 0 0
BITMAP
07E0
07E0
0000
00C0
01E0
01E0
0360
0360
0660
0C70
0C30
1830
1FF0
3FF0
6038
6018
C018
ENDCHAR
STARTCHAR amacron
ENCODING 257
SWIDTH 608 0
DWIDTH 12 0
BBX 11 14 2 0
BITMAP
0FC0
0FC0
0000
07E0
1FE0
3860
30C0
60C0
61C0
C3C0
C7C0
CF80
FD80
7180
ENDCHAR
STARTCHAR Abreve
ENCODING 258
SWIDTH 687 0
DWIDTH 14 0
BBX 13 18 0 0
BITMAP
0420
0640
0380
0000
00C0
01E0
01E0
0360
0360
0660
0C70
0C30
1830
1FF0
3FF0
6038
6018
C018
ENDCHAR
STARTCHAR abreve
ENCODING 259
SWIDTH 608 0
DWIDTH 12 0
BBX 11 15 2 0
BITMAP
0840
0C80
0700
0000
07E0
1FE0
3860
30C0
60C0
61C0
C3C0
C7C0
CF80
FD80
7180
ENDCHAR
STARTCHAR Aogonek
ENCODING 260
SWIDTH 687 0
DWIDTH 14 0
BBX 13 18 0 -4
BITMAP
00C0
01E0
01E0
0360
0360
0660
0C70
0C30
1830
1FF0
3FF0
6038
6018
C018
0000
0300
0400
0700
ENDCHAR
STARTCHAR aogonek
ENCODING 261
SWIDTH 608 0
DWIDTH 12 0
BBX 11 15 2 -4
BITMAP
07E0
1FE0
3860
30C0
60C0
61C0
C3C0
C7C0
CF80
FD80
7180
0000
0C00
1000
1C00
ENDCHAR
STARTCHAR Cacute
ENCODING 262
SWIDTH 679 0
DWIDTH 14 0
BBX 13 18 2 0
BITMAP
00E0
0180
0300
0000
03F0
0FF8
1C08
3800
7000
6000
E000
C000
C000
C000
C000
6020
7FE0
1F00
ENDCHAR
STARTCHAR cacute
ENCODING 263
SWIDTH 503 0
DWIDTH 10 0
BBX 9 15 2 0
BITMAP
0380
0600
0C00
0000
0F80
1F80
3800
6000
6000
C000
C000
C000
C100
7E00
3C00
ENDCHAR
STARTCHAR Ccircumflex
ENCODING 264
SWIDTH 679 0
DWIDTH 14 0
BBX 13 18 2 0
BITMAP
0380
0680
0CC0
0000
03F0
0FF8
1C08
3800
7000
6000
E000
C000
C000
C000
C000
6020
7FE0
1F00
ENDCHAR
STARTCHAR ccircumflex
ENCODING 265
SWIDTH 503 0
DWIDTH 10 0
BBX 9 15 2 0
BITMAP
0E00
1A00
3300
0000
0F80
1F80
3800
6000
6000
C000
C000
C000
C100
7E00
3C00
ENDCHAR
STARTCHAR Cdotaccent
ENCODING 266
SWIDTH 679 0
DWIDTH 14 0
BBX 13 17 2 0
BITMAP
0300
0300
0000
03F0
0FF8
1C08
3800
7000
6000
E000
C000
C000
C000
C000
6020
7FE0
1F00
ENDCHAR
STARTCHAR cdotaccent
ENCODING 267
SWIDTH 503 0
DWIDTH 10 0
BBX 9 14 2 0
BITMAP
0C00
0C00
0000
0F80
1F80
3800
6000
6000
C000
C000
C000
C100
7E00
3C00
ENDCHAR
STARTCHAR Ccaron
ENCODING 268
SWIDTH 679 0
DWIDTH 14 0
BBX 13 18 2 0
BITMAP
0660
02C0
0380
0000
03F0
0FF8
1C08
3800
7000
6000
E000
C000
C000
C000
C000
6020
7FE0
1F00
ENDCHAR
STARTCHAR ccaron
ENCODING 269
SWIDTH 503 0
DWIDTH 10 0
BBX 9 15 2 0
BITMAP
1980
0B00
0E00
0000
0F80
1F80
3800
6000
6000
C000
C000
C000
C100
7E00
3C00
ENDCHAR
STARTCHAR Dcaron
ENCODING 270
SWIDTH 743 0
DWIDTH 15 0
BBX 14 18 2 0
BITMAP
0660
02C0
0380
0000
1FF0
1FF8
383C
301C
300C
300C
300C
601C
6018
6038
6030
40E0
FFC0
FF00
ENDCHAR
STARTCHAR dcaron
ENCODING 271
SWIDTH 795 0
DWIDTH 15 0
BBX 16 14 2 0
BITMAP
0037
0037
0066
07EE
0FE8
1860
30E0
60C0
61C0
C3C0
C7C0
CF80
FD80
7180
ENDCHAR
STARTCHAR Dcroat
ENCODING 272
SWIDTH 743 0
DWIDTH 15 0
BBX 15 14 1 0
BITMAP
0FF8
1FFC
181E
180E
1806
1806
FF06
FF0E
300C
301C
3038
6070
7FE0
7F80
ENDCHAR
STARTCHAR dcroat
ENCODING 273
SWIDTH 608 0
DWIDTH 12 0
BBX 12 14 2 0
BITMAP
0030
01F0
01F0
07E0
0FE0
1860
30E0
60C0
61C0
C3C0
C7C0
CF80
FD80
7180
ENDCHAR
STARTCHAR Emacron
ENCODING 274
SWIDTH 547 0
DWIDTH 11 0
BBX 11 17 2 0
BITMAP
1F80
1F80
0000
1FE0
1FE0
3800
3000
3000
3000
3F80
7F00
6000
6000
6000
6000
FF80
FF80
ENDCHAR
STARTCHAR emacron
ENCODING 275
SWIDTH 529 0
DWIDTH 11 0
BBX 9 14 2 0
BITMAP
3F00
3F00
0000
0F00
1F80
3180
6100
4300
FC00
F000
C080
C300
7F00
3C00
ENDCHAR
STARTCHAR Ebreve
ENCODING 276
SWIDTH 547 0
DWIDTH 11 0
BBX 11 18 2 0
BITMAP
1080
1900
0E00
0000
1FE0
1FE0
3800
3000
3000
3000
3F80
7F00
6000
6000
6000
6000
FF80
FF80
ENDCHAR
STARTCHAR ebreve
ENCODING 277
SWIDTH 529 0
DWIDTH 11 0
BBX 9 15 2 0
BITMAP
1080
1900
0E00
0000
0F00
1F80
3180
6100
4300
FC00
F000
C080
C300
7F00
3C00
ENDCHAR
STARTCHAR Edotaccent
ENCODING 278
SWIDTH 547 0
DWIDTH 11 0
BBX 11 17 2 0
BITMAP
0600
0600
0000
1FE0
1FE0
3800
3000
3000
3000
3F80
7F00
6000
6000
6000
6000
FF80
FF80
ENDCHAR
STARTCHAR edotaccent
ENCODING 279
SWIDTH 529 0
DWIDTH 11 0
BBX 9 14 2 0
BITMAP
0C00
0C00
0000
0F00
1F80
3180
6100
4300
FC00
F000
C080
C300
7F00
3C00
ENDCHAR
STARTCHAR Eogonek
ENCODING 280
SWIDTH 547 0
DWIDTH 11 0
BBX 11 18 2 -4
BITMAP
1FE0
1FE0
3800
3000
3000
3000
3F80
7F00
6000
6000
6000
6000
FF80
FF80
0000
0C00
1000
1C00
ENDCHAR
STARTCHAR eogonek
ENCODING 281
SWIDTH 529 0
DWIDTH 11 0
BBX 9 15 2 -4
BITMAP
0F00
1F80
3180
6100
4300
FC00
F000
C080
C300
7F00
3C00
0000
1800
2000
3800
ENDCHAR
STARTCHAR Ecaron
ENCODING 282
SWIDTH 547 0
DWIDTH 11 0
BBX 11 18 2 0
BITMAP
1980
0B00
0E00
0000
1FE0
1FE0
3800
3000
3000
3000
3F80
7F00
6000
6000
6000
6000
FF80
FF80
ENDCHAR
STARTCHAR ecaron
ENCODING 283
SWIDTH 529 0
DWIDTH 11 0
BBX 9 15 2 0
BITMAP
1980
0B00
0E00
0000
0F00
1F80
3180
6100
4300
FC00
F000
C080
C300
7F00
3C00
ENDCHAR
STARTCHAR Gcircumflex
ENCODING 284
SWIDTH 702 0
DWIDTH 14 0
BBX 13 18 2 0
BITMAP
0380
0680
0CC0
0000
03F0
0FF8
1C08
3800
7000
6000
E000
C030
C060
C060
E060
7060
7FE0
1F80
ENDCHAR
STARTCHAR gcircumflex
ENCODING 285
SWIDTH 608 0
DWIDTH 12 0
BBX 11 19 1 -4
BITMAP
0380
0680
0CC0
0000
07E0
0FE0
1C60
3840
30C0
60C0
61C0
62C0
6680
7D80
3980
0180
8300
FE00
7C00
ENDCHAR
STARTCHAR Gbreve
ENCODING 286
SWIDTH 702 0
DWIDTH 14 0
BBX 13 18 2 0
BITMAP
0420
0640
0380
0000
03F0
0FF8
1C08
3800
7000
6000
E000
C030
C060
C060
E060
7060
7FE0
1F80
ENDCHAR
STARTCHAR gbreve
ENCODING 287
SWIDTH 608 0
DWIDTH 12 0
BBX 11 19 1 -4
BITMAP
0840
0C80
0700
0000
07E0
0FE0
1C60
3840
30C0
60C0
61C0
62C0
6680
7D80
3980
0180
8300
FE00
7C00
ENDCHAR
STARTCHAR Gdotaccent
ENCODING 288
SWIDTH 702 0
DWIDTH 14 0
BBX 13 17 2 0
BITMAP
0300
0300
0000
03F0
0FF8
1C08
3800
7000
6000
E000
C030
C060
C060
E060
7060
7FE0
1F80
ENDCHAR
STARTCHAR gdotaccent
ENCODING 289
SWIDTH 608 0
DWIDTH 12 0
BBX 11 18 1 -4
BITMAP
0300
0300
0000
07E0
0FE0
1C60
3840
30C0
60C0
61C0
62C0
6680
7D80
3980
0180
8300
FE00
7C00
ENDCHAR
STARTCHAR Gcommaaccent
ENCODING 290
SWIDTH 702 0
DWIDTH 14 0
BBX 13 22 2 -8
BITMAP
03F0
0FF8
1C08
3800
7000
6000
E000
C030
C060
C060
E060
7060
7FE0
1F80
0000
0700
0700
0700
0200
0600
0600
0C00
ENDCHAR
STARTCHAR gcommaaccent
ENCODING 291
SWIDTH 608 0
DWIDTH 12 0
BBX 11 21 1 -4
BITMAP
0180
0300
0200
0700
0700
0000
07E0
0FE0
1C60
3840
30C0
60C0
61C0
62C0
6680
7D80
3980
0180
8300
FE00
7C00
ENDCHAR
STARTCHAR Hcircumflex
ENCODING 292
SWIDTH 735 0
DWIDTH 15 0
BBX 14 18 2 0
BITMAP
01C0
0340
0660
0000
180C
180C
3018
3018
3018
3018
3FF8
7FF0
6030
6030
6030
6030
C060
C060
ENDCHAR
STARTCHAR hcircumflex
ENCODING 293
SWIDTH 620 0
DWIDTH 12 0
BBX 10 18 2 0
BITMAP
0E00
1A00
3300
0000
1800
1800
3000
3380
37C0
3EC0
3CC0
78C0
7080
7180
6180
4180
C180
C380
ENDCHAR
STARTCHAR Hbar
ENCODING 294
SWIDTH 735 0
DWIDTH 15 0
BBX 14 14 2 0
BITMAP
180C
180C
FFFC
FFFC
3018
3018
3FF8
7FF0
6030
6030
6030
6030
C060
C060
ENDCHAR
STARTCHAR hbar
ENCODING 295
SWIDTH 620 0
DWIDTH 12 0
BBX 10 14 2 0
BITMAP
1800
7C00
7C00
3380
37C0
3EC0
3CC0
78C0
7080
7180
6180
4180
C180
C380
ENDCHAR
STARTCHAR Itilde
ENCODING 296
SWIDTH 289 0
DWIDTH 6 0
BBX 6 17 2 0
BITMAP
74
B8
00
18
18
30
30
30
30
30
60
60
60
60
60
C0
C0
ENDCHAR
STARTCHAR itilde
ENCODING 297
SWIDTH 289 0
DWIDTH 6 0
BBX 6 14 2 0
BITMAP
74
B8
00
30
30
30
60
60
60
60
60
C0
C0
C0
ENDCHAR
STARTCHAR Imacron
ENCODING 298
SWIDTH 289 0
DWIDTH 6 0
BBX 6 17 2 0
BITMAP
FC
FC
00
18
18
30
30
30
30
30
60
60
60
60
60
C0
C0
ENDCHAR
STARTCHAR imacron
ENCODING 299
SWIDTH 289 0
DWIDTH 6 0
BBX 6 14 2 0
BITMAP
FC
FC
00
30
30
30
60
60
60
60
60
C0
C0
C0
ENDCHAR
STARTCHAR Ibreve
ENCODING 300
SWIDTH 289 0
DWIDTH 6 0
BBX 7 18 2 0
BITMAP
42
64
38
00
18
18
30
30
30
30
30
60
60
60
60
60
C0
C0
ENDCHAR
STARTCHAR ibreve
ENCODING 301
SWIDTH 289 0
DWIDTH 6 0
BBX 6 15 2 0
BITMAP
84
C8
70
00
30
30
30
60
60
60
60
60
C0
C0
C0
ENDCHAR
STARTCHAR Iogonek
ENCODING 302
SWIDTH 289 0
DWIDTH 6 0
BBX 5 18 2 -4
BITMAP
18
18
30
30
30
30
30
60
60
60
60
60
C0
C0
00
60
80
E0
ENDCHAR
STARTCHAR iogonek
ENCODING 303
SWIDTH 289 0
DWIDTH 6 0
BBX 5 18 2 -4
BITMAP
18
18
00
30
30
30
60
60
60
60
60
C0
C0
C0
00
60
80
E0
ENDCHAR
STARTCHAR Idotaccent
ENCODING 304
SWIDTH 289 0
DWIDTH 6 0
BBX 5 17 2 0
BITMAP
30
30
00
18
18
30
30
30
30
30
60
60
60
60
60
C0
C0
ENDCHAR
STARTCHAR dotlessi
ENCODING 305
SWIDTH 289 0
DWIDTH 6 0
BBX 4 11 2 0
BITMAP
30
30
30
60
60
60
60
60
C0
C0
C0
ENDCHAR
STARTCHAR IJ
ENCODING 306
SWIDTH 683 0
DWIDTH 14 0
BBX 14 18 2 -4
BITMAP
180C
180C
3018
3018
3018
3018
3018
6030
6030
6030
6030
6030
C060
C060
0060
00C0
0FC0
0F80
ENDCHAR
STARTCHAR ij
ENCODING 307
SWIDTH 600 0
DWIDTH 13 0
BBX 13 18 2 -4
BITMAP
1818
1818
0000
3030
3030
3030
6030
6060
6060
6060
6060
C0E0
C0C0
C0C0
00C0
0180
1F00
1E00
ENDCHAR
STARTCHAR Jcircumflex
ENCODING 308
SWIDTH 408 0
DWIDTH 8 0
BBX 10 22 0 -4
BITMAP
0380
0680
0CC0
0000
00C0
00C0
0180
0180
0180
0180
0180
0300
0300
0300
0300
0300
0600
0600
0600
0C00
FC00
F800
ENDCHAR
STARTCHAR jcircumflex
ENCODING 309
SWIDTH 325 0
DWIDTH 7 0
BBX 10 19 -1 -4
BITMAP
0380
0680
0CC0
0000
0180
0180
0180
0180
0300
0300
0300
0300
0700
0600
0600
0600
0C00
F800
F000
ENDCHAR
STARTCHAR Kcommaaccent
ENCODING 310
SWIDTH 635 0
DWIDTH 13 0
BBX 13 22 2 -8
BITMAP
1838
1860
38C0
3180
3300
3600
3C00
6E00
6600
6700
6380
6180
C0C0
C0E0
0000
0E00
0E00
0E00
0400
0C00
0C00
1800
ENDCHAR
STARTCHAR kcommaaccent
ENCODING 311
SWIDTH 572 0
DWIDTH 12 0
BBX 10 22 2 -8
BITMAP
1800
1800
3000
31C0
3380
3700
2E00
6C00
7800
6C00
6600
4600
C300
C380
0000
1C00
1C00
1C00
0800
1800
1800
3000
ENDCHAR
STARTCHAR kgreenlandic
ENCODING 312
SWIDTH 572 0
DWIDTH 12 0
BBX 10 11 2 0
BITMAP
31C0
3380
3700
2E00
6C00
7800
6C00
6600
4600
C300
C380
ENDCHAR
STARTCHAR Lacute
ENCODING 313
SWIDTH 545 0
DWIDTH 11 0
BBX 9 18 2 0
BITMAP
0E00
1800
3000
0000
1800
1800
3000
3000
3000
3000
2000
6000
6000
6000
6000
4000
FF80
FF80
ENDCHAR
STARTCHAR lacute
ENCODING 314
SWIDTH 289 0
DWIDTH 6 0
BBX 7 18 2 0
BITMAP
0E
18
30
00
18
18
10
30
30
30
30
60
60
60
60
40
C0
C0
ENDCHAR
STARTCHAR Lcommaaccent
ENCODING 315
SWIDTH 545 0
DWIDTH 11 0
BBX 9 22 2 -8
BITMAP
1800
1800
3000
3000
3000
3000
2000
6000
6000
6000
6000
4000
FF80
FF80
0000
1C00
1C00
1C00
0800
1800
1800
3000
ENDCHAR
STARTCHAR lcommaaccent
ENCODING 316
SWIDTH 289 0
DWIDTH 6 0
BBX 6 22 1 -8
BITMAP
0C
0C
08
18
18
18
18
30
30
30
30
20
60
60
00
70
70
70
20
60
60
C0
ENDCHAR
STARTCHAR Lcaron
ENCODING 317
SWIDTH 735 0
DWIDTH 14 0
BBX 15 14 2 0
BITMAP
180E
180E
300C
301C
3010
3000
2000
6000
6000
6000
6000
4000
FF80
FF80
ENDCHAR
STARTCHAR lcaron
ENCODING 318
SWIDTH 492 0
DWIDTH 10 0
BBX 11 14 2 0
BITMAP
18E0
18E0
10C0
31C0
3100
3000
3000
6000
6000
6000
6000
4000
C000
C000
ENDCHAR
STARTCHAR Ldot
ENCODING 319
SWIDTH 834 0
DWIDTH 23 0
BBX 17 14 2 0
BITMAP
180000
180000
300000
300000
300000
300000
200380
600380
600000
600000
600000
400000
FF8000
FF8000
ENDCHAR
STARTCHAR ldot
ENCODING 320
SWIDTH 591 0
DWIDTH 19 0
BBX 13 14 2 0
BITMAP
1800
1800
1000
3000
3000
3000
3038
6038
6000
6000
6000
4000
C000
C000
ENDCHAR
STARTCHAR Lslash
ENCODING 321
SWIDTH 545 0
DWIDTH 11 0
BBX 10 14 1 0
BITMAP
0C00
0C00
1800
1A00
1E00
1C00
3800
F000
B000
3000
3000
3000
7FC0
7FC0
ENDCHAR
STARTCHAR lslash
ENCODING 322
SWIDTH 289 0
DWIDTH 6 0
BBX 7 14 1 0
BITMAP
0C
08
18
1A
1E
1C
30
F0
B0
30
30
20
60
60
ENDCHAR
STARTCHAR Nacute
ENCODING 323
SWIDTH 741 0
DWIDTH 15 0
BBX 14 18 2 0
BITMAP
01C0
0300
0600
0000
180C
1C0C
3C08
3C08
3618
3618
2318
6310
61B0
61B0
40F0
40F0
C0E0
C060
ENDCHAR
STARTCHAR nacute
ENCODING 324
SWIDTH 620 0
DWIDTH 12 0
BBX 10 15 2 0
BITMAP
0380
0600
0C00
0000
3380
37C0
2EC0
7CC0
78C0
7080
7180
6180
C180
C180
C380
ENDCHAR
STARTCHAR Ncommaaccent
ENCODING 325
SWIDTH 741 0
DWIDTH 15 0
BBX 14 22 2 -8
BITMAP
180C
1C0C
3C08
3C08
3618
3618
2318
6310
61B0
61B0
40F0
40F0
C0E0
C060
0000
0380
0380
0380
0100
0300
0300
0600
ENDCHAR
STARTCHAR ncommaaccent
ENCODING 326
SWIDTH 620 0
DWIDTH 12 0
BBX 10 19 2 -8
BITMAP
3380
37C0
2EC0
7CC0
78C0
7080
7180
6180
C180
C180
C380
0000
1C00
1C00
1C00
0800
1800
1800
3000
ENDCHAR
STARTCHAR Ncaron
ENCODING 327
SWIDTH 741 0
DWIDTH 15 0
BBX 14 18 2 0
BITMAP
0CC0
0580
0700
0000
180C
1C0C
3C08
3C08
3618
3618
2318
6310
61B0
61B0
40F0
40F0
C0E0
C060
ENDCHAR
STARTCHAR ncaron
ENCODING 328
SWIDTH 620 0
DWIDTH 12 0
BBX 10 15 2 0
BITMAP
1980
0B00
0E00
0000
3380
37C0
2EC0
7CC0
78C0
7080
7180
6180
C180
C180
C380
ENDCHAR
STARTCHAR napostrophe
ENCODING 329
SWIDTH 826 0
DWIDTH 16 0
BBX 13 14 3 0
BITMAP
7000
7000
6000
E670
86F8
05D8
0F98
0F18
0E10
0E30
0C30
1830
1830
1870
ENDCHAR
STARTCHAR Eng
ENCODING 330
SWIDTH 741 0
DWIDTH 15 0
BBX 14 18 2 -4
BITMAP
180C
1C0C
3C08
3C08
3618
3618
2318
6310
61B0
61B0
40F0
40F0
C0E0
C060
0060
00C0
0F80
0F00
ENDCHAR
STARTCHAR eng
ENCODING 331
SWIDTH 620 0
DWIDTH 12 0
BBX 10 15 2 -4
BITMAP
3380
37C0
2EC0
7CC0
78C0
7080
7180
6180
C380
C300
C300
0300
0600
7C00
7800
ENDCHAR
STARTCHAR Omacron
ENCODING 332
SWIDTH 777 0
DWIDTH 16 0
BBX 14 17 2 0
BITMAP
07E0
07E0
0000
03E0
0FF8
1C3C
381C
700C
600C
E00C
C00C
C018
C038
E070
70E0
7FC0
1F00
ENDCHAR
STARTCHAR omacron
ENCODING 333
SWIDTH 566 0
DWIDTH 11 0
BBX 10 14 2 0
BITMAP
1F80
1F80
0000
0F00
1F80
31C0
60C0
60C0
C0C0
C180
C180
C300
7E00
3C00
ENDCHAR
STARTCHAR Obreve
ENCODING 334
SWIDTH 777 0
DWIDTH 16 0
BBX 14 18 2 0
BITMAP
0420
0640
0380
0000
03E0
0FF8
1C3C
381C
700C
600C
E00C
C00C
C018
C038
E070
70E0
7FC0
1F00
ENDCHAR
STARTCHAR obreve
ENCODING 335
SWIDTH 566 0
DWIDTH 11 0
BBX 10 15 2 0
BITMAP
1080
1900
0E00
0000
0F00
1F80
31C0
60C0
60C0
C0C0
C180
C180
C300
7E00
3C00
ENDCHAR
STARTCHAR Ohungarumlaut
ENCODING 336
SWIDTH 777 0
DWIDTH 16 0
BBX 14 18 2 0
BITMAP
01F0
0340
0780
0000
03E0
0FF8
1C3C
381C
700C
600C
E00C
C00C
C018
C038
E070
70E0
7FC0
1F00
ENDCHAR
STARTCHAR ohungarumlaut
ENCODING 337
SWIDTH 566 0
DWIDTH 11 0
BBX 10 15 2 0
BITMAP
07C0
0D00
1E00
0000
0F00
1F80
31C0
60C0
60C0
C0C0
C180
C180
C300
7E00
3C00
ENDCHAR
STARTCHAR OE
ENCODING 338
SWIDTH 1005 0
DWIDTH 20 0
BBX 20 14 2 0
BITMAP
03EFF0
0FFFF0
1C1C00
381800
701800
601800
E01FC0
C03F80
C03000
C03000
E07000
70E000
7FFFC0
1F7FC0
ENDCHAR
STARTCHAR oe
ENCODING 339
SWIDTH 899 0
DWIDTH 18 0
BBX 16 11 2 0
BITMAP
0F8F
1F9F
30F3
60E3
60C6
C0FC
C0E0
C1C1
C3C3
7EFF
3C7C
ENDCHAR
STARTCHAR Racute
ENCODING 340
SWIDTH 632 0
DWIDTH 13 0
BBX 11 18 2 0
BITMAP
01C0
0300
0600
0000
1FC0
1FE0
30E0
3060
3060
30C0
3180
7E00
7F00
6300
6380
6180
C0C0
C0C0
ENDCHAR
STARTCHAR racute
ENCODING 341
SWIDTH 478 0
DWIDTH 10 0
BBX 9 15 2 0
BITMAP
0700
0C00
1800
0000
3180
3780
3E00
6C00
7800
7000
6000
6000
C000
C000
C000
ENDCHAR
STARTCHAR Rcommaaccent
ENCODING 342
SWIDTH 632 0
DWIDTH 13 0
BBX 11 22 2 -8
BITMAP
1FC0
1FE0
30E0
3060
3060
30C0
3180
7E00
7F00
6300
6380
6180
C0C0
C0C0
0000
0E00
0E00
0E00
0400
0C00
0C00
1800
ENDCHAR
STARTCHAR rcommaaccent
ENCODING 343
SWIDTH 478 0
DWIDTH 10 0
BBX 9 19 2 -8
BITMAP
3180
3780
3E00
6C00
7800
7000
6000
6000
C000
C000
C000
0000
7000
7000
7000
2000
6000
6000
C000
ENDCHAR
STARTCHAR Rcaron
ENCODING 344
SWIDTH 632 0
DWIDTH 13 0
BBX 11 18 2 0
BITMAP
0CC0
0580
0700
0000
1FC0
1FE0
30E0
3060
3060
30C0
3180
7E00
7F00
6300
6380
6180
C0C0
C0C0
ENDCHAR
STARTCHAR rcaron
ENCODING 345
SWIDTH 478 0
DWIDTH 10 0
BBX 9 15 2 0
BITMAP
3300
1600
1C00
0000
3180
3780
3E00
6C00
7800
7000
6000
6000
C000
C000
C000
ENDCHAR
STARTCHAR Sacute
ENCODING 346
SWIDTH 553 0
DWIDTH 11 0
BBX 11 18 1 0
BITMAP
01C0
0300
0600
0000
07C0
1FE0
1820
3000
3800
1C00
0E00
0700
0380
0180
0180
8380
FF00
7E00
ENDCHAR
STARTCHAR sacute
ENCODING 347
SWIDTH 489 0
DWIDTH 10 0
BBX 8 15 2 0
BITMAP
07
0C
18
00
1E
3F
31
30
38
1C
0E
06
86
FE
7C
ENDCHAR
STARTCHAR Scircumflex
ENCODING 348
SWIDTH 553 0
DWIDTH 11 0
BBX 11 18 1 0
BITMAP
0700
0D00
1980
0000
07C0
1FE0
1820
3000
3800
1C00
0E00
0700
0380
0180
0180
8380
FF00
7E00
ENDCHAR
STARTCHAR scircumflex
ENCODING 349
SWIDTH 489 0
DWIDTH 10 0
BBX 8 15 2 0
BITMAP
0E
1A
33
00
1E
3F
31
30
38
1C
0E
06
86
FE
7C
ENDCHAR
STARTCHAR Scedilla
ENCODING 350
SWIDTH 553 0
DWIDTH 11 0
BBX 11 18 1 -4
BITMAP
07C0
1FE0
1820
3000
3800
1C00
0E00
0700
0380
0180
0180
8380
FF00
7E00
0800
0400
0C00
1800
ENDCHAR
STARTCHAR scedilla
ENCODING 351
SWIDTH 489 0
DWIDTH 10 0
BBX 8 15 2 -4
BITMAP
1E
3F
31
30
38
1C
0E
06
86
FE
7C
10
08
18
30
ENDCHAR
STARTCHAR Scaron
ENCODING 352
SWIDTH 553 0
DWIDTH 11 0
BBX 11 18 1 0
BITMAP
0660
02C0
0380
0000
07C0
1FE0
1820
3000
3800
1C00
0E00
0700
0380
0180
0180
8380
FF00
7E00
ENDCHAR
STARTCHAR scaron
ENCODING 353
SWIDTH 489 0
DWIDTH 10 0
BBX 10 15 2 0
BITMAP
0CC0
0580
0700
0000
1E00
3F00
3100
3000
3800
1C00
0E00
0600
8600
FE00
7C00
ENDCHAR
STARTCHAR Tcommaaccent
ENCODING 354
SWIDTH 623 0
DWIDTH 12 0
BBX 13 18 2 -4
BITMAP
FFF8
FFF8
0600
0600
0600
0E00
0C00
0C00
0C00
0C00
1800
1800
1800
1C00
0800
0400
0C00
1800
ENDCHAR
STARTCHAR tcommaaccent
ENCODING 355
SWIDTH 383 0
DWIDTH 8 0
BBX 6 17 3 -4
BITMAP
30
30
FC
FC
60
60
60
60
60
40
C0
F0
70
20
10
30
60
ENDCHAR
STARTCHAR Tcaron
ENCODING 356
SWIDTH 623 0
DWIDTH 12 0
BBX 13 18 2 0
BITMAP
0CC0
0580
0700
0000
FFF8
FFF8
0600
0600
0600
0E00
0C00
0C00
0C00
0C00
1800
1800
1800
1800
ENDCHAR
STARTCHAR tcaron
ENCODING 357
SWIDTH 581 0
DWIDTH 12 0
BBX 12 14 3 0
BITMAP
0070
3070
3060
FCE0
FC80
6000
6000
6000
6000
6000
4000
C000
F000
7000
ENDCHAR
STARTCHAR Tbar
ENCODING 358
SWIDTH 623 0
DWIDTH 12 0
BBX 13 14 2 0
BITMAP
FFF8
FFF8
0600
0600
0600
0E00
0F80
0F80
0C00
0C00
1800
1800
1800
1800
ENDCHAR
STARTCHAR tbar
ENCODING 359
SWIDTH 383 0
DWIDTH 8 0
BBX 6 13 3 0
BITMAP
30
30
FC
FC
60
60
7C
7C
60
40
C0
F0
70
ENDCHAR
STARTCHAR Utilde
ENCODING 360
SWIDTH 693 0
DWIDTH 14 0
BBX 12 17 3 0
BITMAP
0E80
1700
0000
3030
3030
7030
6060
6060
6060
6060
C060
C0C0
C0C0
C0C0
E180
FF80
7E00
ENDCHAR
STARTCHAR utilde
ENCODING 361
SWIDTH 620 0
DWIDTH 12 0
BBX 10 14 2 0
BITMAP
1D00
2E00
0000
70C0
60C0
60C0
6180
6380
C380
C780
CF80
DD00
FB00
7300
ENDCHAR
STARTCHAR Umacron
ENCODING 362
SWIDTH 693 0
DWIDTH 14 0
BBX 12 17 3 0
BITMAP
1F80
1F80
0000
3030
3030
7030
6060
6060
6060
6060
C060
C0C0
C0C0
C0C0
E180
FF80
7E00
ENDCHAR
STARTCHAR umacron
ENCODING 363
SWIDTH 620 0
DWIDTH 12 0
BBX 10 14 2 0
BITMAP
3F00
3F00
0000
70C0
60C0
60C0
6180
6380
C380
C780
CF80
DD00
FB00
7300
ENDCHAR
STARTCHAR Ubreve
ENCODING 364
SWIDTH 693 0
DWIDTH 14 0
BBX 12 18 3 0
BITMAP
0840
0C80
0700
0000
3030
3030
7030
6060
6060
6060
6060
C060
C0C0
C0C0
C0C0
E180
FF80
7E00
ENDCHAR
STARTCHAR ubreve
ENCODING 365
SWIDTH 620 0
DWIDTH 12 0
BBX 10 15 2 0
BITMAP
1080
1900
0E00
0000
70C0
60C0
60C0
6180
6380
C380
C780
CF80
DD00
FB00
7300
ENDCHAR
STARTCHAR Uring
ENCODING 366
SWIDTH 693 0
DWIDTH 14 0
BBX 12 18 3 0
BITMAP
0700
0500
0700
0000
3030
3030
7030
6060
6060
6060
6060
C060
C0C0
C0C0
C0C0
E180
FF80
7E00
ENDCHAR
STARTCHAR uring
ENCODING 367
SWIDTH 620 0
DWIDTH 12 0
BBX 10 15 2 0
BITMAP
0E00
0A00
0E00
0000
70C0
60C0
60C0
6180
6380
C380
C780
CF80
DD00
FB00
7300
ENDCHAR
STARTCHAR Uhungarumlaut
ENCODING 368
SWIDTH 693 0
DWIDTH 14 0
BBX 12 18 3 0
BITMAP
03E0
0680
0F00
0000
3030
3030
7030
6060
6060
6060
6060
C060
C0C0
C0C0
C0C0
E180
FF80
7E00
ENDCHAR
STARTCHAR uhungarumlaut
ENCODING 369
SWIDTH 620 0
DWIDTH 12 0
BBX 10 15 2 0
BITMAP
07C0
0D00
1E00
0000
70C0
60C0
60C0
6180
6380
C380
C780
CF80
DD00
FB00
7300
ENDCHAR
STARTCHAR Uogonek
ENCODING 370
SWIDTH 693 0
DWIDTH 14 0
BBX 12 18 3 -4
BITMAP
3030
3030
7030
6060
6060
6060
6060
C060
C0C0
C0C0
C0C0
E180
FF80
7E00
0000
0C00
1000
1C00
ENDCHAR
STARTCHAR uogonek
ENCODING 371
SWIDTH 620 0
DWIDTH 12 0
BBX 10 15 2 -4
BITMAP
70C0
60C0
60C0
6180
6380
C380
C780
CF80
DD00
FB00
7300
0000
1800
2000
3800
ENDCHAR
STARTCHAR Wcircumflex
ENCODING 372
SWIDTH 886 0
DWIDTH 18 0
BBX 17 18 3 0
BITMAP
01C000
034000
066000
000000
C1C180
C1C300
C3C300
C3C600
C2C600
C6CC00
C4CC00
CCD800
C8D800
58F000
50F000
70E000
70E000
60C000
ENDCHAR
STARTCHAR wcircumflex
ENCODING 373
SWIDTH 795 0
DWIDTH 16 0
BBX 15 15 2 0
BITMAP
0380
0680
0CC0
0000
C386
C38C
C78C
C798
CD98
CDB0
59B0
59E0
71E0
71C0
61C0
ENDCHAR
STARTCHAR Ycircumflex
ENCODING 374
SWIDTH 608 0
DWIDTH 12 0
BBX 12 18 3 0
BITMAP
0700
0D00
1980
0000
C070
60E0
60C0
3180
3300
3F00
1E00
1C00
1800
1800
1800
1800
3000
3000
ENDCHAR
STARTCHAR ycircumflex
ENCODING 375
SWIDTH 548 0
DWIDTH 11 0
BBX 11 19 2 -4
BITMAP
0700
0D00
1980
0000
6060
60C0
61C0
6180
6380
3300
3600
3E00
3C00
3800
3800
3000
3000
6000
C000
ENDCHAR
STARTCHAR Ydieresis
ENCODING 376
SWIDTH 608 0
DWIDTH 12 0
BBX 12 17 3 0
BITMAP
1980
1980
0000
C070
60E0
60C0
3180
3300
3F00
1E00
1C00
1800
1800
1800
1800
3000
3000
ENDCHAR
STARTCHAR Zacute
ENCODING 377
SWIDTH 578 0
DWIDTH 12 0
BBX 13 18 1 0
BITMAP
00E0
0180
0300
0000
1FF8
1FF8
0070
00E0
00C0
0180
0300
0600
0C00
1800
3800
7000
FFE0
FFC0
ENDCHAR
STARTCHAR zacute
ENCODING 378
SWIDTH 536 0
DWIDTH 11 0
BBX 10 15 1 0
BITMAP
0380
0600
0C00
0000
3FC0
3FC0
0180
0300
0600
0C00
1800
3000
6000
FF80
FF80
ENDCHAR
STARTCHAR Zdotaccent
ENCODING 379
SWIDTH 578 0
DWIDTH 12 0
BBX 13 17 1 0
BITMAP
0180
0180
0000
1FF8
1FF8
0070
00E0
00C0
0180
0300
0600
0C00
1800
3800
7000
FFE0
FFC0
ENDCHAR
STARTCHAR zdotaccent
ENCODING 380
SWIDTH 536 0
DWIDTH 11 0
BBX 10 14 1 0
BITMAP
0600
0600
0000
3FC0
3FC0
0180
0300
0600
0C00
1800
3000
6000
FF80
FF80
ENDCHAR
STARTCHAR Zcaron
ENCODING 381
SWIDTH 578 0
DWIDTH 12 0
BBX 13 18 1 0
BITMAP
0330
0160
01C0
0000
1FF8
1FF8
0070
00E0
00C0
0180
0300
0600
0C00
1800
3800
7000
FFE0
FFC0
ENDCHAR
STARTCHAR zcaron
ENCODING 382
SWIDTH 536 0
DWIDTH 11 0
BBX 11 15 1 0
BITMAP
0660
02C0
0380
0000
3FC0
3FC0
0180
0300
0600
0C00
1800
3000
6000
FF80
FF80
ENDCHAR
STARTCHAR uni0186
ENCODING 390
SWIDTH 679 0
DWIDTH 14 0
BBX 13 14 2 0
BITMAP
07C0
3FF0
2030
0018
0018
0018
0018
0038
0030
0070
00E0
81C0
FF80
7E00
ENDCHAR
STARTCHAR uni0189
ENCODING 393
SWIDTH 743 0
DWIDTH 15 0
BBX 15 14 1 0
BITMAP
0FF8
1FFC
181E
180E
1806
1806
FF06
FF0E
300C
301C
3038
6070
7FE0
7F80
ENDCHAR
STARTCHAR uni018E
ENCODING 398
SWIDTH 547 0
DWIDTH 11 0
BBX 11 14 2 0
BITMAP
3FE0
3FE0
00C0
00C0
00C0
00C0
1FC0
3F80
0180
0180
0180
0380
FF00
FF00
ENDCHAR
STARTCHAR florin
ENCODING 402
SWIDTH 633 0
DWIDTH 13 0
BBX 9 18 4 -4
BITMAP
0780
0F80
1800
1800
1000
3000
3000
FC00
FC00
3000
3000
6000
6000
6000
6000
4000
C000
C000
ENDCHAR
STARTCHAR uni0197
ENCODING 407
SWIDTH 289 0
DWIDTH 6 0
BBX 5 14 2 0
BITMAP
18
18
30
30
30
30
F8
F8
60
60
60
60
C0
C0
ENDCHAR
STARTCHAR uni019A
ENCODING 410
SWIDTH 289 0
DWIDTH 6 0
BBX 5 14 2 0
BITMAP
18
18
10
30
30
30
F8
F8
60
60
60
40
C0
C0
ENDCHAR
STARTCHAR uni019D
ENCODING 413
SWIDTH 741 0
DWIDTH 15 0
BBX 19 18 -3 -4
BITMAP
00C060
00E060
01E040
01E040
01B0C0
01B0C0
0118C0
031880
030D80
030D80
030780
070780
060700
060300
060000
0C0000
F80000
F00000
ENDCHAR
STARTCHAR uni019F
ENCODING 415
SWIDTH 777 0
DWIDTH 16 0
BBX 14 14 2 0
BITMAP
03E0
0FF8
1C3C
381C
700C
600C
FFFC
FFFC
C018
C038
E070
70E0
7FC0
1F00
ENDCHAR
STARTCHAR Ohorn
ENCODING 416
SWIDTH 777 0
DWIDTH 16 0
BBX 17 14 2 0
BITMAP
03E380
0FFB80
1C3F00
381F00
700C00
600C00
E00C00
C00C00
C01800
C03800
E07000
70E000
7FC000
1F0000
ENDCHAR
STARTCHAR ohorn
ENCODING 417
SWIDTH 566 0
DWIDTH 11 0
BBX 13 11 2 0
BITMAP
0F38
1FB8
31F0
60F0
60C0
C0C0
C180
C180
C300
7E00
3C00
ENDCHAR
STARTCHAR Uhorn
ENCODING 431
SWIDTH 693 0
DWIDTH 14 0
BBX 15 14 3 0
BITMAP
303E
303E
703C
607C
6070
6060
6060
C060
C0C0
C0C0
C0C0
E180
FF80
7E00
ENDCHAR
STARTCHAR uhorn
ENCODING 432
SWIDTH 620 0
DWIDTH 12 0
BBX 13 11 2 0
BITMAP
70F8
60F8
60F0
61F0
63C0
C380
C780
CF80
DD00
FB00
7300
ENDCHAR
STARTCHAR uni01B5
ENCODING 437
SWIDTH 578 0
DWIDTH 12 0
BBX 13 14 1 0
BITMAP
1FF8
1FF8
0070
00E0
00C0
0180
0F80
0F80
0C00
1800
3800
7000
FFE0
FFC0
ENDCHAR
STARTCHAR uni01B6
ENCODING 438
SWIDTH 536 0
DWIDTH 11 0
BBX 10 11 1 0
BITMAP
3FC0
3FC0
0180
0300
1F00
1F00
1800
3000
6000
FF80
FF80
ENDCHAR
STARTCHAR uni01BB
ENCODING 443
SWIDTH 633 0
DWIDTH 13 0
BBX 11 14 2 0
BITMAP
0F80
1FE0
10E0
0060
0060
00C0
FFE0
FFE0
0E00
1800
3000
6000
FF80
FF80
ENDCHAR
STARTCHAR uni01BC
ENCODING 444
SWIDTH 633 0
DWIDTH 13 0
BBX 11 14 3 0
BITMAP
1FE0
1FC0
1000
3000
3000
3E00
3F00
0380
0180
0180
0180
8300
FE00
FC00
ENDCHAR
STARTCHAR uni01C0
ENCODING 448
SWIDTH 233 0
DWIDTH 5 0
BBX 5 18 1 -4
BITMAP
18
18
18
10
10
30
30
30
20
20
60
60
60
40
40
C0
C0
C0
ENDCHAR
STARTCHAR uni01C2
ENCODING 450
SWIDTH 633 0
DWIDTH 13 0
BBX 13 18 1 -3
BITMAP
0180
0180
0180
0100
0100
0300
7FF8
7FF8
0200
0200
FFF0
FFF0
0600
0400
0400
0C00
0C00
0C00
ENDCHAR
STARTCHAR uni01C3
ENCODING 451
SWIDTH 193 0
DWIDTH 6 0
BBX 5 14 2 0
BITMAP
18
18
30
30
30
30
30
20
60
60
00
00
C0
C0
ENDCHAR
STARTCHAR uni01CD
ENCODING 461
SWIDTH 687 0
DWIDTH 14 0
BBX 13 18 0 0
BITMAP
0660
02C0
0380
0000
00C0
01E0
01E0
0360
0360
0660
0C70
0C30
1830
1FF0
3FF0
6038
6018
C018
ENDCHAR
STARTCHAR uni01CE
ENCODING 462
SWIDTH 608 0
DWIDTH 12 0
BBX 11 15 2 0
BITMAP
0CC0
0580
0700
0000
07E0
1FE0
3860
30C0
60C0
61C0
C3C0
C7C0
CF80
FD80
7180
ENDCHAR
STARTCHAR uni01CF
ENCODING 463
SWIDTH 289 0
DWIDTH 6 0
BBX 7 18 2 0
BITMAP
66
2C
38
00
18
18
30
30
30
30
30
60
60
60
60
60
C0
C0
ENDCHAR
STARTCHAR uni01D0
ENCODING 464
SWIDTH 289 0
DWIDTH 6 0
BBX 6 15 2 0
BITMAP
CC
58
70
00
30
30
30
60
60
60
60
60
C0
C0
C0
ENDCHAR
STARTCHAR uni01D1
ENCODING 465
SWIDTH 777 0
DWIDTH 16 0
BBX 14 18 2 0
BITMAP
0660
02C0
0380
0000
03E0
0FF8
1C3C
381C
700C
600C
E00C
C00C
C018
C038
E070
70E0
7FC0
1F00
ENDCHAR
STARTCHAR uni01D2
ENCODING 466
SWIDTH 566 0
DWIDTH 11 0
BBX 10 15 2 0
BITMAP
1980
0B00
0E00
0000
0F00
1F80
31C0
60C0
60C0
C0C0
C180
C180
C300
7E00
3C00
ENDCHAR
STARTCHAR uni01D3
ENCODING 467
SWIDTH 693 0
DWIDTH 14 0
BBX 12 18 3 0
BITMAP
0CC0
0580
0700
0000
3030
3030
7030
6060
6060
6060
6060
C060
C0C0
C0C0
C0C0
E180
FF80
7E00
ENDCHAR
STARTCHAR uni01D4
ENCODING 468
SWIDTH 620 0
DWIDTH 12 0
BBX 10 15 2 0
BITMAP
1980
0B00
0E00
0000
70C0
60C0
60C0
6180
6380
C380
C780
CF80
DD00
FB00
7300
ENDCHAR
STARTCHAR uni01D5
ENCODING 469
SWIDTH 693 0
DWIDTH 14 0
BBX 12 20 3 0
BITMAP
0FC0
0FC0
0000
0CC0
0CC0
0000
3030
3030
7030
6060
6060
6060
6060
C060
C0C0
C0C0
C0C0
E180
FF80
7E00
ENDCHAR
STARTCHAR uni01D6
ENCODING 470
SWIDTH 620 0
DWIDTH 12 0
BBX 10 17 2 0
BITMAP
1F80
1F80
0000
0CC0
0CC0
0000
70C0
60C0
60C0
6180
6380
C380
C780
CF80
DD00
FB00
7300
ENDCHAR
STARTCHAR uni01D7
ENCODING 471
SWIDTH 693 0
DWIDTH 14 0
BBX 12 21 3 0
BITMAP
01C0
0300
0600
0000
0CC0
0CC0
0000
3030
3030
7030
6060
6060
6060
6060
C060
C0C0
C0C0
C0C0
E180
FF80
7E00
ENDCHAR
STARTCHAR uni01D8
ENCODING 472
SWIDTH 620 0
DWIDTH 12 0
BBX 10 18 2 0
BITMAP
0380
0600
0C00
0000
0CC0
0CC0
0000
70C0
60C0
60C0
6180
6380
C380
C780
CF80
DD00
FB00
7300
ENDCHAR
STARTCHAR uni01D9
ENCODING 473
SWIDTH 693 0
DWIDTH 14 0
BBX 12 21 3 0
BITMAP
0CC0
0580
0700
0000
0CC0
0CC0
0000
3030
3030
7030
6060
6060
6060
6060
C060
C0C0
C0C0
C0C0
E180
FF80
7E00
ENDCHAR
STARTCHAR uni01DA
ENCODING 474
SWIDTH 620 0
DWIDTH 12 0
BBX 10 18 2 0
BITMAP
1980
0B00
0E00
0000
0CC0
0CC0
0000
70C0
60C0
60C0
6180
6380
C380
C780
CF80
DD00
FB00
7300
ENDCHAR
STARTCHAR uni01DB
ENCODING 475
SWIDTH 693 0
DWIDTH 14 0
BBX 12 21 3 0
BITMAP
0E00
0600
0300
0000
0CC0
0CC0
0000
3030
3030
7030
6060
6060
6060
6060
C060
C0C0
C0C0
C0C0
E180
FF80
7E00
ENDCHAR
STARTCHAR uni01DC
ENCODING 476
SWIDTH 620 0
DWIDTH 12 0
BBX 10 18 2 0
BITMAP
1C00
0C00
0600
0000
0CC0
0CC0
0000
70C0
60C0
60C0
6180
6380
C380
C780
CF80
DD00
FB00
7300
ENDCHAR
STARTCHAR uni01DD
ENCODING 477
SWIDTH 529 0
DWIDTH 11 0
BBX 9 11 2 0
BITMAP
1E00
7F00
6180
8180
0780
1F80
6100
4300
C600
FC00
7800
ENDCHAR
STARTCHAR uni01DE
ENCODING 478
SWIDTH 687 0
DWIDTH 14 0
BBX 13 20 0 0
BITMAP
07E0
07E0
0000
0330
0330
0000
00C0
01E0
01E0
0360
0360
0660
0C70
0C30
1830
1FF0
3FF0
6038
6018
C018
ENDCHAR
STARTCHAR uni01DF
ENCODING 479
SWIDTH 608 0
DWIDTH 12 0
BBX 11 17 2 0
BITMAP
0FC0
0FC0
0000
0660
0660
0000
07E0
1FE0
3860
30C0
60C0
61C0
C3C0
C7C0
CF80
FD80
7180
ENDCHAR
STARTCHAR uni01E0
ENCODING 480
SWIDTH 687 0
DWIDTH 14 0
BBX 13 20 0 0
BITMAP
07E0
07E0
0000
0180
0180
0000
00C0
01E0
01E0
0360
0360
0660
0C70
0C30
1830
1FF0
3FF0
6038
6018
C018
ENDCHAR
STARTCHAR uni01E1
ENCODING 481
SWIDTH 608 0
DWIDTH 12 0
BBX 11 17 2 0
BITMAP
0FC0
0FC0
0000
0300
0300
0000
07E0
1FE0
3860
30C0
60C0
61C0
C3C0
C7C0
CF80
FD80
7180
ENDCHAR
STARTCHAR uni01E2
ENCODING 482
SWIDTH 893 0
DWIDTH 18 0
BBX 20 17 0 0
BITMAP
003F00
003F00
000000
001FF0
003FF0
007800
00F800
01D800
019FC0
033F80
063000
0FF000
1FF000
183000
306000
607FC0
E07FC0
ENDCHAR
STARTCHAR uni01E3
ENCODING 483
SWIDTH 893 0
DWIDTH 18 0
BBX 16 14 2 0
BITMAP
03F0
03F0
0000
07FE
1FFF
38F3
30C3
61C6
63FC
C3E0
C781
CEC3
FCFE
7878
ENDCHAR
STARTCHAR uni01E4
ENCODING 484
SWIDTH 702 0
DWIDTH 14 0
BBX 14 14 2 0
BITMAP
03F0
0FF8
1C08
3800
7000
6000
E000
C030
C060
C07C
E07C
7060
7FE0
1F80
ENDCHAR
STARTCHAR uni01E5
ENCODING 485
SWIDTH 608 0
DWIDTH 12 0
BBX 11 15 1 -4
BITMAP
07E0
0FE0
1C60
3840
30C0
60C0
61C0
62C0
6680
7D80
FFE0
FFE0
8300
FE00
7C00
ENDCHAR
STARTCHAR Gcaron
ENCODING 486
SWIDTH 702 0
DWIDTH 14 0
BBX 13 18 2 0
BITMAP
0660
02C0
0380
0000
03F0
0FF8
1C08
3800
7000
6000
E000
C030
C060
C060
E060
7060
7FE0
1F80
ENDCHAR
STARTCHAR gcaron
ENCODING 487
SWIDTH 608 0
DWIDTH 12 0
BBX 11 19 1 -4
BITMAP
0CC0
0580
0700
0000
07E0
0FE0
1C60
3840
30C0
60C0
61C0
62C0
6680
7D80
3980
0180
8300
FE00
7C00
ENDCHAR
STARTCHAR uni01E8
ENCODING 488
SWIDTH 635 0
DWIDTH 13 0
BBX 13 18 2 0
BITMAP
0CC0
0580
0700
0000
1838
1860
38C0
3180
3300
3600
3C00
6E00
6600
6700
6380
6180
C0C0
C0E0
ENDCHAR
STARTCHAR uni01E9
ENCODING 489
SWIDTH 572 0
DWIDTH 12 0
BBX 10 18 2 0
BITMAP
3300
1600
1C00
0000
1800
1800
3000
31C0
3380
3700
2E00
6C00
7800
6C00
6600
4600
C300
C380
ENDCHAR
STARTCHAR uni01EA
ENCODING 490
SWIDTH 777 0
DWIDTH 16 0
BBX 14 18 2 -4
BITMAP
03E0
0FF8
1C3C
381C
700C
600C
E00C
C00C
C018
C038
E070
70E0
7FC0
1F00
0000
0600
0800
0E00
ENDCHAR
STARTCHAR uni01EB
ENCODING 491
SWIDTH 566 0
DWIDTH 11 0
BBX 10 15 2 -4
BITMAP
0F00
1F80
31C0
60C0
60C0
C0C0
C180
C180
C300
7E00
3C00
0000
0C00
1000
1C00
ENDCHAR
STARTCHAR uni01EC
ENCODING 492
SWIDTH 777 0
DWIDTH 16 0
BBX 14 21 2 -4
BITMAP
07E0
07E0
0000
03E0
0FF8
1C3C
381C
700C
600C
E00C
C00C
C018
C038
E070
70E0
7FC0
1F00
0000
0600
0800
0E00
ENDCHAR
STARTCHAR uni01ED
ENCODING 493
SWIDTH 566 0
DWIDTH 11 0
BBX 10 18 2 -4
BITMAP
1F80
1F80
0000
0F00
1F80
31C0
60C0
60C0
C0C0
C180
C180
C300
7E00
3C00
0000
0C00
1000
1C00
ENDCHAR
STARTCHAR uni01F0
ENCODING 496
SWIDTH 325 0
DWIDTH 7 0
BBX 10 19 -1 -4
BITMAP
0CC0
0580
0700
0000
0180
0180
0180
0180
0300
0300
0300
0300
0700
0600
0600
0600
0C00
F800
F000
ENDCHAR
STARTCHAR uni01F4
ENCODING 500
SWIDTH 702 0
DWIDTH 14 0
BBX 13 18 2 0
BITMAP
00E0
0180
0300
0000
03F0
0FF8
1C08
3800
7000
6000
E000
C030
C060
C060
E060
7060
7FE0
1F80
ENDCHAR
STARTCHAR uni01F5
ENCODING 501
SWIDTH 608 0
DWIDTH 12 0
BBX 11 19 1 -4
BITMAP
01C0
0300
0600
0000
07E0
0FE0
1C60
3840
30C0
60C0
61C0
62C0
6680
7D80
3980
0180
8300
FE00
7C00
ENDCHAR
STARTCHAR uni01F8
ENCODING 504
SWIDTH 741 0
DWIDTH 15 0
BBX 14 18 2 0
BITMAP
0E00
0600
0300
0000
180C
1C0C
3C08
3C08
3618
3618
2318
6310
61B0
61B0
40F0
40F0
C0E0
C060
ENDCHAR
STARTCHAR uni01F9
ENCODING 505
SWIDTH 620 0
DWIDTH 12 0
BBX 10 15 2 0
BITMAP
1C00
0C00
0600
0000
3380
37C0
2EC0
7CC0
78C0
7080
7180
6180
C180
C180
C380
ENDCHAR
STARTCHAR Aringacute
ENCODING 506
SWIDTH 687 0
DWIDTH 14 0
BBX 13 22 0 0
BITMAP
0070
00C0
0180
0000
00E0
00A0
00E0
0000
00C0
01E0
01E0
0360
0360
0660
0C70
0C30
1830
1FF0
3FF0
6038
6018
C018
ENDCHAR
STARTCHAR aringacute
ENCODING 507
SWIDTH 608 0
DWIDTH 12 0
BBX 11 19 2 0
BITMAP
01C0
0300
0600
0000
0380
0280
0380
0000
07E0
1FE0
3860
30C0
60C0
61C0
C3C0
C7C0
CF80
FD80
7180
ENDCHAR
STARTCHAR AEacute
ENCODING 508
SWIDTH 893 0
DWIDTH 18 0
BBX 20 18 0 0
BITMAP
000700
000C00
001800
000000
001FF0
003FF0
007800
00F800
01D800
019FC0
033F80
063000
0FF000
1FF000
183000
306000
607FC0
E07FC0
ENDCHAR
STARTCHAR aeacute
ENCODING 509
SWIDTH 893 0
DWIDTH 18 0
BBX 16 15 2 0
BITMAP
0038
0060
00C0
0000
07FE
1FFF
38F3
30C3
61C6
63FC
C3E0
C781
CEC3
FCFE
7878
ENDCHAR
STARTCHAR Oslashacute
ENCODING 510
SWIDTH 777 0
DWIDTH 16 0
BBX 17 18 3 0
BITMAP
003800
006000
00C000
000000
01F380
07FE00
0E1E00
1C1E00
383600
306600
70C600
618600
630C00
661C00
7C3800
387000
3FE000
EF8000
ENDCHAR
STARTCHAR oslashacute
ENCODING 511
SWIDTH 566 0
DWIDTH 11 0
BBX 12 15 3 0
BITMAP
00E0
0180
0300
0000
07B0
0FE0
18E0
31E0
3360
6660
6CC0
78C0
7180
7F00
DE00
ENDCHAR
STARTCHAR Scommaaccent
ENCODING 536
SWIDTH 553 0
DWIDTH 11 0
BBX 11 22 1 -8
BITMAP
07C0
1FE0
1820
3000
3800
1C00
0E00
0700
0380
0180
0180
8380
FF00
7E00
0000
0E00
0E00
0E00
0400
0C00
0C00
1800
ENDCHAR
STARTCHAR scommaaccent
ENCODING 537
SWIDTH 489 0
DWIDTH 10 0
BBX 8 19 2 -8
BITMAP
1E
3F
31
30
38
1C
0E
06
86
FE
7C
00
38
38
38
10
30
30
60
ENDCHAR
STARTCHAR Tcommaaccent
ENCODING 538
SWIDTH 623 0
DWIDTH 12 0
BBX 13 22 2 -8
BITMAP
FFF8
FFF8
0600
0600
0600
0E00
0C00
0C00
0C00
0C00
1800
1800
1800
1800
0000
0E00
0E00
0E00
0400
0C00
0C00
1800
ENDCHAR
STARTCHAR tcommaaccent
ENCODING 539
SWIDTH 383 0
DWIDTH 8 0
BBX 6 21 3 -8
BITMAP
30
30
FC
FC
60
60
60
60
60
40
C0
F0
70
00
70
70
70
20
60
60
C0
ENDCHAR
STARTCHAR uni021E
ENCODING 542
SWIDTH 735 0
DWIDTH 15 0
BBX 14 18 2 0
BITMAP
0660
02C0
0380
0000
180C
180C
3018
3018
3018
3018
3FF8
7FF0
6030
6030
6030
6030
C060
C060
ENDCHAR
STARTCHAR uni021F
ENCODING 543
SWIDTH 620 0
DWIDTH 12 0
BBX 10 18 2 0
BITMAP
3300
1600
1C00
0000
1800
1800
3000
3380
37C0
3EC0
3CC0
78C0
7080
7180
6180
4180
C180
C380
ENDCHAR
STARTCHAR uni0226
ENCODING 550
SWIDTH 687 0
DWIDTH 14 0
BBX 13 17 0 0
BITMAP
0180
0180
0000
00C0
01E0
01E0
0360
0360
0660
0C70
0C30
1830
1FF0
3FF0
6038
6018
C018
ENDCHAR
STARTCHAR uni0227
ENCODING 551
SWIDTH 608 0
DWIDTH 12 0
BBX 11 14 2 0
BITMAP
0300
0300
0000
07E0
1FE0
3860
30C0
60C0
61C0
C3C0
C7C0
CF80
FD80
7180
ENDCHAR
STARTCHAR uni0228
ENCODING 552
SWIDTH 547 0
DWIDTH 11 0
BBX 11 18 2 -4
BITMAP
1FE0
1FE0
3800
3000
3000
3000
3F80
7F00
6000
6000
6000
6000
FF80
FF80
0800
0400
0C00
1800
ENDCHAR
STARTCHAR uni0229
ENCODING 553
SWIDTH 529 0
DWIDTH 11 0
BBX 9 15 2 -4
BITMAP
0F00
1F80
3180
6100
4300
FC00
F000
C080
C300
7F00
3C00
0800
0400
0C00
1800
ENDCHAR
STARTCHAR uni022A
ENCODING 554
SWIDTH 777 0
DWIDTH 16 0
BBX 14 20 2 0
BITMAP
07E0
07E0
0000
0330
0330
0000
03E0
0FF8
1C3C
381C
700C
600C
E00C
C00C
C018
C038
E070
70E0
7FC0
1F00
ENDCHAR
STARTCHAR uni022B
ENCODING 555
SWIDTH 566 0
DWIDTH 11 0
BBX 10 17 2 0
BITMAP
1F80
1F80
0000
0CC0
0CC0
0000
0F00
1F80
31C0
60C0
60C0
C0C0
C180
C180
C300
7E00
3C00
ENDCHAR
STARTCHAR uni022C
ENCODING 556
SWIDTH 777 0
DWIDTH 16 0
BBX 14 20 2 0
BITMAP
07E0
07E0
0000
01D0
02E0
0000
03E0
0FF8
1C3C
381C
700C
600C
E00C
C00C
C018
C038
E070
70E0
7FC0
1F00
ENDCHAR
STARTCHAR uni022D
ENCODING 557
SWIDTH 566 0
DWIDTH 11 0
BBX 10 17 2 0
BITMAP
1F80
1F80
0000
0740
0B80
0000
0F00
1F80
31C0
60C0
60C0
C0C0
C180
C180
C300
7E00
3C00
ENDCHAR
STARTCHAR uni022E
ENCODING 558
SWIDTH 777 0
DWIDTH 16 0
BBX 14 17 2 0
BITMAP
0180
0180
0000
03E0
0FF8
1C3C
381C
700C
600C
E00C
C00C
C018
C038
E070
70E0
7FC0
1F00
ENDCHAR
STARTCHAR uni022F
ENCODING 559
SWIDTH 566 0
DWIDTH 11 0
BBX 10 14 2 0
BITMAP
0600
0600
0000
0F00
1F80
31C0
60C0
60C0
C0C0
C180
C180
C300
7E00
3C00
ENDCHAR
STARTCHAR uni0230
ENCODING 560
SWIDTH 777 0
DWIDTH 16 0
BBX 14 20 2 0
BITMAP
07E0
07E0
0000
0180
0180
0000
03E0
0FF8
1C3C
381C
700C
600C
E00C
C00C
C018
C038
E070
70E0
7FC0
1F00
ENDCHAR
STARTCHAR uni0231
ENCODING 561
SWIDTH 566 0
DWIDTH 11 0
BBX 10 17 2 0
BITMAP
1F80
1F80
0000
0600
0600
0000
0F00
1F80
31C0
60C0
60C0
C0C0
C180
C180
C300
7E00
3C00
ENDCHAR
STARTCHAR uni0232
ENCODING 562
SWIDTH 608 0
DWIDTH 12 0
BBX 12 17 3 0
BITMAP
1F80
1F80
0000
C070
60E0
60C0
3180
3300
3F00
1E00
1C00
1800
1800
1800
1800
3000
3000
ENDCHAR
STARTCHAR uni0233
ENCODING 563
SWIDTH 548 0
DWIDTH 11 0
BBX 11 18 2 -4
BITMAP
1F80
1F80
0000
6060
60C0
61C0
6180
6380
3300
3600
3E00
3C00
3800
3800
3000
3000
6000
C000
ENDCHAR
STARTCHAR uni0250
ENCODING 592
SWIDTH 608 0
DWIDTH 12 0
BBX 11 11 2 0
BITMAP
31C0
37E0
3E60
7C60
7860
70C0
60C0
6180
C380
FF00
FC00
ENDCHAR
STARTCHAR uni0259
ENCODING 601
SWIDTH 529 0
DWIDTH 11 0
BBX 9 11 2 0
BITMAP
1E00
7F00
6180
8180
0780
1F80
6100
4300
C600
FC00
7800
ENDCHAR
STARTCHAR uni025F
ENCODING 607
SWIDTH 383 0
DWIDTH 8 0
BBX 10 20 1 -9
BITMAP
00C0
00C0
0080
0180
0180
0180
0180
0100
0300
0300
0300
0300
0200
3F80
3F80
0600
0600
0C00
F800
F000
ENDCHAR
STARTCHAR uni0265
ENCODING 613
SWIDTH 620 0
DWIDTH 12 0
BBX 10 14 2 -3
BITMAP
70C0
60C0
6080
6180
6380
4380
C780
CF00
DF00
FB00
7300
0300
0600
0600
ENDCHAR
STARTCHAR uni0275
ENCODING 629
SWIDTH 566 0
DWIDTH 11 0
BBX 10 11 2 0
BITMAP
0F00
1F80
31C0
60C0
FFC0
FFC0
C180
C180
C300
7E00
3C00
ENDCHAR
STARTCHAR uni0279
ENCODING 633
SWIDTH 478 0
DWIDTH 10 0
BBX 9 11 2 0
BITMAP
0180
0180
0180
0300
0300
0700
0F00
1B00
3E00
F600
C600
ENDCHAR
STARTCHAR uni0287
ENCODING 647
SWIDTH 383 0
DWIDTH 8 0
BBX 6 13 3 0
BITMAP
38
3C
0C
08
18
18
18
18
18
FC
FC
30
30
ENDCHAR
STARTCHAR uni0289
ENCODING 649
SWIDTH 620 0
DWIDTH 12 0
BBX 10 11 2 0
BITMAP
70C0
60C0
60C0
6180
FFC0
FFC0
C780
CF80
DD00
FB00
7300
ENDCHAR
STARTCHAR uni028C
ENCODING 652
SWIDTH 545 0
DWIDTH 11 0
BBX 10 11 3 0
BITMAP
0380
0380
0780
0580
0D80
1880
1880
30C0
20C0
60C0
C0C0
ENDCHAR
STARTCHAR uni028D
ENCODING 653
SWIDTH 795 0
DWIDTH 16 0
BBX 15 11 2 0
BITMAP
070C
071C
0F1C
0F34
1B34
1B66
3366
33C6
63C6
6386
C386
ENDCHAR
STARTCHAR uni028E
ENCODING 654
SWIDTH 548 0
DWIDTH 11 0
BBX 11 15 2 0
BITMAP
0060
00C0
0180
0180
0380
0380
0780
0F80
0D80
1980
38C0
30C0
70C0
60C0
C0C0
ENDCHAR
STARTCHAR uni029E
ENCODING 670
SWIDTH 572 0
DWIDTH 12 0
BBX 10 14 2 -3
BITMAP
70C0
30C0
1880
1980
0D80
0780
0D80
1D00
3B00
7300
E300
0300
0600
0600
ENDCHAR
STARTCHAR uni02BB
ENCODING 699
SWIDTH 217 0
DWIDTH 4 0
BBX 4 5 3 9
BITMAP
30
60
40
E0
E0
ENDCHAR
STARTCHAR afii57929
ENCODING 700
SWIDTH 217 0
DWIDTH 4 0
BBX 4 5 3 9
BITMAP
70
70
60
E0
80
ENDCHAR
STARTCHAR afii64937
ENCODING 701
SWIDTH 217 0
DWIDTH 4 0
BBX 4 5 3 9
BITMAP
E0
E0
60
70
10
ENDCHAR
STARTCHAR circumflex
ENCODING 710
SWIDTH 566 0
DWIDTH 11 0
BBX 6 3 5 11
BITMAP
38
68
CC
ENDCHAR
STARTCHAR caron
ENCODING 711
SWIDTH 568 0
DWIDTH 11 0
BBX 6 3 6 11
BITMAP
CC
58
70
ENDCHAR
STARTCHAR uni02C8
ENCODING 712
SWIDTH 217 0
DWIDTH 4 0
BBX 2 4 4 10
BITMAP
C0
C0
C0
C0
ENDCHAR
STARTCHAR macron
ENCODING 713
SWIDTH 566 0
DWIDTH 11 0
BBX 6 2 6 12
BITMAP
FC
FC
ENDCHAR
STARTCHAR uni02CA
ENCODING 714
SWIDTH 566 0
DWIDTH 11 0
BBX 5 3 7 11
BITMAP
38
60
C0
ENDCHAR
STARTCHAR uni02CB
ENCODING 715
SWIDTH 572 0
DWIDTH 11 0
BBX 4 3 6 11
BITMAP
E0
60
30
ENDCHAR
STARTCHAR uni02CD
ENCODING 717
SWIDTH 566 0
DWIDTH 11 0
BBX 6 2 6 -3
BITMAP
FC
FC
ENDCHAR
STARTCHAR uni02CE
ENCODING 718
SWIDTH 572 0
DWIDTH 11 0
BBX 4 3 6 -4
BITMAP
E0
60
30
ENDCHAR
STARTCHAR uni02CF
ENCODING 719
SWIDTH 566 0
DWIDTH 11 0
BBX 5 3 7 -4
BITMAP
38
60
C0
ENDCHAR
STARTCHAR breve
ENCODING 728
SWIDTH 566 0
DWIDTH 11 0
BBX 6 3 6 11
BITMAP
84
C8
70
ENDCHAR
STARTCHAR dotaccent
ENCODING 729
SWIDTH 566 0
DWIDTH 11 0
BBX 2 2 8 12
BITMAP
C0
C0
ENDCHAR
STARTCHAR ring
ENCODING 730
SWIDTH 567 0
DWIDTH 11 0
BBX 3 3 7 13
BITMAP
E0
A0
E0
ENDCHAR
STARTCHAR ogonek
ENCODING 731
SWIDTH 566 0
DWIDTH 11 0
BBX 3 3 4 -4
BITMAP
60
80
E0
ENDCHAR
STARTCHAR tilde
ENCODING 732
SWIDTH 566 0
DWIDTH 11 0
BBX 6 2 6 12
BITMAP
74
B8
ENDCHAR
STARTCHAR hungarumlaut
ENCODING 733
SWIDTH 566 0
DWIDTH 11 0
BBX 7 3 6 11
BITMAP
3E
68
F0
ENDCHAR
STARTCHAR uni02EE
ENCODING 750
SWIDTH 361 0
DWIDTH 7 0
BBX 6 4 3 10
BITMAP
6C
6C
4C
98
ENDCHAR
STARTCHAR uni037E
ENCODING 894
SWIDTH 316 0
DWIDTH 6 0
BBX 5 15 1 -4
BITMAP
18
18
00
00
00
00
00
00
00
60
60
60
40
40
80
ENDCHAR
STARTCHAR tonos
ENCODING 900
SWIDTH 566 0
DWIDTH 11 0
BBX 5 3 7 11
BITMAP
38
60
C0
ENDCHAR
STARTCHAR dieresistonos
ENCODING 901
SWIDTH 566 0
DWIDTH 11 0
BBX 7 6 6 12
BITMAP
0E
18
30
00
CC
CC
ENDCHAR
STARTCHAR anoteleia
ENCODING 903
SWIDTH 316 0
DWIDTH 13 0
BBX 3 2 6 6
BITMAP
E0
E0
ENDCHAR
STARTCHAR mu
ENCODING 956
SWIDTH 627 0
DWIDTH 13 0
BBX 11 15 2 -4
BITMAP
3860
3060
3060
30C0
30C0
21C0
61C0
62C0
6680
7D80
7980
4000
C000
C000
C000
ENDCHAR
STARTCHAR uni1E00
ENCODING 7680
SWIDTH 687 0
DWIDTH 14 0
BBX 13 18 0 -4
BITMAP
00C0
01E0
01E0
0360
0360
0660
0C70
0C30
1830
1FF0
3FF0
6038
6018
C018
0000
0700
0500
0700
ENDCHAR
STARTCHAR uni1E01
ENCODING 7681
SWIDTH 608 0
DWIDTH 12 0
BBX 11 15 2 -4
BITMAP
07E0
1FE0
3860
30C0
60C0
61C0
C3C0
C7C0
CF80
FD80
7180
0000
1C00
1400
1C00
ENDCHAR
STARTCHAR uni1E02
ENCODING 7682
SWIDTH 593 0
DWIDTH 12 0
BBX 11 17 2 0
BITMAP
0600
0600
0000
1F80
1FC0
30C0
30E0
30C0
3180
3F00
7F80
6180
60C0
60C0
6380
FF80
FE00
ENDCHAR
STARTCHAR uni1E03
ENCODING 7683
SWIDTH 608 0
DWIDTH 12 0
BBX 11 17 2 0
BITMAP
0C00
0C00
0000
1800
1800
1000
31C0
37E0
3E60
3C60
7860
70C0
60C0
6180
4380
FF00
FC00
ENDCHAR
STARTCHAR uni1E04
ENCODING 7684
SWIDTH 593 0
DWIDTH 12 0
BBX 11 17 2 -3
BITMAP
1F80
1FC0
30C0
30E0
30C0
3180
3F00
7F80
6180
60C0
60C0
6380
FF80
FE00
0000
0C00
0C00
ENDCHAR
STARTCHAR uni1E05
ENCODING 7685
SWIDTH 608 0
DWIDTH 12 0
BBX 11 17 2 -3
BITMAP
1800
1800
1000
31C0
37E0
3E60
3C60
7860
70C0
60C0
6180
4380
FF00
FC00
0000
0C00
0C00
ENDCHAR
STARTCHAR uni1E06
ENCODING 7686
SWIDTH 593 0
DWIDTH 12 0
BBX 11 17 2 -3
BITMAP
1F80
1FC0
30C0
30E0
30C0
3180
3F00
7F80
6180
60C0
60C0
6380
FF80
FE00
0000
3F00
3F00
ENDCHAR
STARTCHAR uni1E07
ENCODING 7687
SWIDTH 608 0
DWIDTH 12 0
BBX 11 17 2 -3
BITMAP
1800
1800
1000
31C0
37E0
3E60
3C60
7860
70C0
60C0
6180
4380
FF00
FC00
0000
3F00
3F00
ENDCHAR
STARTCHAR uni1E08
ENCODING 7688
SWIDTH 679 0
DWIDTH 14 0
BBX 13 22 2 -4
BITMAP
01C0
0300
0600
0000
03F0
0FF8
1C08
3800
7000
6000
E000
C000
C000
C000
C000
6020
7FE0
1F00
0800
0400
0C00
1800
ENDCHAR
STARTCHAR uni1E09
ENCODING 7689
SWIDTH 503 0
DWIDTH 10 0
BBX 9 19 2 -4
BITMAP
0700
0C00
1800
0000
0F80
1F80
3800
6000
6000
C000
C000
C000
C100
7E00
3C00
1000
0800
1800
3000
ENDCHAR
STARTCHAR uni1E0A
ENCODING 7690
SWIDTH 743 0
DWIDTH 15 0
BBX 14 17 2 0
BITMAP
0180
0180
0000
1FF0
1FF8
383C
301C
300C
300C
300C
601C
6018
6038
6030
40E0
FFC0
FF00
ENDCHAR
STARTCHAR uni1E0B
ENCODING 7691
SWIDTH 608 0
DWIDTH 12 0
BBX 12 17 2 0
BITMAP
0180
0180
0000
0030
0030
0060
07E0
0FE0
1860
30E0
60C0
61C0
C3C0
C7C0
CF80
FD80
7180
ENDCHAR
STARTCHAR uni1E0C
ENCODING 7692
SWIDTH 743 0
DWIDTH 15 0
BBX 14 17 2 -3
BITMAP
1FF0
1FF8
383C
301C
300C
300C
300C
601C
6018
6038
6030
40E0
FFC0
FF00
0000
0600
0600
ENDCHAR
STARTCHAR uni1E0D
ENCODING 7693
SWIDTH 608 0
DWIDTH 12 0
BBX 12 17 2 -3
BITMAP
0030
0030
0060
07E0
0FE0
1860
30E0
60C0
61C0
C3C0
C7C0
CF80
FD80
7180
0000
0C00
0C00
ENDCHAR
STARTCHAR uni1E0E
ENCODING 7694
SWIDTH 743 0
DWIDTH 15 0
BBX 14 17 2 -3
BITMAP
1FF0
1FF8
383C
301C
300C
300C
300C
601C
6018
6038
6030
40E0
FFC0
FF00
0000
1F80
1F80
ENDCHAR
STARTCHAR uni1E0F
ENCODING 7695
SWIDTH 608 0
DWIDTH 12 0
BBX 12 17 2 -3
BITMAP
0030
0030
0060
07E0
0FE0
1860
30E0
60C0
61C0
C3C0
C7C0
CF80
FD80
7180
0000
3F00
3F00
ENDCHAR
STARTCHAR uni1E10
ENCODING 7696
SWIDTH 743 0
DWIDTH 15 0
BBX 14 18 2 -4
BITMAP
1FF0
1FF8
383C
301C
300C
300C
300C
601C
6018
6038
6030
40E0
FFC0
FF00
0400
0200
0600
0C00
ENDCHAR
STARTCHAR uni1E11
ENCODING 7697
SWIDTH 608 0
DWIDTH 12 0
BBX 12 18 2 -4
BITMAP
0030
0030
0060
07E0
0FE0
1860
30E0
60C0
61C0
C3C0
C7C0
CF80
FD80
7780
0400
0200
0600
0C00
ENDCHAR
STARTCHAR uni1E12
ENCODING 7698
SWIDTH 743 0
DWIDTH 15 0
BBX 14 18 2 -4
BITMAP
1FF0
1FF8
383C
301C
300C
300C
300C
601C
6018
6038
6030
40E0
FFC0
FF00
0000
0700
0D00
1980
ENDCHAR
STARTCHAR uni1E13
ENCODING 7699
SWIDTH 608 0
DWIDTH 12 0
BBX 12 18 2 -4
BITMAP
0030
0030
0060
07E0
0FE0
1860
30E0
60C0
61C0
C3C0
C7C0
CF80
FD80
7180
0000
0E00
1A00
3300
ENDCHAR
STARTCHAR uni1E14
ENCODING 7700
SWIDTH 547 0
DWIDTH 11 0
BBX 11 21 2 0
BITMAP
0E00
0600
0300
0000
1F80
1F80
0000
1FE0
1FE0
3800
3000
3000
3000
3F80
7F00
6000
6000
6000
6000
FF80
FF80
ENDCHAR
STARTCHAR uni1E15
ENCODING 7701
SWIDTH 529 0
DWIDTH 11 0
BBX 9 18 2 0
BITMAP
3800
1800
0C00
0000
3F00
3F00
0000
0F00
1F80
3180
6100
4300
FC00
F000
C080
C300
7F00
3C00
ENDCHAR
STARTCHAR uni1E16
ENCODING 7702
SWIDTH 547 0
DWIDTH 11 0
BBX 11 21 2 0
BITMAP
01C0
0300
0600
0000
1F80
1F80
0000
1FE0
1FE0
3800
3000
3000
3000
3F80
7F00
6000
6000
6000
6000
FF80
FF80
ENDCHAR
STARTCHAR uni1E17
ENCODING 7703
SWIDTH 529 0
DWIDTH 11 0
BBX 9 18 2 0
BITMAP
0380
0600
0C00
0000
3F00
3F00
0000
0F00
1F80
3180
6100
4300
FC00
F000
C080
C300
7F00
3C00
ENDCHAR
STARTCHAR uni1E18
ENCODING 7704
SWIDTH 547 0
DWIDTH 11 0
BBX 11 18 2 -4
BITMAP
1FE0
1FE0
3800
3000
3000
3000
3F80
7F00
6000
6000
6000
6000
FF80
FF80
0000
1C00
3400
6600
ENDCHAR
STARTCHAR uni1E19
ENCODING 7705
SWIDTH 529 0
DWIDTH 11 0
BBX 9 15 2 -4
BITMAP
0F00
1F80
3180
6100
4300
FC00
F000
C080
C300
7F00
3C00
0000
1C00
3400
6600
ENDCHAR
STARTCHAR uni1E1A
ENCODING 7706
SWIDTH 547 0
DWIDTH 11 0
BBX 11 17 2 -3
BITMAP
1FE0
1FE0
3800
3000
3000
3000
3F80
7F00
6000
6000
6000
6000
FF80
FF80
0000
3A00
5C00
ENDCHAR
STARTCHAR uni1E1B
ENCODING 7707
SWIDTH 529 0
DWIDTH 11 0
BBX 9 14 2 -3
BITMAP
0F00
1F80
3180
6100
4300
FC00
F000
C080
C300
7F00
3C00
0000
3A00
5C00
ENDCHAR
STARTCHAR uni1E1C
ENCODING 7708
SWIDTH 547 0
DWIDTH 11 0
BBX 11 22 2 -4
BITMAP
1080
1900
0E00
0000
1FE0
1FE0
3800
3000
3000
3000
3F80
7F00
6000
6000
6000
6000
FF80
FF80
0800
0400
0C00
1800
ENDCHAR
STARTCHAR uni1E1D
ENCODING 7709
SWIDTH 529 0
DWIDTH 11 0
BBX 9 19 2 -4
BITMAP
1080
1900
0E00
0000
0F00
1F80
3180
6100
4300
FC00
F000
C080
C300
7F00
3C00
0800
0400
0C00
1800
ENDCHAR
STARTCHAR uni1E1E
ENCODING 7710
SWIDTH 536 0
DWIDTH 11 0
BBX 11 17 2 0
BITMAP
0600
0600
0000
1FE0
1FE0
3800
3000
3000
3000
3F80
7F00
6000
6000
6000
6000
C000
C000
ENDCHAR
STARTCHAR uni1E1F
ENCODING 7711
SWIDTH 383 0
DWIDTH 8 0
BBX 10 23 1 -4
BITMAP
0600
0600
0000
03C0
07C0
0C00
1800
1800
7F00
7F00
1000
3000
3000
3000
3000
2000
6000
6000
6000
6000
4000
C000
C000
ENDCHAR
STARTCHAR uni1E20
ENCODING 7712
SWIDTH 702 0
DWIDTH 14 0
BBX 13 17 2 0
BITMAP
0FC0
0FC0
0000
03F0
0FF8
1C08
3800
7000
6000
E000
C030
C060
C060
E060
7060
7FE0
1F80
ENDCHAR
STARTCHAR uni1E21
ENCODING 7713
SWIDTH 608 0
DWIDTH 12 0
BBX 11 18 1 -4
BITMAP
0FC0
0FC0
0000
07E0
0FE0
1C60
3840
30C0
60C0
61C0
62C0
6680
7D80
3980
0180
8300
FE00
7C00
ENDCHAR
STARTCHAR uni1E22
ENCODING 7714
SWIDTH 735 0
DWIDTH 15 0
BBX 14 17 2 0
BITMAP
0180
0180
0000
180C
180C
3018
3018
3018
3018
3FF8
7FF0
6030
6030
6030
6030
C060
C060
ENDCHAR
STARTCHAR uni1E23
ENCODING 7715
SWIDTH 620 0
DWIDTH 12 0
BBX 10 17 2 0
BITMAP
0C00
0C00
0000
1800
1800
3000
3380
37C0
3EC0
3CC0
78C0
7080
7180
6180
4180
C180
C380
ENDCHAR
STARTCHAR uni1E24
ENCODING 7716
SWIDTH 735 0
DWIDTH 15 0
BBX 14 17 2 -3
BITMAP
180C
180C
3018
3018
3018
3018
3FF8
7FF0
6030
6030
6030
6030
C060
C060
0000
0600
0600
ENDCHAR
STARTCHAR uni1E25
ENCODING 7717
SWIDTH 620 0
DWIDTH 12 0
BBX 10 17 2 -3
BITMAP
1800
1800
3000
3380
37C0
3EC0
3CC0
78C0
7080
7180
6180
4180
C180
C380
0000
0C00
0C00
ENDCHAR
STARTCHAR uni1E26
ENCODING 7718
SWIDTH 735 0
DWIDTH 15 0
BBX 14 17 2 0
BITMAP
0660
0660
0000
180C
180C
3018
3018
3018
3018
3FF8
7FF0
6030
6030
6030
6030
C060
C060
ENDCHAR
STARTCHAR uni1E27
ENCODING 7719
SWIDTH 620 0
DWIDTH 12 0
BBX 10 17 2 0
BITMAP
3300
3300
0000
1800
1800
3000
3380
37C0
3EC0
3CC0
78C0
7080
7180
6180
4180
C180
C380
ENDCHAR
STARTCHAR uni1E28
ENCODING 7720
SWIDTH 735 0
DWIDTH 15 0
BBX 14 18 2 -4
BITMAP
180C
180C
3018
3018
3018
3018
3FF8
7FF0
6030
6030
6030
6030
C060
C360
0200
0100
0300
0600
ENDCHAR
STARTCHAR uni1E29
ENCODING 7721
SWIDTH 620 0
DWIDTH 12 0
BBX 10 18 2 -4
BITMAP
1800
1800
3000
3380
37C0
3EC0
3CC0
78C0
7080
7180
6180
4180
C180
CF80
0800
0400
0C00
1800
ENDCHAR
STARTCHAR uni1E2A
ENCODING 7722
SWIDTH 735 0
DWIDTH 15 0
BBX 14 18 2 -4
BITMAP
180C
180C
3018
3018
3018
3018
3FF8
7FF0
6030
6030
6030
6030
C060
C060
0000
1080
1900
0E00
ENDCHAR
STARTCHAR uni1E2B
ENCODING 7723
SWIDTH 620 0
DWIDTH 12 0
BBX 10 18 2 -4
BITMAP
1800
1800
3000
3380
37C0
3EC0
3CC0
78C0
7080
7180
6180
4180
C180
C380
0000
2100
3200
1C00
ENDCHAR
STARTCHAR uni1E2C
ENCODING 7724
SWIDTH 289 0
DWIDTH 6 0
BBX 6 17 1 -3
BITMAP
0C
0C
18
18
18
18
18
30
30
30
30
30
60
60
00
74
B8
ENDCHAR
STARTCHAR uni1E2D
ENCODING 7725
SWIDTH 289 0
DWIDTH 6 0
BBX 6 17 1 -3
BITMAP
0C
0C
00
18
18
18
30
30
30
30
30
60
60
60
00
74
B8
ENDCHAR
STARTCHAR uni1E2E
ENCODING 7726
SWIDTH 289 0
DWIDTH 6 0
BBX 7 21 2 0
BITMAP
0E
18
30
00
66
66
00
18
18
30
30
30
30
30
60
60
60
60
60
C0
C0
ENDCHAR
STARTCHAR uni1E2F
ENCODING 7727
SWIDTH 289 0
DWIDTH 6 0
BBX 7 18 2 0
BITMAP
0E
18
30
00
66
66
00
30
30
30
60
60
60
60
60
C0
C0
C0
ENDCHAR
STARTCHAR uni1E30
ENCODING 7728
SWIDTH 635 0
DWIDTH 13 0
BBX 13 18 2 0
BITMAP
01C0
0300
0600
0000
1838
1860
38C0
3180
3300
3600
3C00
6E00
6600
6700
6380
6180
C0C0
C0E0
ENDCHAR
STARTCHAR uni1E31
ENCODING 7729
SWIDTH 572 0
DWIDTH 12 0
BBX 10 18 2 0
BITMAP
0700
0C00
1800
0000
1800
1800
3000
31C0
3380
3700
2E00
6C00
7800
6C00
6600
4600
C300
C380
ENDCHAR
STARTCHAR uni1E32
ENCODING 7730
SWIDTH 635 0
DWIDTH 13 0
BBX 13 17 2 -3
BITMAP
1838
1860
38C0
3180
3300
3600
3C00
6E00
6600
6700
6380
6180
C0C0
C0E0
0000
0600
0600
ENDCHAR
STARTCHAR uni1E33
ENCODING 7731
SWIDTH 572 0
DWIDTH 12 0
BBX 10 17 2 -3
BITMAP
1800
1800
3000
31C0
3380
3700
2E00
6C00
7800
6C00
6600
4600
C300
C380
0000
0C00
0C00
ENDCHAR
STARTCHAR uni1E34
ENCODING 7732
SWIDTH 635 0
DWIDTH 13 0
BBX 13 17 2 -3
BITMAP
1838
1860
38C0
3180
3300
3600
3C00
6E00
6600
6700
6380
6180
C0C0
C0E0
0000
1F80
1F80
ENDCHAR
STARTCHAR uni1E35
ENCODING 7733
SWIDTH 572 0
DWIDTH 12 0
BBX 10 17 2 -3
BITMAP
1800
1800
3000
31C0
3380
3700
2E00
6C00
7800
6C00
6600
4600
C300
C380
0000
3F00
3F00
ENDCHAR
STARTCHAR uni1E36
ENCODING 7734
SWIDTH 545 0
DWIDTH 11 0
BBX 9 17 2 -3
BITMAP
1800
1800
3000
3000
3000
3000
2000
6000
6000
6000
6000
4000
FF80
FF80
0000
1800
1800
ENDCHAR
STARTCHAR uni1E37
ENCODING 7735
SWIDTH 289 0
DWIDTH 6 0
BBX 5 17 2 -3
BITMAP
18
18
10
30
30
30
30
60
60
60
60
40
C0
C0
00
60
60
ENDCHAR
STARTCHAR uni1E38
ENCODING 7736
SWIDTH 545 0
DWIDTH 11 0
BBX 9 20 2 -3
BITMAP
7E00
7E00
0000
1800
1800
3000
3000
3000
3000
2000
6000
6000
6000
6000
4000
FF80
FF80
0000
1800
1800
ENDCHAR
STARTCHAR uni1E39
ENCODING 7737
SWIDTH 289 0
DWIDTH 6 0
BBX 6 20 2 -3
BITMAP
FC
FC
00
18
18
10
30
30
30
30
60
60
60
60
40
C0
C0
00
60
60
ENDCHAR
STARTCHAR uni1E3A
ENCODING 7738
SWIDTH 545 0
DWIDTH 11 0
BBX 9 17 2 -3
BITMAP
1800
1800
3000
3000
3000
3000
2000
6000
6000
6000
6000
4000
FF80
FF80
0000
7E00
7E00
ENDCHAR
STARTCHAR uni1E3B
ENCODING 7739
SWIDTH 289 0
DWIDTH 6 0
BBX 6 17 1 -3
BITMAP
0C
0C
08
18
18
18
18
30
30
30
30
20
60
60
00
FC
FC
ENDCHAR
STARTCHAR uni1E3C
ENCODING 7740
SWIDTH 545 0
DWIDTH 11 0
BBX 9 18 2 -4
BITMAP
1800
1800
3000
3000
3000
3000
2000
6000
6000
6000
6000
4000
FF80
FF80
0000
1C00
3400
6600
ENDCHAR
STARTCHAR uni1E3D
ENCODING 7741
SWIDTH 289 0
DWIDTH 6 0
BBX 7 18 0 -4
BITMAP
06
06
04
0C
0C
0C
0C
18
18
18
18
10
30
30
00
38
68
CC
ENDCHAR
STARTCHAR uni1E3E
ENCODING 7742
SWIDTH 828 0
DWIDTH 17 0
BBX 16 18 2 0
BITMAP
0070
00C0
0180
0000
1C07
1C0F
3C0E
3C1E
3416
3636
2666
6664
66CC
668C
478C
430C
C318
C018
ENDCHAR
STARTCHAR uni1E3F
ENCODING 7743
SWIDTH 934 0
DWIDTH 19 0
BBX 17 15 2 0
BITMAP
003800
006000
00C000
000000
31C700
37CF80
3EDD80
7CF980
78F180
70E300
70C300
61C300
E18300
C18300
C18600
ENDCHAR
STARTCHAR uni1E40
ENCODING 7744
SWIDTH 828 0
DWIDTH 17 0
BBX 16 17 2 0
BITMAP
00C0
00C0
0000
1C07
1C0F
3C0E
3C1E
3416
3636
2666
6664
66CC
668C
478C
430C
C318
C018
ENDCHAR
STARTCHAR uni1E41
ENCODING 7745
SWIDTH 934 0
DWIDTH 19 0
BBX 17 14 2 0
BITMAP
00C000
00C000
000000
31C700
37CF80
3EDD80
7CF980
78F180
70E300
70C300
61C300
E18300
C18300
C18600
ENDCHAR
STARTCHAR uni1E42
ENCODING 7746
SWIDTH 828 0
DWIDTH 17 0
BBX 16 17 2 -3
BITMAP
1C07
1C0F
3C0E
3C1E
3416
3636
2666
6664
66CC
668C
478C
430C
C318
C018
0000
0180
0180
ENDCHAR
STARTCHAR uni1E43
ENCODING 7747
SWIDTH 934 0
DWIDTH 19 0
BBX 17 14 2 -3
BITMAP
31C700
37CF80
3EDD80
7CF980
78F180
70E300
70C300
61C300
E18300
C18300
C18600
000000
018000
018000
ENDCHAR
STARTCHAR uni1E44
ENCODING 7748
SWIDTH 741 0
DWIDTH 15 0
BBX 14 17 2 0
BITMAP
0300
0300
0000
180C
1C0C
3C08
3C08
3618
3618
2318
6310
61B0
61B0
40F0
40F0
C0E0
C060
ENDCHAR
STARTCHAR uni1E45
ENCODING 7749
SWIDTH 620 0
DWIDTH 12 0
BBX 10 14 2 0
BITMAP
0600
0600
0000
3380
37C0
2EC0
7CC0
78C0
7080
7180
6180
C180
C180
C380
ENDCHAR
STARTCHAR uni1E46
ENCODING 7750
SWIDTH 741 0
DWIDTH 15 0
BBX 14 17 2 -3
BITMAP
180C
1C0C
3C08
3C08
3618
3618
2318
6310
61B0
61B0
40F0
40F0
C0E0
C060
0000
0300
0300
ENDCHAR
STARTCHAR uni1E47
ENCODING 7751
SWIDTH 620 0
DWIDTH 12 0
BBX 10 14 2 -3
BITMAP
3380
37C0
2EC0
7CC0
78C0
7080
7180
6180
C180
C180
C380
0000
0C00
0C00
ENDCHAR
STARTCHAR uni1E48
ENCODING 7752
SWIDTH 741 0
DWIDTH 15 0
BBX 14 17 2 -3
BITMAP
180C
1C0C
3C08
3C08
3618
3618
2318
6310
61B0
61B0
40F0
40F0
C0E0
C060
0000
0FC0
0FC0
ENDCHAR
STARTCHAR uni1E49
ENCODING 7753
SWIDTH 620 0
DWIDTH 12 0
BBX 10 14 2 -3
BITMAP
3380
37C0
2EC0
7CC0
78C0
7080
7180
6180
C180
C180
C380
0000
3F00
3F00
ENDCHAR
STARTCHAR uni1E4A
ENCODING 7754
SWIDTH 741 0
DWIDTH 15 0
BBX 14 18 2 -4
BITMAP
180C
1C0C
3C08
3C08
3618
3618
2318
6310
61B0
61B0
40F0
40F0
C0E0
C060
0000
0380
0680
0CC0
ENDCHAR
STARTCHAR uni1E4B
ENCODING 7755
SWIDTH 620 0
DWIDTH 12 0
BBX 10 15 2 -4
BITMAP
3380
37C0
2EC0
7CC0
78C0
7080
7180
6180
C180
C180
C380
0000
1C00
3400
6600
ENDCHAR
STARTCHAR uni1E4C
ENCODING 7756
SWIDTH 777 0
DWIDTH 16 0
BBX 14 21 2 0
BITMAP
0070
00C0
0180
0000
01D0
02E0
0000
03E0
0FF8
1C3C
381C
700C
600C
E00C
C00C
C018
C038
E070
70E0
7FC0
1F00
ENDCHAR
STARTCHAR uni1E4D
ENCODING 7757
SWIDTH 566 0
DWIDTH 11 0
BBX 10 18 2 0
BITMAP
01C0
0300
0600
0000
0740
0B80
0000
0F00
1F80
31C0
60C0
60C0
C0C0
C180
C180
C300
7E00
3C00
ENDCHAR
STARTCHAR uni1E4E
ENCODING 7758
SWIDTH 777 0
DWIDTH 16 0
BBX 14 20 2 0
BITMAP
0660
0660
0000
01D0
02E0
0000
03E0
0FF8
1C3C
381C
700C
600C
E00C
C00C
C018
C038
E070
70E0
7FC0
1F00
ENDCHAR
STARTCHAR uni1E4F
ENCODING 7759
SWIDTH 566 0
DWIDTH 11 0
BBX 10 17 2 0
BITMAP
1980
1980
0000
0740
0B80
0000
0F00
1F80
31C0
60C0
60C0
C0C0
C180
C180
C300
7E00
3C00
ENDCHAR
STARTCHAR uni1E50
ENCODING 7760
SWIDTH 777 0
DWIDTH 16 0
BBX 14 21 2 0
BITMAP
0700
0300
0180
0000
07E0
07E0
0000
03E0
0FF8
1C3C
381C
700C
600C
E00C
C00C
C018
C038
E070
70E0
7FC0
1F00
ENDCHAR
STARTCHAR uni1E51
ENCODING 7761
SWIDTH 566 0
DWIDTH 11 0
BBX 10 18 2 0
BITMAP
1C00
0C00
0600
0000
1F80
1F80
0000
0F00
1F80
31C0
60C0
60C0
C0C0
C180
C180
C300
7E00
3C00
ENDCHAR
STARTCHAR uni1E52
ENCODING 7762
SWIDTH 777 0
DWIDTH 16 0
BBX 14 21 2 0
BITMAP
00E0
0180
0300
0000
07E0
07E0
0000
03E0
0FF8
1C3C
381C
700C
600C
E00C
C00C
C018
C038
E070
70E0
7FC0
1F00
ENDCHAR
STARTCHAR uni1E53
ENCODING 7763
SWIDTH 566 0
DWIDTH 11 0
BBX 10 18 2 0
BITMAP
0380
0600
0C00
0000
1F80
1F80
0000
0F00
1F80
31C0
60C0
60C0
C0C0
C180
C180
C300
7E00
3C00
ENDCHAR
STARTCHAR uni1E54
ENCODING 7764
SWIDTH 575 0
DWIDTH 12 0
BBX 11 18 2 0
BITMAP
01C0
0300
0600
0000
1FC0
1FE0
3860
3060
3060
30C0
31C0
7F80
7E00
6000
6000
6000
C000
C000
ENDCHAR
STARTCHAR uni1E55
ENCODING 7765
SWIDTH 608 0
DWIDTH 12 0
BBX 11 19 1 -4
BITMAP
01C0
0300
0600
0000
19C0
37E0
3E60
3C60
3860
38C0
30C0
6180
6380
7F00
7C00
6000
C000
C000
C000
ENDCHAR
STARTCHAR uni1E56
ENCODING 7766
SWIDTH 575 0
DWIDTH 12 0
BBX 11 17 2 0
BITMAP
0600
0600
0000
1FC0
1FE0
3860
3060
3060
30C0
31C0
7F80
7E00
6000
6000
6000
C000
C000
ENDCHAR
STARTCHAR uni1E57
ENCODING 7767
SWIDTH 608 0
DWIDTH 12 0
BBX 11 18 1 -4
BITMAP
0600
0600
0000
19C0
37E0
3E60
3C60
3860
38C0
30C0
6180
6380
7F00
7C00
6000
C000
C000
C000
ENDCHAR
STARTCHAR uni1E58
ENCODING 7768
SWIDTH 632 0
DWIDTH 13 0
BBX 11 17 2 0
BITMAP
0600
0600
0000
1FC0
1FE0
30E0
3060
3060
30C0
3180
7E00
7F00
6300
6380
6180
C0C0
C0C0
ENDCHAR
STARTCHAR uni1E59
ENCODING 7769
SWIDTH 478 0
DWIDTH 10 0
BBX 9 14 2 0
BITMAP
0C00
0C00
0000
3180
3780
3E00
6C00
7800
7000
6000
6000
C000
C000
C000
ENDCHAR
STARTCHAR uni1E5A
ENCODING 7770
SWIDTH 632 0
DWIDTH 13 0
BBX 11 17 2 -3
BITMAP
1FC0
1FE0
30E0
3060
3060
30C0
3180
7E00
7F00
6300
6380
6180
C0C0
C0C0
0000
0C00
0C00
ENDCHAR
STARTCHAR uni1E5B
ENCODING 7771
SWIDTH 478 0
DWIDTH 10 0
BBX 9 14 2 -3
BITMAP
3180
3780
3E00
6C00
7800
7000
6000
6000
C000
C000
C000
0000
6000
6000
ENDCHAR
STARTCHAR uni1E5C
ENCODING 7772
SWIDTH 632 0
DWIDTH 13 0
BBX 11 20 2 -3
BITMAP
1F80
1F80
0000
1FC0
1FE0
30E0
3060
3060
30C0
3180
7E00
7F00
6300
6380
6180
C0C0
C0C0
0000
0C00
0C00
ENDCHAR
STARTCHAR uni1E5D
ENCODING 7773
SWIDTH 478 0
DWIDTH 10 0
BBX 9 17 2 -3
BITMAP
3F00
3F00
0000
3180
3780
3E00
6C00
7800
7000
6000
6000
C000
C000
C000
0000
6000
6000
ENDCHAR
STARTCHAR uni1E5E
ENCODING 7774
SWIDTH 632 0
DWIDTH 13 0
BBX 11 17 2 -3
BITMAP
1FC0
1FE0
30E0
3060
3060
30C0
3180
7E00
7F00
6300
6380
6180
C0C0
C0C0
0000
3F00
3F00
ENDCHAR
STARTCHAR uni1E5F
ENCODING 7775
SWIDTH 478 0
DWIDTH 10 0
BBX 10 14 1 -3
BITMAP
18C0
1BC0
1F00
3600
3C00
3800
3000
3000
6000
6000
6000
0000
FC00
FC00
ENDCHAR
STARTCHAR uni1E60
ENCODING 7776
SWIDTH 553 0
DWIDTH 11 0
BBX 11 17 1 0
BITMAP
0600
0600
0000
07C0
1FE0
1820
3000
3800
1C00
0E00
0700
0380
0180
0180
8380
FF00
7E00
ENDCHAR
STARTCHAR uni1E61
ENCODING 7777
SWIDTH 489 0
DWIDTH 10 0
BBX 8 14 2 0
BITMAP
0C
0C
00
1E
3F
31
30
38
1C
0E
06
86
FE
7C
ENDCHAR
STARTCHAR uni1E62
ENCODING 7778
SWIDTH 553 0
DWIDTH 11 0
BBX 11 17 1 -3
BITMAP
07C0
1FE0
1820
3000
3800
1C00
0E00
0700
0380
0180
0180
8380
FF00
7E00
0000
0C00
0C00
ENDCHAR
STARTCHAR uni1E63
ENCODING 7779
SWIDTH 489 0
DWIDTH 10 0
BBX 8 14 2 -3
BITMAP
1E
3F
31
30
38
1C
0E
06
86
FE
7C
00
18
18
ENDCHAR
STARTCHAR uni1E64
ENCODING 7780
SWIDTH 553 0
DWIDTH 11 0
BBX 11 21 1 0
BITMAP
0300
0300
0000
01C0
0300
0600
0000
07C0
1FE0
1820
3000
3800
1C00
0E00
0700
0380
0180
0180
8380
FF00
7E00
ENDCHAR
STARTCHAR uni1E65
ENCODING 7781
SWIDTH 489 0
DWIDTH 10 0
BBX 8 18 2 0
BITMAP
0C
0C
00
07
0C
18
00
1E
3F
31
30
38
1C
0E
06
86
FE
7C
ENDCHAR
STARTCHAR uni1E66
ENCODING 7782
SWIDTH 553 0
DWIDTH 11 0
BBX 11 21 1 0
BITMAP
0300
0300
0000
0660
02C0
0380
0000
07C0
1FE0
1820
3000
3800
1C00
0E00
0700
0380
0180
0180
8380
FF00
7E00
ENDCHAR
STARTCHAR uni1E67
ENCODING 7783
SWIDTH 489 0
DWIDTH 10 0
BBX 10 18 2 0
BITMAP
0600
0600
0000
0CC0
0580
0700
0000
1E00
3F00
3100
3000
3800
1C00
0E00
0600
8600
FE00
7C00
ENDCHAR
STARTCHAR uni1E68
ENCODING 7784
SWIDTH 553 0
DWIDTH 11 0
BBX 11 20 1 -3
BITMAP
0600
0600
0000
07C0
1FE0
1820
3000
3800
1C00
0E00
0700
0380
0180
0180
8380
FF00
7E00
0000
0C00
0C00
ENDCHAR
STARTCHAR uni1E69
ENCODING 7785
SWIDTH 489 0
DWIDTH 10 0
BBX 8 17 2 -3
BITMAP
18
18
00
1E
3F
31
30
38
1C
0E
06
86
FE
7C
00
18
18
ENDCHAR
STARTCHAR uni1E6A
ENCODING 7786
SWIDTH 623 0
DWIDTH 12 0
BBX 13 17 2 0
BITMAP
0600
0600
0000
FFF8
FFF8
0600
0600
0600
0E00
0C00
0C00
0C00
0C00
1800
1800
1800
1800
ENDCHAR
STARTCHAR uni1E6B
ENCODING 7787
SWIDTH 383 0
DWIDTH 8 0
BBX 6 16 3 0
BITMAP
30
30
00
30
30
FC
FC
60
60
60
60
60
40
C0
F0
70
ENDCHAR
STARTCHAR uni1E6C
ENCODING 7788
SWIDTH 623 0
DWIDTH 12 0
BBX 13 17 2 -3
BITMAP
FFF8
FFF8
0600
0600
0600
0E00
0C00
0C00
0C00
0C00
1800
1800
1800
1800
0000
0C00
0C00
ENDCHAR
STARTCHAR uni1E6D
ENCODING 7789
SWIDTH 383 0
DWIDTH 8 0
BBX 6 16 3 -3
BITMAP
30
30
FC
FC
60
60
60
60
60
40
C0
F0
70
00
60
60
ENDCHAR
STARTCHAR uni1E6E
ENCODING 7790
SWIDTH 623 0
DWIDTH 12 0
BBX 13 17 2 -3
BITMAP
FFF8
FFF8
0600
0600
0600
0E00
0C00
0C00
0C00
0C00
1800
1800
1800
1800
0000
3F00
3F00
ENDCHAR
STARTCHAR uni1E6F
ENCODING 7791
SWIDTH 383 0
DWIDTH 8 0
BBX 7 16 2 -3
BITMAP
18
18
7E
7E
30
30
30
30
30
20
60
78
38
00
FC
FC
ENDCHAR
STARTCHAR uni1E70
ENCODING 7792
SWIDTH 623 0
DWIDTH 12 0
BBX 13 18 2 -4
BITMAP
FFF8
FFF8
0600
0600
0600
0E00
0C00
0C00
0C00
0C00
1800
1800
1800
1800
0000
0E00
1A00
3300
ENDCHAR
STARTCHAR uni1E71
ENCODING 7793
SWIDTH 383 0
DWIDTH 8 0
BBX 7 17 2 -4
BITMAP
18
18
7E
7E
30
30
30
30
30
20
60
78
38
00
38
68
CC
ENDCHAR
STARTCHAR uni1E72
ENCODING 7794
SWIDTH 693 0
DWIDTH 14 0
BBX 12 17 3 -3
BITMAP
3030
3030
7030
6060
6060
6060
6060
C060
C0C0
C0C0
C0C0
E180
FF80
7E00
0000
3300
3300
ENDCHAR
STARTCHAR uni1E73
ENCODING 7795
SWIDTH 620 0
DWIDTH 12 0
BBX 10 14 2 -3
BITMAP
70C0
60C0
60C0
6180
6380
C380
C780
CF80
DD00
FB00
7300
0000
6600
6600
ENDCHAR
STARTCHAR uni1E74
ENCODING 7796
SWIDTH 693 0
DWIDTH 14 0
BBX 12 17 3 -3
BITMAP
3030
3030
7030
6060
6060
6060
6060
C060
C0C0
C0C0
C0C0
E180
FF80
7E00
0000
1D00
2E00
ENDCHAR
STARTCHAR uni1E75
ENCODING 7797
SWIDTH 620 0
DWIDTH 12 0
BBX 10 14 2 -3
BITMAP
70C0
60C0
60C0
6180
6380
C380
C780
CF80
DD00
FB00
7300
0000
3A00
5C00
ENDCHAR
STARTCHAR uni1E76
ENCODING 7798
SWIDTH 693 0
DWIDTH 14 0
BBX 12 18 3 -4
BITMAP
3030
3030
7030
6060
6060
6060
6060
C060
C0C0
C0C0
C0C0
E180
FF80
7E00
0000
0E00
1A00
3300
ENDCHAR
STARTCHAR uni1E77
ENCODING 7799
SWIDTH 620 0
DWIDTH 12 0
BBX 10 15 2 -4
BITMAP
70C0
60C0
60C0
6180
6380
C380
C780
CF80
DD00
FB00
7300
0000
1C00
3400
6600
ENDCHAR
STARTCHAR uni1E78
ENCODING 7800
SWIDTH 693 0
DWIDTH 14 0
BBX 12 21 3 0
BITMAP
01C0
0300
0600
0000
0E80
1700
0000
3030
3030
7030
6060
6060
6060
6060
C060
C0C0
C0C0
C0C0
E180
FF80
7E00
ENDCHAR
STARTCHAR uni1E79
ENCODING 7801
SWIDTH 620 0
DWIDTH 12 0
BBX 10 18 2 0
BITMAP
0380
0600
0C00
0000
1D00
2E00
0000
70C0
60C0
60C0
6180
6380
C380
C780
CF80
DD00
FB00
7300
ENDCHAR
STARTCHAR uni1E7A
ENCODING 7802
SWIDTH 693 0
DWIDTH 14 0
BBX 12 20 3 0
BITMAP
1980
1980
0000
1F80
1F80
0000
3030
3030
7030
6060
6060
6060
6060
C060
C0C0
C0C0
C0C0
E180
FF80
7E00
ENDCHAR
STARTCHAR uni1E7B
ENCODING 7803
SWIDTH 620 0
DWIDTH 12 0
BBX 10 17 2 0
BITMAP
3300
3300
0000
3F00
3F00
0000
70C0
60C0
60C0
6180
6380
C380
C780
CF80
DD00
FB00
7300
ENDCHAR
STARTCHAR uni1E7C
ENCODING 7804
SWIDTH 687 0
DWIDTH 14 0
BBX 13 17 3 0
BITMAP
0E80
1700
0000
C018
C030
E030
6060
60C0
60C0
6180
7180
3300
3600
3600
3C00
3C00
1800
ENDCHAR
STARTCHAR uni1E7D
ENCODING 7805
SWIDTH 545 0
DWIDTH 11 0
BBX 10 14 3 0
BITMAP
1D00
2E00
0000
C0C0
C180
C100
C300
4600
4600
6C00
6800
7800
7000
7000
ENDCHAR
STARTCHAR uni1E7E
ENCODING 7806
SWIDTH 687 0
DWIDTH 14 0
BBX 13 17 3 -3
BITMAP
C018
C030
E030
6060
60C0
60C0
6180
7180
3300
3600
3600
3C00
3C00
1800
0000
0C00
0C00
ENDCHAR
STARTCHAR uni1E7F
ENCODING 7807
SWIDTH 545 0
DWIDTH 11 0
BBX 10 14 3 -3
BITMAP
C0C0
C180
C100
C300
4600
4600
6C00
6800
7800
7000
7000
0000
3000
3000
ENDCHAR
STARTCHAR Wgrave
ENCODING 7808
SWIDTH 886 0
DWIDTH 18 0
BBX 17 18 3 0
BITMAP
038000
018000
00C000
000000
C1C180
C1C300
C3C300
C3C600
C2C600
C6CC00
C4CC00
CCD800
C8D800
58F000
50F000
70E000
70E000
60C000
ENDCHAR
STARTCHAR wgrave
ENCODING 7809
SWIDTH 795 0
DWIDTH 16 0
BBX 15 15 2 0
BITMAP
0700
0300
0180
0000
C386
C38C
C78C
C798
CD98
CDB0
59B0
59E0
71E0
71C0
61C0
ENDCHAR
STARTCHAR Wacute
ENCODING 7810
SWIDTH 886 0
DWIDTH 18 0
BBX 17 18 3 0
BITMAP
007000
00C000
018000
000000
C1C180
C1C300
C3C300
C3C600
C2C600
C6CC00
C4CC00
CCD800
C8D800
58F000
50F000
70E000
70E000
60C000
ENDCHAR
STARTCHAR wacute
ENCODING 7811
SWIDTH 795 0
DWIDTH 16 0
BBX 15 15 2 0
BITMAP
00E0
0180
0300
0000
C386
C38C
C78C
C798
CD98
CDB0
59B0
59E0
71E0
71C0
61C0
ENDCHAR
STARTCHAR Wdieresis
ENCODING 7812
SWIDTH 886 0
DWIDTH 18 0
BBX 17 17 3 0
BITMAP
066000
066000
000000
C1C180
C1C300
C3C300
C3C600
C2C600
C6CC00
C4CC00
CCD800
C8D800
58F000
50F000
70E000
70E000
60C000
ENDCHAR
STARTCHAR wdieresis
ENCODING 7813
SWIDTH 795 0
DWIDTH 16 0
BBX 15 14 2 0
BITMAP
0CC0
0CC0
0000
C386
C38C
C78C
C798
CD98
CDB0
59B0
59E0
71E0
71C0
61C0
ENDCHAR
STARTCHAR uni1E86
ENCODING 7814
SWIDTH 886 0
DWIDTH 18 0
BBX 17 17 3 0
BITMAP
018000
018000
000000
C1C180
C1C300
C3C300
C3C600
C2C600
C6CC00
C4CC00
CCD800
C8D800
58F000
50F000
70E000
70E000
60C000
ENDCHAR
STARTCHAR uni1E87
ENCODING 7815
SWIDTH 795 0
DWIDTH 16 0
BBX 15 14 2 0
BITMAP
0300
0300
0000
C386
C38C
C78C
C798
CD98
CDB0
59B0
59E0
71E0
71C0
61C0
ENDCHAR
STARTCHAR uni1E88
ENCODING 7816
SWIDTH 886 0
DWIDTH 18 0
BBX 17 17 3 -3
BITMAP
C1C180
C1C300
C3C300
C3C600
C2C600
C6CC00
C4CC00
CCD800
C8D800
58F000
50F000
70E000
70E000
60C000
000000
030000
030000
ENDCHAR
STARTCHAR uni1E89
ENCODING 7817
SWIDTH 795 0
DWIDTH 16 0
BBX 15 14 2 -3
BITMAP
C386
C38C
C78C
C798
CD98
CDB0
59B0
59E0
71E0
71C0
61C0
0000
0600
0600
ENDCHAR
STARTCHAR uni1E8A
ENCODING 7818
SWIDTH 620 0
DWIDTH 12 0
BBX 15 17 0 0
BITMAP
00C0
00C0
0000
1C0E
0C1C
0638
0630
0360
03C0
0180
0380
07C0
0CC0
1860
3860
7030
E038
ENDCHAR
STARTCHAR uni1E8B
ENCODING 7819
SWIDTH 541 0
DWIDTH 11 0
BBX 12 14 0 0
BITMAP
0300
0300
0000
1830
1860
0CC0
0D80
0700
0600
0F00
1B00
3180
6180
C0C0
ENDCHAR
STARTCHAR uni1E8C
ENCODING 7820
SWIDTH 620 0
DWIDTH 12 0
BBX 15 17 0 0
BITMAP
0330
0330
0000
1C0E
0C1C
0638
0630
0360
03C0
0180
0380
07C0
0CC0
1860
3860
7030
E038
ENDCHAR
STARTCHAR uni1E8D
ENCODING 7821
SWIDTH 541 0
DWIDTH 11 0
BBX 12 14 0 0
BITMAP
0CC0
0CC0
0000
1830
1860
0CC0
0D80
0700
0600
0F00
1B00
3180
6180
C0C0
ENDCHAR
STARTCHAR uni1E8E
ENCODING 7822
SWIDTH 608 0
DWIDTH 12 0
BBX 12 17 3 0
BITMAP
0600
0600
0000
C070
60E0
60C0
3180
3300
3F00
1E00
1C00
1800
1800
1800
1800
3000
3000
ENDCHAR
STARTCHAR uni1E8F
ENCODING 7823
SWIDTH 548 0
DWIDTH 11 0
BBX 11 18 2 -4
BITMAP
0600
0600
0000
6060
60C0
61C0
6180
6380
3300
3600
3E00
3C00
3800
3800
3000
3000
6000
C000
ENDCHAR
STARTCHAR uni1E90
ENCODING 7824
SWIDTH 578 0
DWIDTH 12 0
BBX 13 18 1 0
BITMAP
01C0
0340
0660
0000
1FF8
1FF8
0070
00E0
00C0
0180
0300
0600
0C00
1800
3800
7000
FFE0
FFC0
ENDCHAR
STARTCHAR uni1E91
ENCODING 7825
SWIDTH 536 0
DWIDTH 11 0
BBX 10 15 1 0
BITMAP
0700
0D00
1980
0000
3FC0
3FC0
0180
0300
0600
0C00
1800
3000
6000
FF80
FF80
ENDCHAR
STARTCHAR uni1E92
ENCODING 7826
SWIDTH 578 0
DWIDTH 12 0
BBX 13 17 1 -3
BITMAP
1FF8
1FF8
0070
00E0
00C0
0180
0300
0600
0C00
1800
3800
7000
FFE0
FFC0
0000
0C00
0C00
ENDCHAR
STARTCHAR uni1E93
ENCODING 7827
SWIDTH 536 0
DWIDTH 11 0
BBX 10 14 1 -3
BITMAP
3FC0
3FC0
0180
0300
0600
0C00
1800
3000
6000
FF80
FF80
0000
0C00
0C00
ENDCHAR
STARTCHAR uni1E94
ENCODING 7828
SWIDTH 578 0
DWIDTH 12 0
BBX 13 17 1 -3
BITMAP
1FF8
1FF8
0070
00E0
00C0
0180
0300
0600
0C00
1800
3800
7000
FFE0
FFC0
0000
3F00
3F00
ENDCHAR
STARTCHAR uni1E95
ENCODING 7829
SWIDTH 536 0
DWIDTH 11 0
BBX 10 14 1 -3
BITMAP
3FC0
3FC0
0180
0300
0600
0C00
1800
3000
6000
FF80
FF80
0000
3F00
3F00
ENDCHAR
STARTCHAR uni1E96
ENCODING 7830
SWIDTH 620 0
DWIDTH 12 0
BBX 10 17 2 -3
BITMAP
1800
1800
3000
3380
37C0
3EC0
3CC0
78C0
7080
7180
6180
4180
C180
C380
0000
3F00
3F00
ENDCHAR
STARTCHAR uni1E97
ENCODING 7831
SWIDTH 383 0
DWIDTH 8 0
BBX 6 16 3 0
BITMAP
CC
CC
00
30
30
FC
FC
60
60
60
60
60
40
C0
F0
70
ENDCHAR
STARTCHAR uni1E98
ENCODING 7832
SWIDTH 795 0
DWIDTH 16 0
BBX 15 15 2 0
BITMAP
0380
0280
0380
0000
C386
C38C
C78C
C798
CD98
CDB0
59B0
59E0
71E0
71C0
61C0
ENDCHAR
STARTCHAR uni1E99
ENCODING 7833
SWIDTH 548 0
DWIDTH 11 0
BBX 11 19 2 -4
BITMAP
0E00
0A00
0E00
0000
6060
60C0
61C0
6180
6380
3300
3600
3E00
3C00
3800
3800
3000
3000
6000
C000
ENDCHAR
STARTCHAR uni1EA0
ENCODING 7840
SWIDTH 687 0
DWIDTH 14 0
BBX 13 17 0 -3
BITMAP
00C0
01E0
01E0
0360
0360
0660
0C70
0C30
1830
1FF0
3FF0
6038
6018
C018
0000
0300
0300
ENDCHAR
STARTCHAR uni1EA1
ENCODING 7841
SWIDTH 608 0
DWIDTH 12 0
BBX 11 14 2 -3
BITMAP
07E0
1FE0
3860
30C0
60C0
61C0
C3C0
C7C0
CF80
FD80
7180
0000
0C00
0C00
ENDCHAR
STARTCHAR uni1EA4
ENCODING 7844
SWIDTH 687 0
DWIDTH 14 0
BBX 13 22 0 0
BITMAP
0070
00C0
0180
0000
00E0
01A0
0330
0000
00C0
01E0
01E0
0360
0360
0660
0C70
0C30
1830
1FF0
3FF0
6038
6018
C018
ENDCHAR
STARTCHAR uni1EA5
ENCODING 7845
SWIDTH 608 0
DWIDTH 12 0
BBX 11 19 2 0
BITMAP
01C0
0300
0600
0000
0380
0680
0CC0
0000
07E0
1FE0
3860
30C0
60C0
61C0
C3C0
C7C0
CF80
FD80
7180
ENDCHAR
STARTCHAR uni1EA6
ENCODING 7846
SWIDTH 687 0
DWIDTH 14 0
BBX 13 22 0 0
BITMAP
0380
0180
00C0
0000
00E0
01A0
0330
0000
00C0
01E0
01E0
0360
0360
0660
0C70
0C30
1830
1FF0
3FF0
6038
6018
C018
ENDCHAR
STARTCHAR uni1EA7
ENCODING 7847
SWIDTH 608 0
DWIDTH 12 0
BBX 11 19 2 0
BITMAP
0E00
0600
0300
0000
0380
0680
0CC0
0000
07E0
1FE0
3860
30C0
60C0
61C0
C3C0
C7C0
CF80
FD80
7180
ENDCHAR
STARTCHAR uni1EAA
ENCODING 7850
SWIDTH 687 0
DWIDTH 14 0
BBX 13 21 0 0
BITMAP
03A0
05C0
0000
00E0
01A0
0330
0000
00C0
01E0
01E0
0360
0360
0660
0C70
0C30
1830
1FF0
3FF0
6038
6018
C018
ENDCHAR
STARTCHAR uni1EAB
ENCODING 7851
SWIDTH 608 0
DWIDTH 12 0
BBX 11 18 2 0
BITMAP
0740
0B80
0000
0380
0680
0CC0
0000
07E0
1FE0
3860
30C0
60C0
61C0
C3C0
C7C0
CF80
FD80
7180
ENDCHAR
STARTCHAR uni1EAC
ENCODING 7852
SWIDTH 687 0
DWIDTH 14 0
BBX 13 21 0 -3
BITMAP
01C0
0340
0660
0000
00C0
01E0
01E0
0360
0360
0660
0C70
0C30
1830
1FF0
3FF0
6038
6018
C018
0000
0300
0300
ENDCHAR
STARTCHAR uni1EAD
ENCODING 7853
SWIDTH 608 0
DWIDTH 12 0
BBX 11 18 2 -3
BITMAP
0700
0D00
1980
0000
07E0
1FE0
3860
30C0
60C0
61C0
C3C0
C7C0
CF80
FD80
7180
0000
0C00
0C00
ENDCHAR
STARTCHAR uni1EAE
ENCODING 7854
SWIDTH 687 0
DWIDTH 14 0
BBX 13 22 0 0
BITMAP
00E0
0180
0300
0000
0420
0640
0380
0000
00C0
01E0
01E0
0360
0360
0660
0C70
0C30
1830
1FF0
3FF0
6038
6018
C018
ENDCHAR
STARTCHAR uni1EAF
ENCODING 7855
SWIDTH 608 0
DWIDTH 12 0
BBX 11 19 2 0
BITMAP
01C0
0300
0600
0000
0840
0C80
0700
0000
07E0
1FE0
3860
30C0
60C0
61C0
C3C0
C7C0
CF80
FD80
7180
ENDCHAR
STARTCHAR uni1EB0
ENCODING 7856
SWIDTH 687 0
DWIDTH 14 0
BBX 13 22 0 0
BITMAP
0700
0300
0180
0000
0420
0640
0380
0000
00C0
01E0
01E0
0360
0360
0660
0C70
0C30
1830
1FF0
3FF0
6038
6018
C018
ENDCHAR
STARTCHAR uni1EB1
ENCODING 7857
SWIDTH 608 0
DWIDTH 12 0
BBX 11 19 2 0
BITMAP
0E00
0600
0300
0000
0840
0C80
0700
0000
07E0
1FE0
3860
30C0
60C0
61C0
C3C0
C7C0
CF80
FD80
7180
ENDCHAR
STARTCHAR uni1EB4
ENCODING 7860
SWIDTH 687 0
DWIDTH 14 0
BBX 13 21 0 0
BITMAP
03A0
05C0
0000
0420
0640
0380
0000
00C0
01E0
01E0
0360
0360
0660
0C70
0C30
1830
1FF0
3FF0
6038
6018
C018
ENDCHAR
STARTCHAR uni1EB5
ENCODING 7861
SWIDTH 608 0
DWIDTH 12 0
BBX 11 18 2 0
BITMAP
0E80
1700
0000
0840
0C80
0700
0000
07E0
1FE0
3860
30C0
60C0
61C0
C3C0
C7C0
CF80
FD80
7180
ENDCHAR
STARTCHAR uni1EB6
ENCODING 7862
SWIDTH 687 0
DWIDTH 14 0
BBX 13 21 0 -3
BITMAP
0420
0640
0380
0000
00C0
01E0
01E0
0360
0360
0660
0C70
0C30
1830
1FF0
3FF0
6038
6018
C018
0000
0300
0300
ENDCHAR
STARTCHAR uni1EB7
ENCODING 7863
SWIDTH 608 0
DWIDTH 12 0
BBX 11 18 2 -3
BITMAP
0840
0C80
0700
0000
07E0
1FE0
3860
30C0
60C0
61C0
C3C0
C7C0
CF80
FD80
7180
0000
0C00
0C00
ENDCHAR
STARTCHAR uni1EB8
ENCODING 7864
SWIDTH 547 0
DWIDTH 11 0
BBX 11 17 2 -3
BITMAP
1FE0
1FE0
3800
3000
3000
3000
3F80
7F00
6000
6000
6000
6000
FF80
FF80
0000
0C00
0C00
ENDCHAR
STARTCHAR uni1EB9
ENCODING 7865
SWIDTH 529 0
DWIDTH 11 0
BBX 9 14 2 -3
BITMAP
0F00
1F80
3180
6100
4300
FC00
F000
C080
C300
7F00
3C00
0000
1800
1800
ENDCHAR
STARTCHAR uni1EBC
ENCODING 7868
SWIDTH 547 0
DWIDTH 11 0
BBX 11 17 2 0
BITMAP
0E80
1700
0000
1FE0
1FE0
3800
3000
3000
3000
3F80
7F00
6000
6000
6000
6000
FF80
FF80
ENDCHAR
STARTCHAR uni1EBD
ENCODING 7869
SWIDTH 529 0
DWIDTH 11 0
BBX 9 14 2 0
BITMAP
0E80
1700
0000
0F00
1F80
3180
6100
4300
FC00
F000
C080
C300
7F00
3C00
ENDCHAR
STARTCHAR uni1EBE
ENCODING 7870
SWIDTH 547 0
DWIDTH 11 0
BBX 11 22 2 0
BITMAP
01C0
0300
0600
0000
0700
0D00
1980
0000
1FE0
1FE0
3800
3000
3000
3000
3F80
7F00
6000
6000
6000
6000
FF80
FF80
ENDCHAR
STARTCHAR uni1EBF
ENCODING 7871
SWIDTH 529 0
DWIDTH 11 0
BBX 9 19 2 0
BITMAP
0380
0600
0C00
0000
0700
0D00
1980
0000
0F00
1F80
3180
6100
4300
FC00
F000
C080
C300
7F00
3C00
ENDCHAR
STARTCHAR uni1EC0
ENCODING 7872
SWIDTH 547 0
DWIDTH 11 0
BBX 11 22 2 0
BITMAP
0E00
0600
0300
0000
0700
0D00
1980
0000
1FE0
1FE0
3800
3000
3000
3000
3F80
7F00
6000
6000
6000
6000
FF80
FF80
ENDCHAR
STARTCHAR uni1EC1
ENCODING 7873
SWIDTH 529 0
DWIDTH 11 0
BBX 9 19 2 0
BITMAP
1C00
0C00
0600
0000
0700
0D00
1980
0000
0F00
1F80
3180
6100
4300
FC00
F000
C080
C300
7F00
3C00
ENDCHAR
STARTCHAR uni1EC4
ENCODING 7876
SWIDTH 547 0
DWIDTH 11 0
BBX 11 21 2 0
BITMAP
0E80
1700
0000
0700
0D00
1980
0000
1FE0
1FE0
3800
3000
3000
3000
3F80
7F00
6000
6000
6000
6000
FF80
FF80
ENDCHAR
STARTCHAR uni1EC5
ENCODING 7877
SWIDTH 529 0
DWIDTH 11 0
BBX 9 18 2 0
BITMAP
0E80
1700
0000
0700
0D00
1980
0000
0F00
1F80
3180
6100
4300
FC00
F000
C080
C300
7F00
3C00
ENDCHAR
STARTCHAR uni1EC6
ENCODING 7878
SWIDTH 547 0
DWIDTH 11 0
BBX 11 21 2 -3
BITMAP
0700
0D00
1980
0000
1FE0
1FE0
3800
3000
3000
3000
3F80
7F00
6000
6000
6000
6000
FF80
FF80
0000
0C00
0C00
ENDCHAR
STARTCHAR uni1EC7
ENCODING 7879
SWIDTH 529 0
DWIDTH 11 0
BBX 9 18 2 -3
BITMAP
0E00
1A00
3300
0000
0F00
1F80
3180
6100
4300
FC00
F000
C080
C300
7F00
3C00
0000
1800
1800
ENDCHAR
STARTCHAR uni1ECA
ENCODING 7882
SWIDTH 289 0
DWIDTH 6 0
BBX 5 17 2 -3
BITMAP
18
18
30
30
30
30
30
60
60
60
60
60
C0
C0
00
60
60
ENDCHAR
STARTCHAR uni1ECB
ENCODING 7883
SWIDTH 289 0
DWIDTH 6 0
BBX 5 17 2 -3
BITMAP
18
18
00
30
30
30
60
60
60
60
60
C0
C0
C0
00
60
60
ENDCHAR
STARTCHAR uni1ECC
ENCODING 7884
SWIDTH 777 0
DWIDTH 16 0
BBX 14 17 2 -3
BITMAP
03E0
0FF8
1C3C
381C
700C
600C
E00C
C00C
C018
C038
E070
70E0
7FC0
1F00
0000
0600
0600
ENDCHAR
STARTCHAR uni1ECD
ENCODING 7885
SWIDTH 566 0
DWIDTH 11 0
BBX 10 14 2 -3
BITMAP
0F00
1F80
31C0
60C0
60C0
C0C0
C180
C180
C300
7E00
3C00
0000
1800
1800
ENDCHAR
STARTCHAR uni1ED0
ENCODING 7888
SWIDTH 777 0
DWIDTH 16 0
BBX 14 22 2 0
BITMAP
00E0
0180
0300
0000
01C0
0340
0660
0000
03E0
0FF8
1C3C
381C
700C
600C
E00C
C00C
C018
C038
E070
70E0
7FC0
1F00
ENDCHAR
STARTCHAR uni1ED1
ENCODING 7889
SWIDTH 566 0
DWIDTH 11 0
BBX 10 19 2 0
BITMAP
01C0
0300
0600
0000
0380
0680
0CC0
0000
0F00
1F80
31C0
60C0
60C0
C0C0
C180
C180
C300
7E00
3C00
ENDCHAR
STARTCHAR uni1ED2
ENCODING 7890
SWIDTH 777 0
DWIDTH 16 0
BBX 14 22 2 0
BITMAP
0700
0300
0180
0000
01C0
0340
0660
0000
03E0
0FF8
1C3C
381C
700C
600C
E00C
C00C
C018
C038
E070
70E0
7FC0
1F00
ENDCHAR
STARTCHAR uni1ED3
ENCODING 7891
SWIDTH 566 0
DWIDTH 11 0
BBX 10 19 2 0
BITMAP
0E00
0600
0300
0000
0380
0680
0CC0
0000
0F00
1F80
31C0
60C0
60C0
C0C0
C180
C180
C300
7E00
3C00
ENDCHAR
STARTCHAR uni1ED6
ENCODING 7894
SWIDTH 777 0
DWIDTH 16 0
BBX 14 21 2 0
BITMAP
03A0
05C0
0000
01C0
0340
0660
0000
03E0
0FF8
1C3C
381C
700C
600C
E00C
C00C
C018
C038
E070
70E0
7FC0
1F00
ENDCHAR
STARTCHAR uni1ED7
ENCODING 7895
SWIDTH 566 0
DWIDTH 11 0
BBX 10 18 2 0
BITMAP
0740
0B80
0000
0380
0680
0CC0
0000
0F00
1F80
31C0
60C0
60C0
C0C0
C180
C180
C300
7E00
3C00
ENDCHAR
STARTCHAR uni1ED8
ENCODING 7896
SWIDTH 777 0
DWIDTH 16 0
BBX 14 21 2 -3
BITMAP
01C0
0340
0660
0000
03E0
0FF8
1C3C
381C
700C
600C
E00C
C00C
C018
C038
E070
70E0
7FC0
1F00
0000
0600
0600
ENDCHAR
STARTCHAR uni1ED9
ENCODING 7897
SWIDTH 566 0
DWIDTH 11 0
BBX 10 18 2 -3
BITMAP
0700
0D00
1980
0000
0F00
1F80
31C0
60C0
60C0
C0C0
C180
C180
C300
7E00
3C00
0000
1800
1800
ENDCHAR
STARTCHAR uni1EDA
ENCODING 7898
SWIDTH 777 0
DWIDTH 16 0
BBX 17 18 2 0
BITMAP
003800
006000
00C000
000000
03E380
0FFB80
1C3F00
381F00
700C00
600C00
E00C00
C00C00
C01800
C03800
E07000
70E000
7FC000
1F0000
ENDCHAR
STARTCHAR uni1EDB
ENCODING 7899
SWIDTH 566 0
DWIDTH 11 0
BBX 13 15 2 0
BITMAP
00E0
0180
0300
0000
0F38
1FB8
31F0
60F0
60C0
C0C0
C180
C180
C300
7E00
3C00
ENDCHAR
STARTCHAR uni1EDC
ENCODING 7900
SWIDTH 777 0
DWIDTH 16 0
BBX 17 18 2 0
BITMAP
01C000
00C000
006000
000000
03E380
0FFB80
1C3F00
381F00
700C00
600C00
E00C00
C00C00
C01800
C03800
E07000
70E000
7FC000
1F0000
ENDCHAR
STARTCHAR uni1EDD
ENCODING 7901
SWIDTH 566 0
DWIDTH 11 0
BBX 13 15 2 0
BITMAP
0700
0300
0180
0000
0F38
1FB8
31F0
60F0
60C0
C0C0
C180
C180
C300
7E00
3C00
ENDCHAR
STARTCHAR uni1EE0
ENCODING 7904
SWIDTH 777 0
DWIDTH 16 0
BBX 17 17 2 0
BITMAP
00E800
017000
000000
03E380
0FFB80
1C3F00
381F00
700C00
600C00
E00C00
C00C00
C01800
C03800
E07000
70E000
7FC000
1F0000
ENDCHAR
STARTCHAR uni1EE1
ENCODING 7905
SWIDTH 566 0
DWIDTH 11 0
BBX 13 14 2 0
BITMAP
03A0
05C0
0000
0F38
1FB8
31F0
60F0
60C0
C0C0
C180
C180
C300
7E00
3C00
ENDCHAR
STARTCHAR uni1EE2
ENCODING 7906
SWIDTH 777 0
DWIDTH 16 0
BBX 17 17 2 -3
BITMAP
03E380
0FFB80
1C3F00
381F00
700C00
600C00
E00C00
C00C00
C01800
C03800
E07000
70E000
7FC000
1F0000
000000
030000
030000
ENDCHAR
STARTCHAR uni1EE3
ENCODING 7907
SWIDTH 566 0
DWIDTH 11 0
BBX 13 14 2 -3
BITMAP
0F38
1FB8
31F0
60F0
60C0
C0C0
C180
C180
C300
7E00
3C00
0000
0C00
0C00
ENDCHAR
STARTCHAR uni1EE4
ENCODING 7908
SWIDTH 693 0
DWIDTH 14 0
BBX 12 17 3 -3
BITMAP
3030
3030
7030
6060
6060
6060
6060
C060
C0C0
C0C0
C0C0
E180
FF80
7E00
0000
0C00
0C00
ENDCHAR
STARTCHAR uni1EE5
ENCODING 7909
SWIDTH 620 0
DWIDTH 12 0
BBX 10 14 2 -3
BITMAP
70C0
60C0
60C0
6180
6380
C380
C780
CF80
DD00
FB00
7300
0000
1800
1800
ENDCHAR
STARTCHAR uni1EE8
ENCODING 7912
SWIDTH 693 0
DWIDTH 14 0
BBX 15 18 3 0
BITMAP
0070
00C0
0180
0000
303E
303E
703C
607C
6070
6060
6060
C060
C0C0
C0C0
C0C0
E180
FF80
7E00
ENDCHAR
STARTCHAR uni1EE9
ENCODING 7913
SWIDTH 620 0
DWIDTH 12 0
BBX 13 15 2 0
BITMAP
00E0
0180
0300
0000
70F8
60F8
60F0
61F0
63C0
C380
C780
CF80
DD00
FB00
7300
ENDCHAR
STARTCHAR uni1EEA
ENCODING 7914
SWIDTH 693 0
DWIDTH 14 0
BBX 15 18 3 0
BITMAP
0380
0180
00C0
0000
303E
303E
703C
607C
6070
6060
6060
C060
C0C0
C0C0
C0C0
E180
FF80
7E00
ENDCHAR
STARTCHAR uni1EEB
ENCODING 7915
SWIDTH 620 0
DWIDTH 12 0
BBX 13 15 2 0
BITMAP
0700
0300
0180
0000
70F8
60F8
60F0
61F0
63C0
C380
C780
CF80
DD00
FB00
7300
ENDCHAR
STARTCHAR uni1EEE
ENCODING 7918
SWIDTH 693 0
DWIDTH 14 0
BBX 15 17 3 0
BITMAP
01D0
02E0
0000
303E
303E
703C
607C
6070
6060
6060
C060
C0C0
C0C0
C0C0
E180
FF80
7E00
ENDCHAR
STARTCHAR uni1EEF
ENCODING 7919
SWIDTH 620 0
DWIDTH 12 0
BBX 13 14 2 0
BITMAP
0740
0B80
0000
70F8
60F8
60F0
61F0
63C0
C380
C780
CF80
DD00
FB00
7300
ENDCHAR
STARTCHAR uni1EF0
ENCODING 7920
SWIDTH 693 0
DWIDTH 14 0
BBX 15 17 3 -3
BITMAP
303E
303E
703C
607C
6070
6060
6060
C060
C0C0
C0C0
C0C0
E180
FF80
7E00
0000
0C00
0C00
ENDCHAR
STARTCHAR uni1EF1
ENCODING 7921
SWIDTH 620 0
DWIDTH 12 0
BBX 13 14 2 -3
BITMAP
70F8
60F8
60F0
61F0
63C0
C380
C780
CF80
DD00
FB00
7300
0000
0C00
0C00
ENDCHAR
STARTCHAR Ygrave
ENCODING 7922
SWIDTH 608 0
DWIDTH 12 0
BBX 12 18 3 0
BITMAP
1C00
0C00
0600
0000
C070
60E0
60C0
3180
3300
3F00
1E00
1C00
1800
1800
1800
1800
3000
3000
ENDCHAR
STARTCHAR ygrave
ENCODING 7923
SWIDTH 548 0
DWIDTH 11 0
BBX 11 19 2 -4
BITMAP
1C00
0C00
0600
0000
6060
60C0
61C0
6180
6380
3300
3600
3E00
3C00
3800
3800
3000
3000
6000
C000
ENDCHAR
STARTCHAR uni1EF4
ENCODING 7924
SWIDTH 608 0
DWIDTH 12 0
BBX 12 17 3 -3
BITMAP
C070
60E0
60C0
3180
3300
3F00
1E00
1C00
1800
1800
1800
1800
3000
3000
0000
1800
1800
ENDCHAR
STARTCHAR uni1EF5
ENCODING 7925
SWIDTH 548 0
DWIDTH 11 0
BBX 11 18 2 -7
BITMAP
6060
60C0
61C0
6180
6380
3300
3600
3E00
3C00
3800
3800
3000
3000
6000
C000
0000
3000
3000
ENDCHAR
STARTCHAR uni1EF8
ENCODING 7928
SWIDTH 608 0
DWIDTH 12 0
BBX 12 17 3 0
BITMAP
0E80
1700
0000
C070
60E0
60C0
3180
3300
3F00
1E00
1C00
1800
1800
1800
1800
3000
3000
ENDCHAR
STARTCHAR uni1EF9
ENCODING 7929
SWIDTH 548 0
DWIDTH 11 0
BBX 11 18 2 -4
BITMAP
0E80
1700
0000
6060
60C0
61C0
6180
6380
3300
3600
3E00
3C00
3800
3800
3000
3000
6000
C000
ENDCHAR
STARTCHAR uni2000
ENCODING 8192
SWIDTH 500 0
DWIDTH 10 0
BBX 1 1 0 0
BITMAP
00
ENDCHAR
STARTCHAR uni2001
ENCODING 8193
SWIDTH 1000 0
DWIDTH 19 0
BBX 1 1 0 0
BITMAP
00
ENDCHAR
STARTCHAR uni2002
ENCODING 8194
SWIDTH 500 0
DWIDTH 10 0
BBX 1 1 0 0
BITMAP
00
ENDCHAR
STARTCHAR uni2003
ENCODING 8195
SWIDTH 1000 0
DWIDTH 19 0
BBX 1 1 0 0
BITMAP
00
ENDCHAR
STARTCHAR uni2004
ENCODING 8196
SWIDTH 333 0
DWIDTH 6 0
BBX 1 1 0 0
BITMAP
00
ENDCHAR
STARTCHAR uni2005
ENCODING 8197
SWIDTH 250 0
DWIDTH 5 0
BBX 1 1 0 0
BITMAP
00
ENDCHAR
STARTCHAR uni2006
ENCODING 8198
SWIDTH 167 0
DWIDTH 3 0
BBX 1 1 0 0
BITMAP
00
ENDCHAR
STARTCHAR uni2007
ENCODING 8199
SWIDTH 633 0
DWIDTH 13 0
BBX 1 1 0 0
BITMAP
00
ENDCHAR
STARTCHAR uni2008
ENCODING 8200
SWIDTH 316 0
DWIDTH 6 0
BBX 1 1 0 0
BITMAP
00
ENDCHAR
STARTCHAR uni2009
ENCODING 8201
SWIDTH 200 0
DWIDTH 4 0
BBX 1 1 0 0
BITMAP
00
ENDCHAR
STARTCHAR uni200A
ENCODING 8202
SWIDTH 100 0
DWIDTH 2 0
BBX 1 1 0 0
BITMAP
00
ENDCHAR
STARTCHAR uni200B
ENCODING 8203
SWIDTH 0 0
DWIDTH 0 0
BBX 1 1 0 0
BITMAP
00
ENDCHAR
STARTCHAR uni2010
ENCODING 8208
SWIDTH 313 0
DWIDTH 6 0
BBX 5 2 2 6
BITMAP
F8
F8
ENDCHAR
STARTCHAR uni2011
ENCODING 8209
SWIDTH 313 0
DWIDTH 6 0
BBX 5 2 2 6
BITMAP
F8
F8
ENDCHAR
STARTCHAR figuredash
ENCODING 8210
SWIDTH 500 0
DWIDTH 10 0
BBX 8 2 2 5
BITMAP
FF
FF
ENDCHAR
STARTCHAR endash
ENCODING 8211
SWIDTH 500 0
DWIDTH 10 0
BBX 8 2 2 5
BITMAP
FF
FF
ENDCHAR
STARTCHAR emdash
ENCODING 8212
SWIDTH 1000 0
DWIDTH 20 0
BBX 18 2 2 5
BITMAP
FFFFC0
FFFFC0
ENDCHAR
STARTCHAR afii00208
ENCODING 8213
SWIDTH 1000 0
DWIDTH 20 0
BBX 18 2 2 5
BITMAP
FFFFC0
FFFFC0
ENDCHAR
STARTCHAR quoteleft
ENCODING 8216
SWIDTH 217 0
DWIDTH 4 0
BBX 4 5 3 9
BITMAP
30
60
40
E0
E0
ENDCHAR
STARTCHAR quoteright
ENCODING 8217
SWIDTH 217 0
DWIDTH 4 0
BBX 4 5 3 9
BITMAP
70
70
60
E0
80
ENDCHAR
STARTCHAR quotesinglbase
ENCODING 8218
SWIDTH 217 0
DWIDTH 4 0
BBX 3 7 1 -4
BITMAP
60
E0
E0
60
40
40
C0
ENDCHAR
STARTCHAR quotereversed
ENCODING 8219
SWIDTH 217 0
DWIDTH 4 0
BBX 4 5 3 9
BITMAP
E0
E0
60
70
10
ENDCHAR
STARTCHAR quotedblleft
ENCODING 8220
SWIDTH 361 0
DWIDTH 7 0
BBX 6 4 3 10
BITMAP
24
4C
DC
D8
ENDCHAR
STARTCHAR quotedblright
ENCODING 8221
SWIDTH 361 0
DWIDTH 7 0
BBX 6 4 3 10
BITMAP
6C
6C
4C
98
ENDCHAR
STARTCHAR quotedblbase
ENCODING 8222
SWIDTH 361 0
DWIDTH 7 0
BBX 6 7 0 -4
BITMAP
6C
6C
6C
44
4C
48
90
ENDCHAR
STARTCHAR uni201F
ENCODING 8223
SWIDTH 361 0
DWIDTH 7 0
BBX 6 4 3 10
BITMAP
D8
D8
C8
64
ENDCHAR
STARTCHAR dagger
ENCODING 8224
SWIDTH 633 0
DWIDTH 13 0
BBX 9 18 4 -4
BITMAP
0600
0400
0C00
0C00
0C00
FF80
FF80
0800
1800
1800
1000
1000
3000
3000
3000
2000
6000
6000
ENDCHAR
STARTCHAR daggerdbl
ENCODING 8225
SWIDTH 633 0
DWIDTH 13 0
BBX 10 18 3 -4
BITMAP
0300
0200
0600
0600
0600
7FC0
7FC0
0C00
0C00
0C00
0C00
FF80
FF80
1800
1800
1800
1000
3000
ENDCHAR
STARTCHAR bullet
ENCODING 8226
SWIDTH 633 0
DWIDTH 13 0
BBX 7 6 4 4
BITMAP
7E
7E
7E
FC
FC
FC
ENDCHAR
STARTCHAR ellipsis
ENCODING 8230
SWIDTH 1000 0
DWIDTH 20 0
BBX 16 2 2 0
BITMAP
C183
C183
ENDCHAR
STARTCHAR perthousand
ENCODING 8240
SWIDTH 1027 0
DWIDTH 21 0
BBX 22 14 1 0
BITMAP
1E0300
3F0600
210C00
631800
7E3000
3C6000
00B838
017C7C
02C4C4
04C684
088484
108C8C
20F8F8
C07070
ENDCHAR
STARTCHAR guilsinglleft
ENCODING 8249
SWIDTH 328 0
DWIDTH 7 0
BBX 6 10 2 0
BITMAP
0C
1C
38
70
E0
C0
60
20
30
10
ENDCHAR
STARTCHAR guilsinglright
ENCODING 8250
SWIDTH 328 0
DWIDTH 7 0
BBX 6 10 1 0
BITMAP
20
30
38
18
1C
1C
38
70
E0
C0
ENDCHAR
STARTCHAR fraction
ENCODING 8260
SWIDTH 117 0
DWIDTH 2 0
BBX 15 14 -4 0
BITMAP
0006
000C
0018
0030
0060
00C0
0180
0300
0600
0C00
1800
3000
6000
C000
ENDCHAR
STARTCHAR oneinferior
ENCODING 8321
SWIDTH 392 0
DWIDTH 8 0
BBX 3 9 -12 -5
BITMAP
E0
20
40
40
40
40
40
80
80
ENDCHAR
STARTCHAR twoinferior
ENCODING 8322
SWIDTH 392 0
DWIDTH 8 0
BBX 7 9 -10 -5
BITMAP
3C
26
02
06
0C
10
60
40
FC
ENDCHAR
STARTCHAR threeinferior
ENCODING 8323
SWIDTH 392 0
DWIDTH 8 0
BBX 6 9 -10 -5
BITMAP
38
04
04
08
38
08
08
08
F0
ENDCHAR
STARTCHAR uni20A5
ENCODING 8357
SWIDTH 934 0
DWIDTH 19 0
BBX 17 18 2 -3
BITMAP
000600
000C00
000800
001800
31F700
37FF80
3EFD80
7CF980
78F180
71E300
71C300
63C300
E78300
C78300
CD8600
080000
180000
300000
ENDCHAR
STARTCHAR uni20A6
ENCODING 8358
SWIDTH 741 0
DWIDTH 15 0
BBX 14 14 2 0
BITMAP
180C
1C0C
3C08
3C08
3FFC
3FFC
2318
6310
7FF8
7FF8
40F0
40F0
C0E0
C060
ENDCHAR
STARTCHAR uni20A9
ENCODING 8361
SWIDTH 886 0
DWIDTH 18 0
BBX 17 14 3 0
BITMAP
C1C180
C1C300
C3C300
C3C600
DFFE00
DFFE00
C4CC00
CCD800
FFFC00
7FFC00
50F000
70E000
70E000
60C000
ENDCHAR
STARTCHAR Euro
ENCODING 8364
SWIDTH 679 0
DWIDTH 14 0
BBX 16 14 -1 0
BITMAP
007E
01FF
0381
0700
7FF8
7FF8
1C00
1800
FFF0
FFF0
1800
0C04
0FFC
03E0
ENDCHAR
STARTCHAR uni20AD
ENCODING 8365
SWIDTH 635 0
DWIDTH 13 0
BBX 13 14 2 0
BITMAP
1838
1860
38C0
3180
3300
3600
FFF8
FFF8
6600
6700
6380
6180
C0C0
C0E0
ENDCHAR
STARTCHAR uni2103
ENCODING 8451
SWIDTH 935 0
DWIDTH 19 0
BBX 16 14 4 0
BITMAP
E07E
A1FF
E381
0700
0E00
0C00
1C00
1800
1800
1800
1800
0C04
0FFC
03E0
ENDCHAR
STARTCHAR uni2109
ENCODING 8457
SWIDTH 792 0
DWIDTH 16 0
BBX 14 14 4 0
BITMAP
E3FC
A3FC
E700
0600
0600
0600
07F0
0FE0
0C00
0C00
0C00
0C00
1800
1800
ENDCHAR
STARTCHAR trademark
ENCODING 8482
SWIDTH 801 0
DWIDTH 16 0
BBX 15 7 3 7
BITMAP
FEC6
FCCE
31CC
31D4
2174
216C
630C
ENDCHAR
STARTCHAR uni212A
ENCODING 8490
SWIDTH 635 0
DWIDTH 13 0
BBX 13 14 2 0
BITMAP
1838
1860
38C0
3180
3300
3600
3C00
6E00
6600
6700
6380
6180
C0C0
C0E0
ENDCHAR
STARTCHAR uni212B
ENCODING 8491
SWIDTH 687 0
DWIDTH 14 0
BBX 13 18 0 0
BITMAP
00E0
00A0
00E0
0000
00C0
01E0
01E0
0360
0360
0660
0C70
0C30
1830
1FF0
3FF0
6038
6018
C018
ENDCHAR
STARTCHAR uni2132
ENCODING 8498
SWIDTH 536 0
DWIDTH 11 0
BBX 11 14 2 0
BITMAP
0060
0060
00C0
00C0
00C0
00C0
1FC0
3F80
0180
0180
0180
0380
FF00
FF00
ENDCHAR
STARTCHAR minus
ENCODING 8722
SWIDTH 633 0
DWIDTH 13 0
BBX 12 2 1 5
BITMAP
FFF0
FFF0
ENDCHAR
STARTCHAR fraction
ENCODING 8725
SWIDTH 117 0
DWIDTH 2 0
BBX 15 14 -4 0
BITMAP
0006
000C
0018
0030
0060
00C0
0180
0300
0600
0C00
1800
3000
6000
C000
ENDCHAR
STARTCHAR periodcentered
ENCODING 8729
SWIDTH 316 0
DWIDTH 13 0
BBX 3 2 6 6
BITMAP
E0
E0
ENDCHAR
STARTCHAR uni2236
ENCODING 8758
SWIDTH 316 0
DWIDTH 6 0
BBX 4 11 2 0
BITMAP
30
30
00
00
00
00
00
00
00
C0
C0
ENDCHAR
STARTCHAR uni2259
ENCODING 8793
SWIDTH 633 0
DWIDTH 13 0
BBX 13 10 1 3
BITMAP
0380
0680
0CC0
0000
7FF8
7FF8
0000
0000
FFF0
FFF0
ENDCHAR
STARTCHAR uni225A
ENCODING 8794
SWIDTH 633 0
DWIDTH 13 0
BBX 13 10 1 3
BITMAP
0CC0
0580
0700
0000
7FF8
7FF8
0000
0000
FFF0
FFF0
ENDCHAR
STARTCHAR notequal
ENCODING 8800
SWIDTH 633 0
DWIDTH 13 0
BBX 13 18 1 -3
BITMAP
0018
0030
0020
0060
00C0
00C0
7FF8
7FF8
0300
0600
FFF0
FFF0
1800
1800
3000
2000
6000
C000
ENDCHAR
STARTCHAR equivalence
ENCODING 8801
SWIDTH 633 0
DWIDTH 13 0
BBX 13 8 0 2
BITMAP
FFF8
FFF8
0000
FFF8
FFF8
0000
FFF8
FFF8
ENDCHAR
STARTCHAR uni2262
ENCODING 8802
SWIDTH 633 0
DWIDTH 13 0
BBX 13 18 0 -3
BITMAP
0018
0030
0020
0060
00C0
FFF8
FFF8
0100
FFF8
FFF8
0400
FFF8
FFF8
1800
3000
2000
6000
C000
ENDCHAR
STARTCHAR lessequal
ENCODING 8804
SWIDTH 633 0
DWIDTH 13 0
BBX 13 15 2 -3
BITMAP
0008
0038
00E0
0780
1E00
7800
F000
3C00
0F00
03C0
01E0
0060
0000
FFF8
FFF8
ENDCHAR
STARTCHAR greaterequal
ENCODING 8805
SWIDTH 633 0
DWIDTH 13 0
BBX 13 15 0 -3
BITMAP
3000
3C00
1E00
0780
01E0
0078
00F0
03C0
0F00
3800
E000
8000
0000
FFF8
FFF8
ENDCHAR
STARTCHAR uni226E
ENCODING 8814
SWIDTH 633 0
DWIDTH 13 0
BBX 13 18 2 -3
BITMAP
0018
0030
0020
0068
00F8
00E0
0780
1F00
7B00
F600
3C00
0F00
1BC0
19E0
3060
2000
6000
C000
ENDCHAR
STARTCHAR uni226F
ENCODING 8815
SWIDTH 633 0
DWIDTH 13 0
BBX 13 18 0 -3
BITMAP
0018
0030
0020
3060
3CC0
1EC0
0780
01E0
0378
06F0
07C0
0F00
3800
F800
B000
2000
6000
C000
ENDCHAR
STARTCHAR uni2270
ENCODING 8816
SWIDTH 633 0
DWIDTH 13 0
BBX 13 18 2 -4
BITMAP
0018
0030
0028
0078
00E0
07C0
1F80
7900
F300
3E00
0F00
0FC0
19E0
1860
3000
FFF8
FFF8
C000
ENDCHAR
STARTCHAR uni2271
ENCODING 8817
SWIDTH 633 0
DWIDTH 13 0
BBX 13 18 0 -4
BITMAP
0018
0030
3020
3C60
1EC0
07C0
01E0
0178
03F0
07C0
0F00
3C00
F800
9800
3000
FFF8
FFF8
C000
ENDCHAR
STARTCHAR fi
ENCODING -1
SWIDTH 639 0
DWIDTH 13 0
BBX 12 20 2 -4
BITMAP
0380
0F80
0C30
1830
1800
7FE0
7FE0
3060
3060
3040
30C0
30C0
60C0
60C0
6080
6180
6000
C000
C000
C000
ENDCHAR
STARTCHAR fl
ENCODING -1
SWIDTH 639 0
DWIDTH 13 0
BBX 13 20 1 -4
BITMAP
03F8
07F8
0C38
1830
1830
7F30
7F30
1830
3060
3060
3060
3060
2060
60C0
60C0
60C0
6000
4000
C000
C000
ENDCHAR
ENDFONT
